{
.appVersion = "3091";
.formatVersion = 3;
DisplayStrings = (
"Public Sans",
"/colon_w_a_r_a_t_a_h_colon.liga",
"",
"/colon_w_a_r_a_t_a_h_colon.liga"
);
axes = (
{
name = Weight;
tag = wght;
}
);
classes = (
{
code = "";
name = all_but_space;
}
);
customParameters = (
{
name = fsType;
value = (
);
},
{
name = "Use Typo Metrics";
value = 1;
}
);
date = "2020-01-08 15:55:24 +0000";
familyName = "Public Sans (NSW)";
featurePrefixes = (
{
automatic = 1;
code = "languagesystem DFLT dflt;

languagesystem latn dflt;
languagesystem latn AZE;
languagesystem latn CRT;
languagesystem latn KAZ;
languagesystem latn TAT;
languagesystem latn TRK;
languagesystem latn ROM;
languagesystem latn MOL;
languagesystem latn CAT;
";
name = Languagesystems;
}
);
features = (
{
automatic = 1;
code = "feature locl;
feature subs;
feature sinf;
feature sups;
feature numr;
feature dnom;
feature frac;
feature ordn;
feature lnum;
feature pnum;
feature tnum;
feature onum;
feature ss01;
feature calt;
feature tnum;
feature case;
";
tag = aalt;
},
{
automatic = 1;
code = "lookup ccmp_Other_1 {
	@CombiningTopAccents = [acutecomb brevecomb breveinvertedcomb caroncomb circumflexcomb dblgravecomb dieresiscomb dotaccentcomb gravecomb hookabovecomb hungarumlautcomb macroncomb ringcomb tildecomb];
	@CombiningNonTopAccents = [cedillacomb dotbelowcomb ogonekcomb horncomb];
	sub [i j]' @CombiningTopAccents by [idotless jdotless];
	sub [i j]' @CombiningNonTopAccents @CombiningTopAccents by [idotless jdotless];
} ccmp_Other_1;

lookup ccmp_latn_1 {
	sub fi by f i;
	sub fl by f l;
} ccmp_latn_1;

lookup ccmp_latn_2 {
	lookupflag 0;
	sub brevecomb acutecomb by brevecomb_acutecomb;
	sub brevecomb gravecomb by brevecomb_gravecomb;
	sub brevecomb hookabovecomb by brevecomb_hookabovecomb;
	sub brevecomb tildecomb by brevecomb_tildecomb;
	sub circumflexcomb acutecomb by circumflexcomb_acutecomb;
	sub circumflexcomb gravecomb by circumflexcomb_gravecomb;
	sub circumflexcomb hookabovecomb by circumflexcomb_hookabovecomb;

glyphs = (
{
glyphname = A;
kernLeft = A;
kernRight = A;
lastChange = "2020-01-08 04:48:48 +0000";
layers = (
{
anchors = (
{
name = bottom;
pos = (742,0);
},
{
name = ogonek;
pos = (1406,10);
},
{
name = top;
pos = (742,1446);
}
);
background = {
anchors = (
{
name = ogonek;
pos = (1470,18);
},
{
name = top;
pos = (768,1484);
}
);
shapes = (
{
closed = 1;
nodes = (
(368,0,ls),
(397,0,o),
(410,14,o),
(416,30,cs),
(498,266,ls),
(502,280,o),
(512,288,o),
(528,288,cs),
(952,288,ls),
(972,288,o),
(976,278,o),
(982,264,cs),
(1060,34,ls),
(1068,8,o),
(1084,0,o),
(1104,0,cs),
(1496,0,ls),
(1526,0,o),
(1534,40,o),
(1524,68,cs),
(1044,1430,ls),
(1032,1462,o),
(1006,1484,o),
(972,1484,cs),
(578,1484,ls),
(542,1484,o),
(530,1470,o),
(518,1438,cs),
(34,74,ls),
(18,30,o),
(34,0,o),
(64,0,cs)
);
},
{
closed = 1;
nodes = (
(600,628,o),
(594,644,o),
(604,670,cs),
(726,1010,ls),
(730,1024,o),
(744,1024,o),
(750,1010,cs),
(870,668,ls),
(878,642,o),
(874,628,o),
(852,628,cs),
(624,628,ls)
);
}
);
};
guides = (
{
angle = 108.62;
pos = (1452,0);
},
{
angle = -108.62;
pos = (30,0);
}
);
layerId = "258ED206-D907-4350-8EBA-CBDDA1C16BF7";
shapes = (
{
closed = 1;
nodes = (
(418,0,l),
(516,280,l),
(972,280,l),
(1068,0,l),
(1452,0,l),
(940,1446,l),
(542,1446,l),
(30,0,l)
);
},
{
closed = 1;
nodes = (
(742,1074,l),
(884,612,l),
(598,612,l)
);
}
);
width = 1482;
},
{
anchors = (
{
name = bottom;
pos = (694,0);
},
{
name = ogonek;
pos = (1274,24);
},
{
name = top;
pos = (694,1446);
}
);
background = {
anchors = (
{
name = ogonek;
pos = (1292,22);
},
{
name = top;
pos = (714,1484);
}
);
shapes = (
{
closed = 1;
nodes = (
(184,0,ls),
(196,0,o),
(204,4,o),
(206,14,cs),
(372,462,ls),
(376,472,o),
(380,476,o),
(392,476,cs),
(1036,476,ls),
(1048,476,o),
(1053,472,o),
(1056,462,cs),
(1219,16,ls),
(1222,4,o),
(1230,0,o),
(1244,0,cs),
(1292,0,ls),
(1306,0,o),
(1312,8,o),
(1308,20,cs),
(784,1464,ls),
(780,1478,o),
(768,1484,o),
(748,1484,cs),
(682,1484,ls),
(664,1484,o),
(656,1478,o),
(650,1462,cs),
(120,18,ls),
(116,6,o),
(122,0,o),
(134,0,cs)
);
},
{
closed = 1;
nodes = (
(408,556,o),
(404,558,o),
(410,572,cs),
(700,1354,ls),
(710,1382,o),
(721,1382,o),
(730,1356,cs),
(1016,576,ls),
(1020,564,o),
(1018,556,o),
(1002,556,cs),
(420,556,ls)
);
}
);
};
guides = (
{
angle = -110.08;
pos = (194,0);
},
{
angle = 110.0797;
pos = (1192,0);
}
);
layerId = "91AB5BCA-6A50-42DA-B2F7-8181BF189245";
shapes = (
{
closed = 1;
nodes = (
(194,0,l),
(361,456,l),
(1025,456,l),
(1192,0,l),
(1278,0,l),
(750,1446,l),
(639,1446,l),
(110,0,l)
);
},
{
closed = 1;
nodes = (
(693,1365,l),
(994,542,l),
(392,542,l)
);
}
);
width = 1388;
},
{
associatedMasterId = "91AB5BCA-6A50-42DA-B2F7-8181BF189245";
layerId = "9B224660-7948-4A6A-945B-B6895C887CED";
name = bubble;
shapes = (
{
closed = 1;
nodes = (
(499,1556,ls),
(476,1556,o),
(461,1546,o),
(453,1524,cs),
(-129,-64,ls),
(-139,-92,o),
(-126,-110,o),
(-97,-110,cs),
(344,-110,ls),
(368,-110,o),
(382,-100,o),
(390,-78,cs),
(548,346,l),
(851,346,l),
(1005,-78,ls),
(1013,-100,o),
(1027,-110,o),
(1051,-110,cs),
(1495,-110,ls),
(1524,-110,o),
(1537,-92,o),
(1527,-64,cs),
(947,1524,ls),
(939,1546,o),
(924,1556,o),
(901,1556,cs)
);
}
);
width = 1398;
}
);
metricLeft = X;
metricRight = X;
unicode = 65;
},
{
glyphname = Aringacute;
kernLeft = A;
kernRight = A;
lastChange = "2019-07-24 01:09:53 +0000";
layers = (
{
background = {
shapes = (
{
closed = 1;
nodes = (
(428,6,l),
(528,294,l),
(996,294,l),
(1094,6,l),
(1570,6,l),
(1046,1490,l),
(556,1490,l),
(30,6,l)
);
},
{
closed = 1;
nodes = (
(760,1048,l),
(906,634,l),
(612,634,l)
);
},
{
closed = 1;
nodes = (
(922,1386,o),
(1020,1468,o),
(1020,1592,cs),
(1020,1712,o),
(922,1798,o),
(800,1798,cs),
(680,1798,o),
(580,1714,o),
(580,1596,cs),
(580,1470,o),
(678,1386,o),
(800,1386,cs)
);
},
{
closed = 1;
nodes = (
(746,1492,o),
(700,1538,o),
(700,1590,cs),
(700,1644,o),
(746,1684,o),
(798,1684,cs),
(852,1684,o),
(894,1644,o),
(894,1590,cs),
(894,1538,o),
(852,1492,o),
(798,1492,cs)
);
},
{
closed = 1;
nodes = (
(886,1750,l),
(936,1870,ls),
(948,1898,o),
(940,1928,o),
(908,1928,cs),
(818,1928,ls),
(780,1928,o),
(754,1916,o),
(742,1866,cs),
(714,1750,l)
);
}
);
};
layerId = "258ED206-D907-4350-8EBA-CBDDA1C16BF7";
shapes = (
{
ref = A;
},
{
pos = (8,0);
ref = _ringacute;
}
);
width = 1482;
},
{
background = {
shapes = (
{
closed = 1;
nodes = (
(876,1714,o),
(788,1800,o),
(676,1800,cs),
(566,1800,o),
(476,1714,o),
(476,1608,cs),
(476,1492,o),
(564,1404,o),
(676,1404,cs),
(788,1404,o),
(876,1490,o),
(876,1604,cs)
);
},
{
closed = 1;
nodes = (
(790,1540,o),
(740,1484,o),
(674,1484,cs),
(612,1484,o),
(556,1540,o),
(556,1602,cs),
(556,1672,o),
(612,1720,o),
(674,1720,cs),
(740,1720,o),
(790,1672,o),
(790,1602,cs)
);
},
{
closed = 1;
nodes = (
(628,1484,o),
(620,1478,o),
(614,1462,cs),
(120,18,l),
(116,8,o),
(122,0,o),
(134,0,cs),
(178,0,ls),
(190,0,o),
(196,4,o),
(200,14,c),
(354,462,ls),
(358,472,o),
(362,476,o),
(374,476,cs),
(966,476,ls),
(978,476,o),
(982,472,o),
(986,462,cs),
(1138,16,ls),
(1142,4,o),
(1148,0,o),
(1162,0,cs),
(1216,0,ls),
(1230,0,o),
(1236,8,o),
(1232,20,cs),
(746,1464,l),
(742,1478,o),
(730,1484,o),
(710,1484,cs),
(646,1484,ls)
);
},
{
closed = 1;
nodes = (
(954,564,o),
(952,556,o),
(936,556,cs),
(398,556,ls),
(386,556,o),
(384,558,o),
(390,572,cs),
(656,1354,ls),
(666,1382,o),
(678,1382,o),
(686,1356,cs),
(950,576,ls)
);
},
{
closed = 1;
nodes = (
(696,1928,o),
(686,1920,o),
(682,1902,cs),
(646,1750,l),
(722,1750,l),
(784,1896,ls),
(792,1916,o),
(786,1928,o),
(764,1928,cs),
(718,1928,ls)
);
}
);
};
layerId = "91AB5BCA-6A50-42DA-B2F7-8181BF189245";
shapes = (
{
ref = A;
},
{
pos = (-2,0);
ref = _ringacute;
}
);
width = 1388;
},
{
associatedMasterId = "91AB5BCA-6A50-42DA-B2F7-8181BF189245";
layerId = "3AD800D6-5856-492E-BD51-88BB99C19ADA";
name = bubble;
width = 1398;
}
);
metricLeft = A;
metricRight = A;
unicode = 506;
},
{
glyphname = AE;
kernLeft = AE;
kernRight = E;
lastChange = "2019-07-26 22:13:28 +0000";
layers = (
{
anchors = (
{
name = top;
pos = (1382,1446);
}
);
background = {
anchors = (
{
name = top;
pos = (1396,1484);
}
);
shapes = (
{
closed = 1;
nodes = (
(1448,328,ls),
(1430,328,o),
(1424,334,o),
(1424,356,cs),
(1424,556,ls),
(1424,572,o),
(1436,584,o),
(1456,584,cs),
(1826,584,ls),
(1852,584,o),
(1862,600,o),
(1862,618,cs),
(1862,866,ls),
(1862,892,o),
(1848,906,o),
(1820,906,cs),
(1460,906,ls),
(1440,906,o),
(1424,920,o),
(1424,948,cs),
(1424,1118,ls),
(1424,1144,o),
(1440,1156,o),
(1470,1156,cs),
(2070,1156,ls),
(2106,1156,o),
(2122,1178,o),
(2122,1210,cs),
(2124,1442,ls),
(2124,1468,o),
(2112,1484,o),
(2088,1484,cs),
(790,1484,ls),
(756,1484,o),
(740,1470,o),
(724,1438,cs),
(16,74,ls),
(-8,30,o),
(4,0,o),
(34,0,cs),
(338,0,ls),
(366,0,o),
(382,14,o),
(390,30,cs),
(508,266,l),
(514,280,o),
(526,288,o),
(542,288,cs),
(944,288,ls),
(964,288,o),
(970,278,o),
(970,260,cs),
(970,50,ls),
(970,16,o),
(984,0,o),
(1024,0,cs),
(2094,0,ls),
(2128,0,o),
(2142,20,o),
(2142,44,cs),
(2142,290,ls),
(2142,318,o),
(2126,328,o),
(2098,328,cs)
);
},
{
closed = 1;
nodes = (
(698,628,ls),
(674,628,o),
(670,644,o),
(686,670,c),
(890,1074,ls),
(922,1134,o),
(970,1130,o),
(970,1070,cs),
(970,668,ls),
(970,642,o),
(956,628,o),
(932,628,cs)
);
}
);
};
layerId = "258ED206-D907-4350-8EBA-CBDDA1C16BF7";
shapes = (
{
closed = 1;
nodes = (
(1410,320,l),
(1410,570,l),
(1980,570,l),
(1980,884,l),
(1410,884,l),
(1410,1128,l),
(2090,1128,l),
(2092,1446,l),
(750,1446,l),
(0,0,l),
(388,0,l),
(526,280,l),
(966,280,l),
(966,0,l),
(2110,0,l),
(2110,320,l)
);
},
{
closed = 1;
nodes = (
(668,612,l),
(966,1202,l),
(966,612,l)
);
}
);
width = 2200;
},
{
anchors = (
{
name = top;
pos = (1234,1446);
}
);
background = {
anchors = (
{
name = top;
pos = (1270,1484);
}
);
shapes = (
{
closed = 1;
nodes = (
(1008,80,ls),
(994,80,o),
(990,82,o),
(990,98,cs),
(990,692,ls),
(990,708,o),
(994,710,o),
(1008,710,cs),
(1544,710,ls),
(1556,710,o),
(1560,712,o),
(1560,724,cs),
(1560,776,ls),
(1560,786,o),
(1556,790,o),
(1546,790,cs),
(1008,790,ls),
(994,790,o),
(990,792,o),
(990,804,cs),
(990,1386,ls),
(990,1402,o),
(994,1404,o),
(1008,1404,cs),
(1684,1404,ls),
(1696,1404,o),
(1700,1406,o),
(1700,1418,cs),
(1700,1470,ls),
(1700,1480,o),
(1696,1484,o),
(1686,1484,cs),
(876,1484,ls),
(858,1484,o),
(848,1478,o),
(840,1462,c),
(14,18,ls),
(8,8,o),
(12,0,o),
(24,0,cs),
(74,0,ls),
(86,0,o),
(92,4,o),
(98,14,cs),
(356,462,ls),
(362,472,o),
(368,476,o),
(380,476,cs),
(888,476,ls),
(894,476,o),
(898,472,o),
(898,466,cs),
(898,20,ls),
(898,4,o),
(902,0,o),
(916,0,cs),
(1716,0,ls),
(1726,0,o),
(1730,4,o),
(1730,14,cs),
(1730,66,ls),
(1730,78,o),
(1726,80,o),
(1714,80,cs)
);
},
{
closed = 1;
nodes = (
(418,556,ls),
(406,556,o),
(404,558,o),
(412,572,cs),
(868,1354,ls),
(884,1382,o),
(896,1382,o),
(898,1356,c),
(898,574,ls),
(898,564,o),
(894,556,o),
(882,556,cs)
);
}
);
};
layerId = "91AB5BCA-6A50-42DA-B2F7-8181BF189245";
shapes = (
{
closed = 1;
nodes = (
(960,78,l),
(960,692,l),
(1602,692,l),
(1602,770,l),
(960,770,l),
(960,1368,l),
(1654,1368,l),
(1654,1446,l),
(826,1446,l),
(0,0,l),
(84,0,l),
(350,464,l),
(872,464,l),
(872,0,l),
(1682,0,l),
(1682,78,l)
);
},
{
closed = 1;
nodes = (
(388,542,l),
(872,1370,l),
(872,542,l)
);
}
);
width = 1817;
},
{
associatedMasterId = "91AB5BCA-6A50-42DA-B2F7-8181BF189245";
layerId = "4B8C82E6-4F39-48DC-8B42-BEB62E8E5C9C";
name = bubble;
shapes = (
{
closed = 1;
nodes = (
(1095,557,l),
(1611,557,ls),
(1637,557,o),
(1651,571,o),
(1651,597,cs),
(1651,865,ls),
(1651,891,o),
(1637,905,o),
(1611,905,cs),
(1095,905,l),
(1095,1233,l),
(1749,1233,ls),
(1775,1233,o),
(1789,1247,o),
(1789,1273,cs),
(1789,1541,ls),
(1789,1567,o),
(1775,1581,o),
(1749,1581,cs),
(781,1581,ls),
(758,1581,o),
(743,1571,o),
(734,1551,cs),
(20,-88,ls),
(8,-116,o),
(21,-135,o),
(51,-135,cs),
(130,-135,ls),
(152,-135,o),
(167,-127,o),
(178,-107,cs),
(428,329,l),
(737,329,l),
(737,-95,ls),
(737,-121,o),
(751,-135,o),
(777,-135,cs),
(1782,-135,ls),
(1808,-135,o),
(1822,-121,o),
(1822,-95,cs),
(1822,173,ls),
(1822,199,o),
(1808,213,o),
(1782,213,cs),
(1095,213,l)
);
}
);
width = 1822;
}
);
metricRight = E;
unicode = 198;
},
{
glyphname = B;
kernLeft = N;
kernRight = B;
lastChange = "2019-07-11 16:39:39 +0000";
layers = (
{
background = {
shapes = (
{
closed = 1;
nodes = (
(781,0,ls),
(1213,0,o),
(1419,130,o),
(1419,404,cs),
(1419,574,o),
(1341,676,o),
(1121,758,cs),
(1115,760,o),
(1115,770,o),
(1121,772,cs),
(1321,864,o),
(1383,954,o),
(1383,1092,cs),
(1383,1350,o),
(1163,1484,o),
(749,1484,cs),
(153,1484,ls),
(123,1484,o),
(102,1462,o),
(102,1432,cs),
(102,44,ls),
(102,20,o),
(121,0,o),
(148,0,cs)
);
},
{
closed = 1;
nodes = (
(564,300,o),
(557,314,o),
(557,344,cs),
(557,554,ls),
(557,584,o),
(569,596,o),
(602,596,cs),
(781,596,ls),
(881,596,o),
(947,536,o),
(947,454,cs),
(947,376,o),
(887,300,o),
(770,300,cs),
(591,300,ls)
);
},
{
closed = 1;
nodes = (
(564,904,o),
(557,918,o),
(557,948,cs),
(557,1144,ls),
(557,1174,o),
(569,1184,o),
(602,1184,cs),
(767,1184,ls),
(861,1184,o),
(935,1128,o),
(935,1040,cs),
(935,962,o),
(875,904,o),
(781,904,cs),
(591,904,ls)
);
}
);
};
layerId = "258ED206-D907-4350-8EBA-CBDDA1C16BF7";
metricRight = "=H/2";
shapes = (
{
closed = 1;
nodes = (
(745,0,ls),
(1165,0,o),
(1327,124,o),
(1327,394,c),
(1327,502,o),
(1312,668,o),
(1059,744,c),
(1237,832,o),
(1293,930,o),
(1293,1064,cs),
(1293,1310,o),
(1117,1446,o),
(713,1446,cs),
(135,1446,l),
(135,0,l)
);
},
{
closed = 1;
nodes = (
(524,582,l),
(769,582,l),
(867,582,o),
(931,522,o),
(931,442,cs),
(931,366,o),
(873,292,o),
(759,292,c),
(524,292,l)
);
},
{
closed = 1;
nodes = (
(524,1154,l),
(755,1154,ls),
(847,1154,o),
(919,1100,o),
(919,1014,cs),
(919,938,o),
(861,882,o),
(769,882,cs),
(524,882,l)
);
}
);
width = 1395;
},
{
background = {
shapes = (
{
closed = 1;
nodes = (
(654,0,ls),
(1004,0,o),
(1210,130,o),
(1210,394,cs),
(1210,594,o),
(1092,712,o),
(912,746,cs),
(900,748,o),
(900,760,o),
(912,764,cs),
(1088,818,o),
(1174,934,o),
(1174,1102,cs),
(1174,1350,o),
(980,1484,o),
(648,1484,cs),
(238,1484,ls),
(224,1484,o),
(220,1480,o),
(220,1464,cs),
(220,16,ls),
(220,6,o),
(226,0,o),
(236,0,cs)
);
},
{
closed = 1;
nodes = (
(316,80,o),
(312,86,o),
(312,100,cs),
(312,692,ls),
(312,706,o),
(318,710,o),
(334,710,cs),
(672,710,ls),
(922,710,o),
(1114,622,o),
(1114,382,cs),
(1114,164,o),
(960,80,o),
(644,80,cs),
(326,80,ls)
);
},
{
closed = 1;
nodes = (
(316,790,o),
(312,796,o),
(312,810,cs),
(312,1388,ls),
(312,1400,o),
(318,1404,o),
(330,1404,cs),
(640,1404,ls),
(910,1404,o),
(1078,1308,o),
(1078,1092,cs),
(1078,848,o),
(858,790,o),
(672,790,cs),
(326,790,ls)
);
}
);
};
layerId = "91AB5BCA-6A50-42DA-B2F7-8181BF189245";
metricRight = "=H/1.6";
shapes = (
{
closed = 1;
nodes = (
(632,0,l),
(974,0,o),
(1174,128,o),
(1174,386,c),
(1174,578,o),
(1066,698,o),
(852,734,c),
(1060,794,o),
(1138,908,o),
(1138,1072,cs),
(1138,1314,o),
(950,1446,o),
(626,1446,cs),
(220,1446,l),
(220,0,l)
);
},
{
closed = 1;
nodes = (
(298,690,l),
(650,690,ls),
(894,690,o),
(1096,608,o),
(1096,374,cs),
(1096,162,o),
(930,82,o),
(622,82,c),
(298,82,l)
);
},
{
closed = 1;
nodes = (
(298,1366,l),
(618,1366,ls),
(882,1366,o),
(1060,1274,o),
(1060,1062,cs),
(1060,824,o),
(830,772,o),
(650,772,cs),
(298,772,l)
);
}
);
width = 1312;
},
{
associatedMasterId = "91AB5BCA-6A50-42DA-B2F7-8181BF189245";
layerId = "00FBCB9A-790F-47CE-9A34-B69F5585CC44";
name = bubble;
shapes = (
{
closed = 1;
nodes = (
(1232,831,o),
(1273,939,o),
(1273,1072,cs),
(1273,1391,o),
(1027,1581,o),
(626,1581,cs),
(40,1581,ls),
(14,1581,o),
(0,1567,o),
(0,1541,cs),
(0,-95,ls),
(0,-121,o),
(14,-135,o),
(40,-135,cs),
(632,-135,ls),
(1059,-135,o),
(1312,55,o),
(1312,386,cs),
(1312,540,o),
(1256,664,o),
(1151,749,c)
);
}
);
width = 1312;
}
);
metricLeft = H;
unicode = 66;
},
{
glyphname = C;
kernLeft = O;
kernRight = C;
lastChange = "2019-07-24 01:09:46 +0000";
layers = (
{
anchors = (
{
name = bottom;
pos = (777,0);
},
{
name = top;
pos = (777,1446);
}
);
background = {
anchors = (
{
name = bottom;
pos = (771,0);
},
{
name = top;
pos = (775,1484);
}
);
shapes = (
{
closed = 1;
nodes = (
(342,1504,o),
(65,1212,o),
(65,762,cs),
(65,310,o),
(342,-20,o),
(771,-20,cs),
(1233,-20,o),
(1405,334,o),
(1426,442,cs),
(1434,494,o),
(1411,504,o),
(1397,508,cs),
(1147,558,ls),
(1115,564,o),
(1098,558,o),
(1092,542,cs),
(1021,366,o),
(919,308,o),
(785,308,cs),
(623,308,o),
(541,424,o),
(541,754,cs),
(541,1080,o),
(638,1196,o),
(787,1196,cs),
(924,1196,o),
(977,1088,o),
(1001,950,c),
(1382,974,l),
(1411,978,o),
(1419,988,o),
(1407,1044,cs),
(1355,1310,o),
(1113,1504,o),
(775,1504,cs)
);
}
);
};
guides = (
{
angle = -183.559;
pos = (496,299);
}
);
layerId = "258ED206-D907-4350-8EBA-CBDDA1C16BF7";
shapes = (
{
closed = 1;
nodes = (
(355,1466,o),
(85,1182,o),
(85,742,cs),
(85,302,o),
(359,-20,o),
(777,-20,cs),
(1239,-20,o),
(1365,240,o),
(1405,540,c),
(999,540,l),
(977,406,o),
(897,292,o),
(764,292,cs),
(617,292,o),
(512,414,o),
(512,736,cs),
(512,1054,o),
(617,1154,o),
(764,1154,cs),
(897,1154,o),
(977,1070,o),
(999,936,c),
(1405,936,l),
(1373,1248,o),
(1121,1466,o),
(777,1466,cs)
);
}
);
width = 1490;
},
{
anchors = (
{
name = bottom;
pos = (700,0);
},
{
name = top;
pos = (686,1446);
}
);
background = {
anchors = (
{
name = bottom;
pos = (732,0);
},
{
name = top;
pos = (721,1484);
}
);
guides = (
{
angle = 90;
pos = (611,369);
}
);
shapes = (
{
closed = 1;
nodes = (
(347,1504,o),
(126,1220,o),
(126,736,cs),
(126,254,o),
(347,-20,o),
(732,-20,cs),
(974,-20,o),
(1174,122,o),
(1244,342,cs),
(1246,350,o),
(1244,354,o),
(1240,356,cs),
(1172,376,ls),
(1166,378,o),
(1162,376,o),
(1160,372,cs),
(1080,162,o),
(948,64,o),
(740,64,cs),
(394,64,o),
(222,306,o),
(222,736,cs),
(222,1182,o),
(398,1420,o),
(724,1420,cs),
(926,1420,o),
(1086,1294,o),
(1132,1104,cs),
(1134,1092,o),
(1139,1088,o),
(1146,1090,cs),
(1218,1098,ls),
(1228,1098,o),
(1230,1102,o),
(1228,1112,cs),
(1204,1318,o),
(964,1504,o),
(721,1504,cs)
);
}
);
};
guides = (
{
angle = 90;
pos = (612,342);
}
);
layerId = "91AB5BCA-6A50-42DA-B2F7-8181BF189245";
shapes = (
{
closed = 1;
nodes = (
(319,1466,o),
(120,1208,o),
(120,720,cs),
(120,232,o),
(319,-20,o),
(694,-20,cs),
(979,-20,o),
(1173,191,o),
(1198,411,c),
(1110,411,l),
(1072,223,o),
(934,62,o),
(694,62,cs),
(369,62,o),
(208,276,o),
(208,720,cs),
(208,1164,o),
(369,1384,o),
(694,1384,cs),
(934,1384,o),
(1072,1222,o),
(1110,1034,c),
(1198,1034,l),
(1174,1256,o),
(979,1466,o),
(694,1466,cs)
);
}
);
width = 1318;
},
{
associatedMasterId = "91AB5BCA-6A50-42DA-B2F7-8181BF189245";
layerId = "72B93913-D79C-420F-ACDA-1B2B18EEC61B";
name = bubble;
shapes = (
{
closed = 1;
nodes = (
(256,1601,o),
(0,1269,o),
(0,718,cs),
(0,170,o),
(260,-155,o),
(705,-155,cs),
(1009,-155,o),
(1280,46,o),
(1324,304,cs),
(1328,324,o),
(1323,338,o),
(1312,355,cs),
(1245,453,ls),
(1234,470,o),
(1221,479,o),
(1202,484,cs),
(1173,491,ls),
(1153,496,o),
(1138,494,o),
(1120,484,cs),
(1004,414,ls),
(987,403,o),
(978,391,o),
(972,371,cs),
(934,261,o),
(840,197,o),
(709,197,cs),
(464,197,o),
(348,355,o),
(348,718,cs),
(348,1085,o),
(462,1249,o),
(693,1249,cs),
(846,1249,o),
(942,1184,o),
(978,1059,cs),
(984,1039,o),
(991,1027,o),
(1008,1015,cs),
(1115,941,ls),
(1132,929,o),
(1147,926,o),
(1167,929,cs),
(1196,934,ls),
(1216,937,o),
(1230,946,o),
(1241,963,cs),
(1312,1064,ls),
(1323,1081,o),
(1327,1096,o),
(1324,1116,cs),
(1277,1399,o),
(1014,1601,o),
(689,1601,cs)
);
}
);
width = 1328;
}
);
metricLeft = O;
metricRight = O;
unicode = 67;
},
{
glyphname = D;
kernLeft = N;
kernRight = D;
lastChange = "2019-07-29 22:24:05 +0000";
layers = (
{
anchors = (
{
name = bottom;
pos = (705,0);
},
{
name = center;
pos = (743,724);
},
{
name = top;
pos = (743,1446);
}
);
background = {
anchors = (
{
name = center;
pos = (739,742);
},
{
name = top;
pos = (739,1484);
}
);
shapes = (
{
closed = 1;
nodes = (
(62,0,l),
(646,0,ls),
(1173,0,o),
(1438,314,o),
(1438,746,cs),
(1438,1168,o),
(1185,1462,o),
(648,1482,cs),
(520,1486,o),
(104,1484,o),
(62,1484,c)
);
},
{
closed = 1;
nodes = (
(557,1170,ls),
(861,1170,o),
(963,1026,o),
(963,752,cs),
(963,430,o),
(811,314,o),
(559,314,cs),
(517,314,l),
(517,1170,l)
);
}
);
};
layerId = "258ED206-D907-4350-8EBA-CBDDA1C16BF7";
shapes = (
{
closed = 1;
nodes = (
(135,0,l),
(653,0,ls),
(1165,0,o),
(1403,306,o),
(1403,728,cs),
(1403,1138,o),
(1177,1426,o),
(655,1444,cs),
(529,1448,o),
(177,1446,o),
(135,1446,c)
);
},
{
closed = 1;
nodes = (
(665,1140,ls),
(863,1140,o),
(997,1000,o),
(997,734,cs),
(997,420,o),
(812,306,o),
(665,306,cs),
(524,306,l),
(524,1140,l)
);
}
);
width = 1488;
},
{
anchors = (
{
name = bottom;
pos = (714,0);
},
{
name = center;
pos = (662,724);
},
{
name = top;
pos = (650,1446);
}
);
background = {
anchors = (
{
name = center;
pos = (680,742);
},
{
name = top;
pos = (668,1484);
}
);
shapes = (
{
closed = 1;
nodes = (
(224,0,l),
(446,0,ls),
(990,0,o),
(1248,230,o),
(1248,752,cs),
(1248,1248,o),
(1024,1478,o),
(474,1482,cs),
(350,1482,o),
(228,1484,o),
(224,1484,c)
);
},
{
closed = 1;
nodes = (
(320,1402,o),
(416,1402,o),
(452,1402,cs),
(940,1392,o),
(1152,1256,o),
(1152,744,cs),
(1152,260,o),
(954,80,o),
(438,80,cs),
(316,80,l),
(316,1402,l)
);
}
);
};
layerId = "91AB5BCA-6A50-42DA-B2F7-8181BF189245";
shapes = (
{
closed = 1;
nodes = (
(220,0,l),
(432,0,ls),
(964,0,o),
(1214,224,o),
(1214,734,cs),
(1214,1216,o),
(996,1442,o),
(460,1444,cs),
(340,1444,o),
(224,1446,o),
(220,1446,c)
);
},
{
closed = 1;
nodes = (
(438,1364,ls),
(880,1364,o),
(1130,1224,o),
(1130,726,cs),
(1130,254,o),
(894,82,o),
(426,82,cs),
(306,82,l),
(306,1364,l)
);
}
);
width = 1334;
},
{
associatedMasterId = "91AB5BCA-6A50-42DA-B2F7-8181BF189245";
layerId = "C9276775-FA13-403F-A57E-1D35D451E3D9";
name = bubble;
shapes = (
{
closed = 1;
nodes = (
(360,1579,o),
(262,1580,o),
(231,1581,cs),
(229,1581,o),
(227,1581,o),
(226,1581,cs),
(222,1581,o),
(214,1577,o),
(197,1567,cs),
(27,1462,ls),
(8,1451,o),
(0,1436,o),
(0,1415,cs),
(0,-95,ls),
(0,-121,o),
(14,-135,o),
(40,-135,cs),
(432,-135,ls),
(1038,-135,o),
(1339,154,o),
(1339,734,cs),
(1339,1303,o),
(1052,1577,o),
(460,1579,cs)
);
}
);
width = 1339;
}
);
metricLeft = H;
metricRight = "=O";
unicode = 68;
},
{
glyphname = Eth;
kernLeft = N;
kernRight = D;
lastChange = "2019-07-24 01:09:46 +0000";
layers = (
{
background = {
shapes = (
{
closed = 1;
nodes = (
(866,830,o),
(852,846,o),
(830,846,cs),
(108,846,ls),
(84,846,o),
(70,830,o),
(70,802,cs),
(70,620,ls),
(70,586,o),
(82,572,o),
(122,572,cs),
(802,572,ls),
(846,572,o),
(866,586,o),
(866,626,cs),
(866,808,ls)
);
},
{
pos = (43,0);
ref = D;
}
);
};
layerId = "258ED206-D907-4350-8EBA-CBDDA1C16BF7";
shapes = (
{
closed = 1;
nodes = (
(70,851,l),
(70,577,l),
(866,577,l),
(866,851,l)
);
},
{
pos = (86,0);
ref = D;
}
);
width = 1574;
},
{
background = {
shapes = (
{
closed = 1;
nodes = (
(668,764,o),
(664,770,o),
(656,770,cs),
(84,770,ls),
(74,770,o),
(70,764,o),
(70,752,cs),
(70,708,ls),
(70,694,o),
(74,688,o),
(90,688,cs),
(644,688,ls),
(662,688,o),
(668,694,o),
(668,710,cs),
(668,754,ls)
);
},
{
pos = (-2,0);
ref = D;
}
);
};
layerId = "91AB5BCA-6A50-42DA-B2F7-8181BF189245";
shapes = (
{
closed = 1;
nodes = (
(70,769,l),
(70,688,l),
(668,688,l),
(668,769,l)
);
},
{
pos = (-4,0);
ref = D;
}
);
width = 1330;
},
{
associatedMasterId = "91AB5BCA-6A50-42DA-B2F7-8181BF189245";
layerId = "89615404-5BDC-4822-AD93-38C6D943802B";
name = bubble;
shapes = (
{
closed = 1;
nodes = (
(40,904,ls),
(14,904,o),
(0,890,o),
(0,864,cs),
(0,593,ls),
(0,567,o),
(14,553,o),
(40,553,cs),
(1295,553,ls),
(1321,553,o),
(1335,567,o),
(1335,593,cs),
(1335,864,ls),
(1335,890,o),
(1321,904,o),
(1295,904,cs)
);
}
);
width = 1335;
}
);
metricRight = D;
unicode = 208;
},
{
glyphname = E;
kernLeft = N;
kernRight = E;
lastChange = "2019-10-30 02:33:10 +0000";
layers = (
{
anchors = (
{
name = bottom;
pos = (669,0);
},
{
name = ogonek;
pos = (1203,20);
},
{
name = top;
pos = (669,1446);
}
);
background = {
anchors = (
{
name = bottom;
pos = (663,0);
},
{
name = ogonek;
pos = (1211,20);
},
{
name = top;
pos = (663,1484);
}
);
shapes = (
{
closed = 1;
nodes = (
(95,50,ls),
(95,16,o),
(108,0,o),
(148,0,cs),
(1219,0,ls),
(1253,0,o),
(1267,20,o),
(1267,44,cs),
(1267,290,ls),
(1267,318,o),
(1251,328,o),
(1223,328,cs),
(573,328,ls),
(555,328,o),
(549,334,o),
(549,356,cs),
(549,556,ls),
(549,572,o),
(561,584,o),
(581,584,cs),
(951,584,ls),
(977,584,o),
(987,600,o),
(987,618,cs),
(987,866,ls),
(987,892,o),
(973,906,o),
(945,906,cs),
(585,906,ls),
(564,906,o),
(549,920,o),
(549,948,cs),
(549,1118,ls),
(549,1144,o),
(564,1156,o),
(595,1156,cs),
(1195,1156,ls),
(1230,1156,o),
(1247,1178,o),
(1247,1210,cs),
(1249,1442,ls),
(1249,1468,o),
(1237,1484,o),
(1213,1484,cs),
(133,1484,ls),
(108,1484,o),
(95,1468,o),
(95,1438,cs)
);
}
);
};
layerId = "258ED206-D907-4350-8EBA-CBDDA1C16BF7";
shapes = (
{
closed = 1;
nodes = (
(1205,0,l),
(1205,324,l),
(524,324,l),
(524,570,l),
(1091,570,l),
(1091,884,l),
(527,884,l),
(527,1124,l),
(1201,1124,l),
(1203,1446,l),
(135,1446,l),
(135,0,l)
);
}
);
width = 1295;
},
{
anchors = (
{
name = bottom;
pos = (694,0);
},
{
name = ogonek;
pos = (1068,20);
},
{
name = top;
pos = (640,1446);
}
);
background = {
anchors = (
{
name = bottom;
pos = (720,0);
},
{
name = ogonek;
pos = (1090,20);
},
{
name = top;
pos = (682,1484);
}
);
shapes = (
{
closed = 1;
nodes = (
(220,20,ls),
(220,4,o),
(224,0,o),
(238,0,cs),
(1098,0,ls),
(1108,0,o),
(1112,4,o),
(1112,14,cs),
(1112,66,ls),
(1112,78,o),
(1108,80,o),
(1096,80,cs),
(330,80,ls),
(316,80,o),
(312,82,o),
(312,98,cs),
(312,692,ls),
(312,708,o),
(316,710,o),
(330,710,cs),
(906,710,ls),
(918,710,o),
(922,712,o),
(922,724,cs),
(922,776,ls),
(922,786,o),
(918,790,o),
(908,790,cs),
(330,790,ls),
(316,790,o),
(312,792,o),
(312,804,cs),
(312,1386,ls),
(312,1402,o),
(316,1404,o),
(330,1404,cs),
(1066,1404,ls),
(1078,1404,o),
(1082,1406,o),
(1082,1418,cs),
(1082,1470,ls),
(1082,1480,o),
(1078,1484,o),
(1068,1484,cs),
(238,1484,ls),
(224,1484,o),
(220,1480,o),
(220,1464,cs)
);
}
);
};
layerId = "91AB5BCA-6A50-42DA-B2F7-8181BF189245";
metricRight = "=135";
shapes = (
{
closed = 1;
nodes = (
(1078,0,l),
(1078,82,l),
(298,84,l),
(298,690,l),
(998,690,l),
(998,772,l),
(298,772,l),
(298,1366,l),
(1050,1366,l),
(1050,1446,l),
(220,1446,l),
(220,0,l)
);
}
);
width = 1213;
},
{
associatedMasterId = "91AB5BCA-6A50-42DA-B2F7-8181BF189245";
layerId = "C63FABBE-60AC-4319-BAC6-F634B611AA26";
name = bubble;
shapes = (
{
closed = 1;
nodes = (
(1178,-135,ls),
(1204,-135,o),
(1218,-121,o),
(1218,-95,cs),
(1218,177,ls),
(1218,203,o),
(1204,217,o),
(1178,217,cs),
(433,219,l),
(433,555,l),
(1093,555,ls),
(1119,555,o),
(1133,569,o),
(1133,595,cs),
(1133,867,ls),
(1133,893,o),
(1119,907,o),
(1093,907,cs),
(433,907,l),
(433,1231,l),
(1145,1231,ls),
(1171,1231,o),
(1185,1245,o),
(1185,1271,cs),
(1185,1541,ls),
(1185,1567,o),
(1171,1581,o),
(1145,1581,cs),
(40,1581,ls),
(14,1581,o),
(0,1567,o),
(0,1541,cs),
(0,-95,ls),
(0,-121,o),
(14,-135,o),
(40,-135,cs)
);
}
);
width = 1218;
}
);
metricLeft = H;
metricRight = "=H/1.5";
unicode = 69;
},
{
glyphname = F;
kernLeft = N;
kernRight = F;
lastChange = "2019-07-11 16:39:39 +0000";
layers = (
{
background = {
shapes = (
{
closed = 1;
nodes = (
(62,50,ls),
(62,16,o),
(75,0,o),
(117,0,c),
(451,0,ls),
(497,0,o),
(517,16,o),
(517,58,cs),
(517,542,ls),
(517,560,o),
(529,572,o),
(549,572,cs),
(923,572,ls),
(951,572,o),
(959,586,o),
(959,606,cs),
(959,850,ls),
(959,876,o),
(947,890,o),
(919,890,cs),
(553,890,ls),
(531,890,o),
(517,902,o),
(517,930,cs),
(517,1118,ls),
(517,1144,o),
(531,1156,o),
(562,1156,cs),
(1151,1156,ls),
(1186,1156,o),
(1201,1178,o),
(1201,1210,cs),
(1203,1442,ls),
(1203,1468,o),
(1190,1484,o),
(1167,1484,cs),
(101,1484,ls),
(79,1484,o),
(62,1468,o),
(62,1438,cs)
);
}
);
};
layerId = "258ED206-D907-4350-8EBA-CBDDA1C16BF7";
shapes = (
{
closed = 1;
nodes = (
(135,0,l),
(524,0,l),
(524,558,l),
(1083,558,l),
(1083,868,l),
(524,868,l),
(524,1128,l),
(1193,1128,l),
(1195,1446,l),
(135,1446,l)
);
}
);
width = 1263;
},
{
background = {
shapes = (
{
closed = 1;
nodes = (
(228,20,ls),
(228,4,o),
(232,0,o),
(246,0,cs),
(306,0,ls),
(316,0,o),
(320,4,o),
(320,14,cs),
(320,666,ls),
(320,682,o),
(324,684,o),
(338,684,cs),
(934,684,ls),
(946,684,o),
(950,686,o),
(950,698,cs),
(950,750,ls),
(950,760,o),
(946,764,o),
(936,764,cs),
(338,764,ls),
(324,764,o),
(320,766,o),
(320,778,cs),
(320,1386,ls),
(320,1402,o),
(324,1404,o),
(338,1404,cs),
(1054,1404,ls),
(1066,1404,o),
(1070,1406,o),
(1070,1418,cs),
(1070,1470,ls),
(1070,1480,o),
(1066,1484,o),
(1056,1484,cs),
(246,1484,ls),
(232,1484,o),
(228,1480,o),
(228,1464,cs)
);
}
);
};
layerId = "91AB5BCA-6A50-42DA-B2F7-8181BF189245";
shapes = (
{
closed = 1;
nodes = (
(220,0,l),
(306,0,l),
(306,692,l),
(986,692,l),
(986,774,l),
(306,774,l),
(306,1366,l),
(1038,1366,l),
(1038,1446,l),
(220,1446,l)
);
}
);
width = 1148;
},
{
associatedMasterId = "91AB5BCA-6A50-42DA-B2F7-8181BF189245";
layerId = "C210688E-302F-4CC4-8929-1B6D0A31DD84";
name = bubble;
shapes = (
{
closed = 1;
nodes = (
(0,-95,ls),
(0,-121,o),
(14,-135,o),
(40,-135,cs),
(401,-135,ls),
(427,-135,o),
(441,-121,o),
(441,-95,cs),
(441,557,l),
(1081,557,ls),
(1107,557,o),
(1121,571,o),
(1121,597,cs),
(1121,869,ls),
(1121,895,o),
(1107,909,o),
(1081,909,cs),
(441,909,l),
(441,1231,l),
(1108,1231,ls),
(1134,1231,o),
(1148,1245,o),
(1148,1271,cs),
(1148,1541,ls),
(1148,1567,o),
(1134,1581,o),
(1108,1581,cs),
(40,1581,ls),
(14,1581,o),
(0,1567,o),
(0,1541,cs)
);
}
);
width = 1148;
}
);
metricLeft = H;
metricRight = "=H/2";
unicode = 70;
},
{
glyphname = G;
kernLeft = O;
kernRight = G;
lastChange = "2019-07-24 01:09:46 +0000";
layers = (
{
anchors = (
{
name = bottom;
pos = (773,0);
},
{
name = top;
pos = (781,1446);
}
);
background = {
anchors = (
{
name = bottom;
pos = (769,0);
},
{
name = top;
pos = (769,1484);
}
);
shapes = (
{
closed = 1;
nodes = (
(1001,-20,o),
(1103,80,o),
(1176,150,cs),
(1185,162,o),
(1191,162,o),
(1197,154,cs),
(1277,38,ls),
(1297,10,o),
(1317,0,o),
(1342,0,cs),
(1417,0,ls),
(1437,0,o),
(1451,16,o),
(1451,34,cs),
(1451,688,ls),
(1451,724,o),
(1426,750,o),
(1375,750,cs),
(815,754,ls),
(785,754,o),
(773,740,o),
(773,720,cs),
(773,528,ls),
(773,494,o),
(785,484,o),
(813,484,cs),
(1001,484,ls),
(1021,484,o),
(1027,472,o),
(1019,450,c),
(1014,432,l),
(977,340,o),
(909,292,o),
(797,292,cs),
(645,292,o),
(541,386,o),
(541,748,cs),
(541,1088,o),
(634,1194,o),
(781,1194,cs),
(926,1194,o),
(995,1094,o),
(1016,984,cs),
(1021,958,o),
(1023,944,o),
(1056,944,cs),
(1397,996,ls),
(1430,1000,o),
(1437,1010,o),
(1426,1066,cs),
(1377,1280,o),
(1151,1504,o),
(791,1504,cs),
(363,1504,o),
(65,1198,o),
(65,736,cs),
(65,290,o),
(344,-20,o),
(766,-20,cs)
);
}
);
};
layerId = "258ED206-D907-4350-8EBA-CBDDA1C16BF7";
metricRight = "=O*1.5";
shapes = (
{
closed = 1;
nodes = (
(1008,-20,o),
(1109,86,o),
(1182,160,c),
(1182,0,l),
(1437,0,l),
(1437,764,l),
(775,768,l),
(775,506,l),
(1027,506,l),
(1010,454,l),
(989,388,o),
(909,318,o),
(800,318,cs),
(676,318,o),
(510,376,o),
(510,730,cs),
(510,1042,o),
(640,1144,o),
(783,1144,cs),
(919,1144,o),
(993,1054,o),
(1019,936,c),
(1426,936,l),
(1421,1206,o),
(1182,1466,o),
(793,1466,cs),
(377,1466,o),
(85,1168,o),
(85,718,cs),
(85,282,o),
(357,-20,o),
(769,-20,cs)
);
}
);
width = 1565;
},
{
anchors = (
{
name = bottom;
pos = (696,0);
},
{
name = top;
pos = (698,1446);
}
);
background = {
anchors = (
{
name = bottom;
pos = (728,0);
},
{
name = top;
pos = (718,1484);
}
);
shapes = (
{
closed = 1;
nodes = (
(938,-20,o),
(1084,90,o),
(1162,230,cs),
(1170,244,o),
(1179,242,o),
(1179,230,cs),
(1179,18,ls),
(1179,0,o),
(1188,0,o),
(1204,0,cs),
(1238,0,ls),
(1252,0,o),
(1258,4,o),
(1258,22,cs),
(1258,742,ls),
(1258,750,o),
(1254,754,o),
(1246,754,cs),
(774,754,ls),
(768,754,o),
(764,750,o),
(764,742,cs),
(764,696,ls),
(764,688,o),
(768,684,o),
(778,684,cs),
(1156,684,ls),
(1168,684,o),
(1179,682,o),
(1179,668,cs),
(1179,510,ls),
(1179,322,o),
(1034,64,o),
(718,64,cs),
(392,64,o),
(222,306,o),
(222,748,cs),
(222,1168,o),
(396,1420,o),
(718,1420,cs),
(931,1420,o),
(1100,1280,o),
(1132,1102,cs),
(1134,1092,o),
(1140,1088,o),
(1146,1090,cs),
(1216,1102,ls),
(1226,1104,o),
(1226,1110,o),
(1226,1118,cs),
(1202,1326,o),
(964,1504,o),
(718,1504,cs),
(356,1504,o),
(126,1228,o),
(126,736,cs),
(126,258,o),
(347,-20,o),
(716,-20,cs)
);
}
);
};
layerId = "91AB5BCA-6A50-42DA-B2F7-8181BF189245";
shapes = (
{
closed = 1;
nodes = (
(920,-20,o),
(1068,100,o),
(1146,252,c),
(1146,0,l),
(1224,0,l),
(1224,736,l),
(742,736,l),
(742,666,l),
(1146,666,l),
(1146,498,ls),
(1146,314,o),
(1006,58,o),
(697,58,cs),
(392,58,o),
(202,276,o),
(202,720,cs),
(202,1164,o),
(392,1384,o),
(697,1384,cs),
(906,1384,o),
(1076,1216,o),
(1106,1034,c),
(1194,1034,l),
(1172,1262,o),
(938,1466,o),
(697,1466,cs),
(332,1466,o),
(120,1202,o),
(120,720,cs),
(120,234,o),
(332,-20,o),
(697,-20,cs)
);
}
);
width = 1414;
},
{
associatedMasterId = "91AB5BCA-6A50-42DA-B2F7-8181BF189245";
layerId = "B8441682-A895-4FEF-A5F5-00BA92BB73F4";
name = bubble;
shapes = (
{
closed = 1;
nodes = (
(817,-155,o),
(924,-128,o),
(1016,-77,c),
(1016,-106,ls),
(1016,-125,o),
(1030,-135,o),
(1056,-135,cs),
(1379,-135,ls),
(1405,-135,o),
(1419,-121,o),
(1419,-95,cs),
(1419,831,ls),
(1419,857,o),
(1405,871,o),
(1379,871,cs),
(652,871,ls),
(626,871,o),
(612,857,o),
(612,831,cs),
(612,571,ls),
(612,545,o),
(626,531,o),
(652,531,cs),
(1016,531,l),
(1016,498,ls),
(1016,327,o),
(880,193,o),
(703,193,cs),
(467.009,193,o),
(342,370,o),
(342,730,cs),
(342,1069,o),
(473,1249,o),
(703,1249,cs),
(829,1249,o),
(936,1173,o),
(967,1066,cs),
(973,1046,o),
(981,1033,o),
(997,1021,cs),
(1107,944,ls),
(1123,932,o),
(1138,928,o),
(1159,932,cs),
(1194,938,ls),
(1214,942,o),
(1227,950,o),
(1239,966,cs),
(1316,1067,ls),
(1328,1083,o),
(1333,1098,o),
(1329,1118,cs),
(1285,1384,o),
(1005,1601,o),
(703,1601,cs),
(268,1601,o),
(0,1260,o),
(0,718,cs),
(0,179,o),
(266,-155,o),
(701,-155,cs)
);
}
);
width = 1419;
}
);
metricLeft = O;
metricRight = "=H-30";
unicode = 71;
},
{
glyphname = H;
kernLeft = N;
kernRight = N;
lastChange = "2019-07-26 22:40:20 +0000";
layers = (
{
anchors = (
{
name = bottom;
pos = (774,0);
},
{
name = top;
pos = (777,1446);
}
);
background = {
anchors = (
{
name = bottom;
pos = (730,0);
},
{
name = top;
pos = (735,1484);
}
);
shapes = (
{
closed = 1;
nodes = (
(929,594,o),
(940,580,o),
(940,564,cs),
(940,58,ls),
(940,16,o),
(961,0,o),
(1007,0,cs),
(1341,0,ls),
(1383,0,o),
(1394,16,o),
(1394,50,cs),
(1394,1438,ls),
(1394,1468,o),
(1379,1484,o),
(1356,1484,cs),
(977,1484,ls),
(955,1484,o),
(940,1468,o),
(940,1442,cs),
(940,978,ls),
(940,952,o),
(927,938,o),
(905,938,cs),
(569,938,ls),
(547,938,o),
(533,952,o),
(533,978,cs),
(533,1442,ls),
(533,1468,o),
(519,1484,o),
(497,1484,cs),
(117,1484,ls),
(95,1484,o),
(79,1468,o),
(79,1438,cs),
(79,50,ls),
(79,16,o),
(91,0,o),
(133,0,cs),
(467,0,ls),
(513,0,o),
(533,16,o),
(533,58,cs),
(533,564,ls),
(533,580,o),
(545,594,o),
(564,594,cs),
(909,594,ls)
);
}
);
};
layerId = "258ED206-D907-4350-8EBA-CBDDA1C16BF7";
shapes = (
{
closed = 1;
nodes = (
(1023,0,l),
(1412,0,l),
(1412,1446,l),
(1023,1446,l),
(1023,898,l),
(524,898,l),
(524,1446,l),
(135,1446,l),
(135,0,l),
(524,0,l),
(524,580,l),
(1023,580,l)
);
}
);
width = 1547;
},
{
anchors = (
{
name = bottom;
pos = (785,0);
},
{
name = top;
pos = (757,1458);
}
);
background = {
anchors = (
{
name = bottom;
pos = (718,0);
},
{
name = top;
pos = (718,1484);
}
);
shapes = (
{
closed = 1;
nodes = (
(1118,732,o),
(1122,728,o),
(1122,718,cs),
(1122,18,ls),
(1122,4,o),
(1128,0,o),
(1142,0,cs),
(1196,0,ls),
(1208,0,o),
(1214,6,o),
(1214,20,cs),
(1214,1464,ls),
(1214,1480,o),
(1210,1484,o),
(1196,1484,cs),
(1138,1484,ls),
(1126,1484,o),
(1122,1478,o),
(1122,1466,cs),
(1122,828,ls),
(1122,816,o),
(1118,812,o),
(1106,812,cs),
(330,812,ls),
(316,812,o),
(312,814,o),
(312,830,cs),
(312,1464,ls),
(312,1480,o),
(308,1484,o),
(294,1484,cs),
(238,1484,ls),
(224,1484,o),
(220,1480,o),
(220,1464,cs),
(220,20,ls),
(220,6,o),
(224,0,o),
(238,0,cs),
(292,0,ls),
(306,0,o),
(312,6,o),
(312,18,cs),
(312,720,ls),
(312,726,o),
(316,732,o),
(324,732,cs),
(1108,732,ls)
);
}
);
};
layerId = "91AB5BCA-6A50-42DA-B2F7-8181BF189245";
shapes = (
{
closed = 1;
nodes = (
(1226,0,l),
(1304,0,l),
(1304,1446,l),
(1226,1446,l),
(1226,794,l),
(298,794,l),
(298,1446,l),
(220,1446,l),
(220,0,l),
(298,0,l),
(298,712,l),
(1226,712,l)
);
}
);
width = 1524;
},
{
associatedMasterId = "258ED206-D907-4350-8EBA-CBDDA1C16BF7";
layerId = "4028C76B-06EE-4B25-8EE6-E0033359FC26";
name = bubble;
shapes = (
{
closed = 1;
nodes = (
(828,-95,ls),
(828,-121,o),
(842,-135,o),
(868,-135,cs),
(1447,-135,ls),
(1473,-135,o),
(1487,-121,o),
(1487,-95,cs),
(1487,1541,ls),
(1487,1567,o),
(1473,1581,o),
(1447,1581,cs),
(868,1581,ls),
(842,1581,o),
(828,1567,o),
(828,1541,cs),
(828,1033,l),
(659,1033,l),
(659,1541,ls),
(659,1567,o),
(645,1581,o),
(619,1581,cs),
(40,1581,ls),
(14,1581,o),
(0,1567,o),
(0,1541,cs),
(0,-95,ls),
(0,-121,o),
(14,-135,o),
(40,-135,cs),
(619,-135,ls),
(645,-135,o),
(659,-121,o),
(659,-95,cs),
(659,445,l),
(828,445,l)
);
}
);
width = 1487;
},
{
associatedMasterId = "91AB5BCA-6A50-42DA-B2F7-8181BF189245";
layerId = "C063F353-93EE-417A-BFFC-8FA5252D28EF";
name = bubble;
shapes = (
{
closed = 1;
nodes = (
(876,-70,ls),
(876,-96,o),
(890,-110,o),
(916,-110,cs),
(1354,-110,ls),
(1380,-110,o),
(1394,-96,o),
(1394,-70,cs),
(1394,1516,ls),
(1394,1542,o),
(1380,1556,o),
(1354,1556,cs),
(916,1556,ls),
(890,1556,o),
(876,1542,o),
(876,1516,cs),
(876,904,l),
(518,904,l),
(518,1516,ls),
(518,1542,o),
(504,1556,o),
(478,1556,cs),
(40,1556,ls),
(14,1556,o),
(0,1542,o),
(0,1516,cs),
(0,-70,ls),
(0,-96,o),
(14,-110,o),
(40,-110,cs),
(478,-110,ls),
(504,-110,o),
(518,-96,o),
(518,-70,cs),
(518,602,l),
(876,602,l)
);
}
);
width = 1394;
}
);
unicode = 72;
},
{
glyphname = Hbar;
kernLeft = N;
kernRight = N;
lastChange = "2019-07-26 22:37:31 +0000";
layers = (
{
background = {
shapes = (
{
closed = 1;
nodes = (
(1576,1270,o),
(1564,1284,o),
(1544,1284,cs),
(48,1284,ls),
(30,1284,o),
(18,1270,o),
(18,1244,cs),
(18,1126,ls),
(18,1096,o),
(28,1082,o),
(60,1082,cs),
(1520,1082,ls),
(1558,1082,o),
(1576,1096,o),
(1576,1130,cs),
(1576,1248,ls)
);
},
{
pos = (45,0);
ref = H;
}
);
};
layerId = "258ED206-D907-4350-8EBA-CBDDA1C16BF7";
shapes = (
{
closed = 1;
nodes = (
(40,1284,l),
(40,1082,l),
(1668,1082,l),
(1668,1284,l)
);
},
{
pos = (90,0);
ref = H;
}
);
width = 1708;
},
{
background = {
shapes = (
{
closed = 1;
nodes = (
(1378,1200,o),
(1374,1206,o),
(1366,1206,cs),
(34,1206,ls),
(24,1206,o),
(20,1200,o),
(20,1188,cs),
(20,1146,ls),
(20,1132,o),
(24,1128,o),
(40,1128,cs),
(1354,1128,ls),
(1372,1128,o),
(1378,1132,o),
(1378,1148,cs),
(1378,1190,ls)
);
},
{
pos = (1,0);
ref = H;
}
);
};
layerId = "91AB5BCA-6A50-42DA-B2F7-8181BF189245";
shapes = (
{
closed = 1;
nodes = (
(20,1206,l),
(20,1128,l),
(1498,1128,l),
(1498,1206,l)
);
},
{
pos = (2,0);
ref = H;
}
);
width = 1518;
},
{
associatedMasterId = "91AB5BCA-6A50-42DA-B2F7-8181BF189245";
layerId = "E87A172E-BDD7-43A5-B72D-3BFA808920E7";
name = bubble;
shapes = (
{
closed = 1;
nodes = (
(40,1341,ls),
(14,1341,o),
(0,1327,o),
(0,1301,cs),
(0,1033,ls),
(0,1007,o),
(14,993,o),
(40,993,cs),
(1358,993,ls),
(1384,993,o),
(1398,1007,o),
(1398,1033,cs),
(1398,1301,ls),
(1398,1327,o),
(1384,1341,o),
(1358,1341,cs)
);
}
);
width = 1398;
}
);
unicode = 294;
},
{
glyphname = I;
kernLeft = N;
kernRight = N;
lastChange = "2019-07-11 16:39:39 +0000";
layers = (
{
anchors = (
{
name = bottom;
pos = (351,0);
},
{
name = ogonek;
pos = (477,6);
},
{
name = top;
pos = (331,1446);
}
);
background = {
anchors = (
{
name = bottom;
pos = (343,0);
},
{
name = ogonek;
pos = (507,20);
},
{
name = top;
pos = (345,1484);
}
);
shapes = (
{
closed = 1;
nodes = (
(133,1484,o),
(117,1468,o),
(117,1438,cs),
(117,50,ls),
(117,16,o),
(129,0,o),
(171,0,cs),
(505,0,ls),
(551,0,o),
(571,16,o),
(571,58,cs),
(571,1442,ls),
(571,1468,o),
(559,1484,o),
(535,1484,cs),
(155,1484,ls)
);
}
);
};
layerId = "258ED206-D907-4350-8EBA-CBDDA1C16BF7";
shapes = (
{
closed = 1;
nodes = (
(135,0,l),
(524,0,l),
(524,1446,l),
(135,1446,l)
);
}
);
width = 659;
},
{
anchors = (
{
name = bottom;
pos = (262,0);
},
{
name = ogonek;
pos = (288,20);
},
{
name = top;
pos = (260,1446);
}
);
background = {
anchors = (
{
name = bottom;
pos = (270,0);
},
{
name = ogonek;
pos = (294,20);
},
{
name = top;
pos = (276,1484);
}
);
shapes = (
{
closed = 1;
nodes = (
(228,1484,o),
(224,1480,o),
(224,1464,cs),
(224,20,ls),
(224,4,o),
(228,0,o),
(246,0,cs),
(292,0,ls),
(312,0,o),
(316,4,o),
(316,24,cs),
(316,1464,ls),
(316,1480,o),
(312,1484,o),
(298,1484,cs),
(242,1484,ls)
);
}
);
};
layerId = "91AB5BCA-6A50-42DA-B2F7-8181BF189245";
shapes = (
{
closed = 1;
nodes = (
(220,0,l),
(298,0,l),
(298,1446,l),
(220,1446,l)
);
}
);
width = 518;
},
{
associatedMasterId = "91AB5BCA-6A50-42DA-B2F7-8181BF189245";
layerId = "E96F6629-3AD3-4BB0-91B2-55A891A7302A";
name = bubble;
shapes = (
{
closed = 1;
nodes = (
(0,-95,ls),
(0,-121,o),
(14,-135,o),
(40,-135,cs),
(478,-135,ls),
(504,-135,o),
(518,-121,o),
(518,-95,cs),
(518,1541,ls),
(518,1567,o),
(504,1581,o),
(478,1581,cs),
(40,1581,ls),
(14,1581,o),
(0,1567,o),
(0,1541,cs)
);
}
);
width = 518;
}
);
metricLeft = H;
metricRight = H;
unicode = 73;
},
{
glyphname = J;
kernLeft = J;
kernRight = U;
lastChange = "2019-07-24 01:09:46 +0000";
layers = (
{
anchors = (
{
name = top;
pos = (516,1446);
}
);
background = {
anchors = (
{
name = top;
pos = (416,1484);
}
);
shapes = (
{
closed = 1;
nodes = (
(770,1442,ls),
(770,1468,o),
(758,1484,o),
(734,1484,cs),
(356,1484,ls),
(332,1484,o),
(316,1468,o),
(316,1438,cs),
(316,536,ls),
(316,400,o),
(258,350,o),
(160,350,cs),
(116,350,o),
(82,360,o),
(50,364,cs),
(18,368,o),
(4,348,o),
(2,318,cs),
(-16,90,ls),
(-20,34,o),
(0,12,o),
(46,4,cs),
(136,-12,o),
(212,-20,o),
(294,-20,cs),
(606,-20,o),
(770,96,o),
(770,424,cs)
);
}
);
};
layerId = "258ED206-D907-4350-8EBA-CBDDA1C16BF7";
shapes = (
{
closed = 1;
nodes = (
(720,1446,l),
(330,1446,l),
(330,558,ls),
(330,408,o),
(296,340,o),
(158,340,cs),
(116,340,o),
(66,346,o),
(30,350,c),
(30,0,l),
(90,-12,o),
(210,-20,o),
(292,-20,cs),
(642,-20,o),
(720,138,o),
(720,458,cs)
);
}
);
width = 828;
},
{
anchors = (
{
name = top;
pos = (534,1446);
}
);
background = {
anchors = (
{
name = top;
pos = (555,1484);
}
);
shapes = (
{
closed = 1;
nodes = (
(600,1464,ls),
(600,1478,o),
(597,1484,o),
(584,1484,cs),
(524,1484,ls),
(513,1484,o),
(508,1478,o),
(508,1466,cs),
(508,308,ls),
(508,122,o),
(464,68,o),
(334,68,cs),
(236,68,o),
(192,98,o),
(150,118,cs),
(142,122,o),
(137,120,o),
(134,110,cs),
(116,48,ls),
(114,40,o),
(118,34,o),
(124,30,cs),
(139,20,o),
(228,-20,o),
(338,-20,cs),
(532,-20,o),
(600,98,o),
(600,288,cs)
);
}
);
};
layerId = "91AB5BCA-6A50-42DA-B2F7-8181BF189245";
shapes = (
{
closed = 1;
nodes = (
(574,1446,l),
(496,1446,l),
(496,308,ls),
(496,126,o),
(452,62,o),
(326,62,cs),
(224,62,o),
(174,104,o),
(130,124,c),
(110,38,l),
(124,26,o),
(216,-20,o),
(330,-20,cs),
(518,-20,o),
(574,96,o),
(574,280,cs)
);
}
);
width = 750;
},
{
associatedMasterId = "91AB5BCA-6A50-42DA-B2F7-8181BF189245";
layerId = "F1953B85-8DEF-4DA0-8F64-B9CB48186D25";
name = bubble;
shapes = (
{
closed = 1;
nodes = (
(755,1541,ls),
(755,1567,o),
(741,1581,o),
(715,1581,cs),
(406,1581,ls),
(380,1581,o),
(366,1567,o),
(366,1541,cs),
(366,308,ls),
(366,188,o),
(367,197,o),
(331,197,cs),
(293,197,o),
(275,202,o),
(229,228,cs),
(222,231,o),
(216,234,o),
(210,238,cs),
(197,244,o),
(183,243,o),
(164,234,cs),
(32,169,ls),
(12,159,o),
(3,145,o),
(2,123,cs),
(1,93,ls),
(0,75,o),
(1,62,o),
(5,45,cs),
(22,-37,ls),
(26,-57,o),
(33,-70,o),
(50,-81,cs),
(118,-125,o),
(239,-155,o),
(335,-155,cs),
(612,-155,o),
(755,2,o),
(755,280,cs)
);
}
);
width = 755;
}
);
metricLeft = X;
metricRight = U;
unicode = 74;
},
{
glyphname = K;
kernLeft = N;
kernRight = K;
lastChange = "2019-07-24 01:09:46 +0000";
layers = (
{
anchors = (
{
name = bottom;
pos = (719,0);
},
{
name = top;
pos = (745,1446);
}
);
background = {
anchors = (
{
name = bottom;
pos = (715,0);
},
{
name = top;
pos = (715,1484);
}
);
shapes = (
{
closed = 1;
nodes = (
(1027,960,ls),
(1015,988,o),
(1017,1002,o),
(1033,1024,cs),
(1361,1426,ls),
(1387,1456,o),
(1363,1484,o),
(1319,1484,cs),
(1015,1484,ls),
(967,1484,o),
(951,1472,o),
(929,1442,cs),
(561,926,l),
(545,906,o),
(531,904,o),
(531,936,cs),
(531,1442,ls),
(531,1468,o),
(519,1484,o),
(495,1484,cs),
(115,1484,ls),
(93,1484,o),
(77,1468,o),
(77,1438,cs),
(77,50,ls),
(77,16,o),
(89,0,o),
(131,0,cs),
(465,0,ls),
(511,0,o),
(531,16,o),
(531,58,cs),
(531,360,ls),
(531,380,o),
(533,392,o),
(543,404,cs),
(685,586,ls),
(705,612,o),
(717,616,o),
(728,596,cs),
(973,40,ls),
(987,10,o),
(1011,0,o),
(1045,0,cs),
(1435,0,ls),
(1475,0,o),
(1478,30,o),
(1463,62,cs)
);
}
);
};
guides = (
{
angle = 54.4985;
pos = (1021,915);
},
{
angle = -62.8805;
pos = (356,283);
}
);
hints = (
{
horizontal = 1;
origin = (0,6);
target = up;
type = BottomGhost;
},
{
horizontal = 1;
origin = (0,5);
target = down;
type = TopGhost;
},
{
place = (164, 442);
place = (164, 442);
type = Stem;
}
);
layerId = "258ED206-D907-4350-8EBA-CBDDA1C16BF7";
shapes = (
{
closed = 1;
nodes = (
(997,894,l),
(1394,1446,l),
(957,1446,l),
(539,862,l),
(539,1446,l),
(135,1446,l),
(135,0,l),
(539,0,l),
(539,378,l),
(719,610,l),
(1041,0,l),
(1459,0,l)
);
}
);
width = 1497;
},
{
anchors = (
{
name = bottom;
pos = (664,0);
},
{
name = top;
pos = (698,1446);
}
);
background = {
anchors = (
{
name = bottom;
pos = (686,0);
},
{
name = top;
pos = (746,1484);
}
);
shapes = (
{
closed = 1;
nodes = (
(686,890,ls),
(682,898,o),
(682,898,o),
(686,902,cs),
(1204,1468,ls),
(1212,1476,o),
(1210,1484,o),
(1198,1484,cs),
(1122,1484,ls),
(1110,1484,o),
(1106,1482,o),
(1100,1476,cs),
(334,644,ls),
(324,634,o),
(320,634,o),
(320,646,cs),
(320,1468,ls),
(320,1480,o),
(314,1484,o),
(304,1484,cs),
(244,1484,ls),
(232,1484,o),
(228,1478,o),
(228,1468,cs),
(228,18,ls),
(228,4,o),
(234,0,o),
(248,0,cs),
(300,0,ls),
(314,0,o),
(320,6,o),
(320,18,cs),
(320,492,ls),
(320,508,o),
(324,514,o),
(336,526,cs),
(600,818,ls),
(610,828,o),
(616,830,o),
(624,818,cs),
(1140,10,ls),
(1144,4,o),
(1152,0,o),
(1162,0,cs),
(1240,0,ls),
(1248,0,o),
(1252,6,o),
(1246,14,cs)
);
}
);
};
guides = (
{
angle = 47.5607;
pos = (607,836);
},
{
angle = -57.4178;
pos = (1135,0);
}
);
layerId = "91AB5BCA-6A50-42DA-B2F7-8181BF189245";
metricRight = "=X/1.25";
shapes = (
{
closed = 1;
nodes = (
(649,869,l),
(1178,1446,l),
(1070,1446,l),
(302,612,l),
(302,1446,l),
(220,1446,l),
(220,0,l),
(302,0,l),
(302,497,l),
(590,812,l),
(1108,0,l),
(1207,0,l)
);
}
);
width = 1295;
},
{
associatedMasterId = "91AB5BCA-6A50-42DA-B2F7-8181BF189245";
layerId = "3B928EDD-06F9-4EE8-97D7-DADE58E4F1DC";
name = bubble;
shapes = (
{
closed = 1;
nodes = (
(819,854,l),
(1267,1533,ls),
(1285,1560,o),
(1274,1581,o),
(1241,1581,cs),
(1040,1581,ls),
(1019,1581,o),
(1005,1575,o),
(991,1559,cs),
(437,958,l),
(437,1541,ls),
(437,1567,o),
(423,1581,o),
(397,1581,cs),
(40,1581,ls),
(14,1581,o),
(0,1567,o),
(0,1541,cs),
(0,-95,ls),
(0,-121,o),
(14,-135,o),
(40,-135,cs),
(397,-135,ls),
(423,-135,o),
(437,-121,o),
(437,-95,cs),
(437,445,l),
(571,591,l),
(1017,-109,ls),
(1029,-127,o),
(1043,-135,o),
(1065,-135,cs),
(1247,-135,ls),
(1277,-135,o),
(1290,-116,o),
(1276,-88,cs)
);
}
);
width = 1299;
}
);
metricLeft = H;
metricRight = "=X*1.25";
unicode = 75;
},
{
glyphname = L;
kernLeft = N;
kernRight = L;
lastChange = "2020-01-08 04:42:27 +0000";
layers = (
{
anchors = (
{
name = bottom;
pos = (613,0);
},
{
name = caron;
pos = (731,1446);
},
{
name = top;
pos = (321,1446);
}
);
background = {
anchors = (
{
name = bottom;
pos = (606,0);
},
{
name = top;
pos = (314,1484);
},
{
name = topright;
pos = (999,1484);
}
);
shapes = (
{
closed = 1;
nodes = (
(83,50,ls),
(83,16,o),
(95,0,o),
(137,0,cs),
(1159,0,ls),
(1193,0,o),
(1209,20,o),
(1209,44,cs),
(1209,290,ls),
(1209,318,o),
(1190,328,o),
(1163,328,cs),
(561,328,ls),
(543,328,o),
(537,334,o),
(537,356,cs),
(537,1442,ls),
(537,1468,o),
(524,1484,o),
(501,1484,cs),
(121,1484,ls),
(99,1484,o),
(83,1468,o),
(83,1438,cs)
);
}
);
};
layerId = "258ED206-D907-4350-8EBA-CBDDA1C16BF7";
metricRight = "=H/2.5";
shapes = (
{
closed = 1;
nodes = (
(135,0,l),
(1102,0,l),
(1102,320,l),
(524,320,l),
(524,1446,l),
(135,1446,l)
);
}
);
width = 1156;
},
{
anchors = (
{
name = bottom;
pos = (620,0);
},
{
name = caron;
pos = (820,1458);
},
{
name = top;
pos = (266,1446);
}
);
background = {
anchors = (
{
name = bottom;
pos = (638,0);
},
{
name = top;
pos = (274,1484);
},
{
name = topright;
pos = (846,1484);
}
);
shapes = (
{
closed = 1;
nodes = (
(228,20,ls),
(228,6,o),
(232,0,o),
(246,0,c),
(1066,0,l),
(1076,0,o),
(1080,4,o),
(1080,14,cs),
(1080,66,ls),
(1080,78,o),
(1076,80,o),
(1064,80,cs),
(338,80,ls),
(324,80,o),
(320,82,o),
(320,98,cs),
(320,1464,ls),
(320,1480,o),
(316,1484,o),
(302,1484,cs),
(246,1484,ls),
(232,1484,o),
(228,1480,o),
(228,1464,cs)
);
}
);
};
layerId = "91AB5BCA-6A50-42DA-B2F7-8181BF189245";
shapes = (
{
closed = 1;
nodes = (
(220,0,l),
(1044,0,l),
(1044,86,l),
(306,86,l),
(306,1446,l),
(222,1446,l)
);
}
);
width = 1154;
},
{
associatedMasterId = "91AB5BCA-6A50-42DA-B2F7-8181BF189245";
layerId = "69C8F190-7273-4AF6-AAA0-57FD8C6E3719";
name = bubble;
shapes = (
{
closed = 1;
nodes = (
(2,-94,ls),
(1,-120,o),
(15,-135,o),
(41,-135,cs),
(1119,-135,ls),
(1145,-135,o),
(1159,-121,o),
(1159,-95,cs),
(1159,181,ls),
(1159,207,o),
(1145,221,o),
(1119,221,cs),
(441,221,l),
(441,1541,ls),
(441,1567,o),
(427,1581,o),
(401,1581,cs),
(126,1581,ls),
(101,1581,o),
(87,1568,o),
(85,1542,cs)
);
}
);
width = 1159;
}
);
metricLeft = H;
metricRight = X;
unicode = 76;
},
{
glyphname = Lslash;
kernLeft = N;
kernRight = L;
lastChange = "2019-07-24 01:09:46 +0000";
layers = (
{
background = {
shapes = (
{
closed = 1;
nodes = (
(874,1072,o),
(860,1086,o),
(826,1076,cs),
(38,866,ls),
(14,860,o),
(0,850,o),
(0,820,cs),
(0,586,ls),
(0,554,o),
(12,540,o),
(50,552,cs),
(834,774,ls),
(862,782,o),
(874,798,o),
(874,820,cs),
(874,1042,ls)
);
},
{
pos = (20,0);
ref = L;
}
);
};
layerId = "258ED206-D907-4350-8EBA-CBDDA1C16BF7";
shapes = (
{
closed = 1;
nodes = (
(0,856,l),
(0,538,l),
(874,786,l),
(874,1088,l)
);
},
{
pos = (40,0);
ref = L;
}
);
width = 1196;
},
{
background = {
shapes = (
{
closed = 1;
nodes = (
(634,850,o),
(630,854,o),
(620,852,cs),
(70,712,ls),
(64,710,o),
(60,704,o),
(60,694,cs),
(60,648,ls),
(60,638,o),
(64,636,o),
(74,638,cs),
(622,780,ls),
(630,782,o),
(634,788,o),
(634,796,cs),
(634,842,ls)
);
},
{
pos = (-5,0);
ref = L;
}
);
};
layerId = "91AB5BCA-6A50-42DA-B2F7-8181BF189245";
shapes = (
{
closed = 1;
nodes = (
(60,710,l),
(60,634,l),
(634,784,l),
(634,856,l)
);
},
{
pos = (-10,0);
ref = L;
}
);
width = 1144;
},
{
associatedMasterId = "91AB5BCA-6A50-42DA-B2F7-8181BF189245";
layerId = "82553C8C-CB8D-4F2D-A2AB-D3181349F468";
name = bubble;
shapes = (
{
closed = 1;
nodes = (
(36,822,ls),
(12,817,o),
(0,803,o),
(0,778,cs),
(0,504,ls),
(0,476,o),
(16,462,o),
(44,468,cs),
(1113,673,ls),
(1137,677,o),
(1149,692,o),
(1149,716,cs),
(1149,985,ls),
(1149,1013,o),
(1133,1027,o),
(1106,1022,cs)
);
}
);
width = 1149;
}
);
metricRight = L;
unicode = 321;
},
{
glyphname = M;
kernLeft = N;
kernRight = N;
lastChange = "2019-07-11 16:39:39 +0000";
layers = (
{
background = {
shapes = (
{
closed = 1;
nodes = (
(425,0,ls),
(461,0,o),
(469,8,o),
(469,44,cs),
(469,928,ls),
(469,954,o),
(482,962,o),
(493,930,cs),
(781,36,ls),
(789,12,o),
(805,0,o),
(829,0,cs),
(1039,0,ls),
(1061,0,o),
(1079,14,o),
(1087,36,cs),
(1375,946,ls),
(1383,970,o),
(1398,970,o),
(1398,948,cs),
(1398,50,ls),
(1398,16,o),
(1411,0,o),
(1451,0,cs),
(1789,0,ls),
(1835,0,o),
(1852,16,o),
(1852,58,cs),
(1852,1442,ls),
(1852,1468,o),
(1841,1484,o),
(1816,1484,cs),
(1239,1484,ls),
(1211,1484,o),
(1195,1462,o),
(1185,1426,cs),
(999,812,ls),
(993,794,o),
(980,790,o),
(973,812,cs),
(765,1448,ls),
(755,1476,o),
(743,1484,o),
(709,1484,cs),
(148,1484,ls),
(119,1484,o),
(106,1470,o),
(106,1438,cs),
(106,56,ls),
(106,22,o),
(127,0,o),
(159,0,cs)
);
}
);
};
guides = (
{
angle = -105;
pos = (461,261);
},
{
angle = 105;
pos = (461,261);
}
);
layerId = "258ED206-D907-4350-8EBA-CBDDA1C16BF7";
shapes = (
{
closed = 1;
nodes = (
(524,0,l),
(524,1048,l),
(807,0,l),
(1087,0,l),
(1369,1048,l),
(1369,0,l),
(1759,0,l),
(1759,1446,l),
(1183,1446,l),
(947,564,l),
(713,1446,l),
(135,1446,l),
(135,0,l)
);
}
);
width = 1894;
},
{
background = {
guides = (
{
pos = (44,566);
showMeasurement = 1;
}
);
shapes = (
{
closed = 1;
nodes = (
(288,0,ls),
(302,0,o),
(308,6,o),
(308,18,cs),
(308,1244,ls),
(308,1252,o),
(312,1250,o),
(314,1244,cs),
(802,20,ls),
(808,6,o),
(818,0,o),
(840,0,cs),
(894,0,ls),
(912,0,o),
(920,6,o),
(926,22,cs),
(1424,1254,ls),
(1426,1260,o),
(1430,1264,o),
(1430,1254,cs),
(1430,18,ls),
(1430,4,o),
(1436,0,o),
(1450,0,cs),
(1504,0,ls),
(1516,0,o),
(1522,6,o),
(1522,20,cs),
(1522,1464,ls),
(1522,1480,o),
(1518,1484,o),
(1504,1484,cs),
(1446,1484,ls),
(1434,1484,o),
(1428,1480,o),
(1424,1470,cs),
(882,130,ls),
(870,102,o),
(860,102,o),
(850,128,cs),
(316,1468,l),
(312,1480,o),
(306,1484,o),
(290,1484,cs),
(238,1484,ls),
(224,1484,o),
(220,1480,o),
(220,1464,cs),
(220,20,ls),
(220,6,o),
(224,0,o),
(238,0,cs)
);
}
);
};
guides = (
{
pos = (115,525);
showMeasurement = 1;
},
{
angle = 68.255;
pos = (397,0);
}
);
layerId = "91AB5BCA-6A50-42DA-B2F7-8181BF189245";
shapes = (
{
closed = 1;
nodes = (
(306,0,l),
(306,1216,l),
(792,0,l),
(908,0,l),
(1400,1232,l),
(1400,0,l),
(1486,0,l),
(1486,1446,l),
(1400,1446,l),
(850,88,l),
(308,1446,l),
(220,1446,l),
(220,0,l)
);
}
);
width = 1706;
},
{
associatedMasterId = "91AB5BCA-6A50-42DA-B2F7-8181BF189245";
layerId = "BB01DE7B-081A-4169-918C-CBFC672E7A4D";
name = bubble;
shapes = (
{
closed = 1;
nodes = (
(851,450,l),
(412,1550,ls),
(403,1571,o),
(389,1581,o),
(366,1581,cs),
(40,1581,ls),
(14,1581,o),
(0,1567,o),
(0,1541,cs),
(0,-95,ls),
(0,-121,o),
(14,-135,o),
(40,-135,cs),
(401,-135,ls),
(427,-135,o),
(441,-121,o),
(441,-95,cs),
(441,514,l),
(688,-104,ls),
(697,-125,o),
(711,-135,o),
(734,-135,cs),
(966,-135,ls),
(989,-135,o),
(1003,-125,o),
(1012,-104,cs),
(1265,530,l),
(1265,-95,ls),
(1265,-121,o),
(1279,-135,o),
(1305,-135,cs),
(1666,-135,ls),
(1692,-135,o),
(1706,-121,o),
(1706,-95,cs),
(1706,1541,ls),
(1706,1567,o),
(1692,1581,o),
(1666,1581,cs),
(1343,1581,ls),
(1320,1581,o),
(1305,1571,o),
(1296,1550,cs)
);
}
);
width = 1706;
}
);
metricLeft = "=H";
metricRight = H;
unicode = 77;
},
{
glyphname = N;
kernLeft = N;
kernRight = N;
lastChange = "2019-07-11 16:39:39 +0000";
layers = (
{
anchors = (
{
name = bottom;
pos = (807,0);
},
{
name = top;
pos = (807,1446);
}
);
background = {
anchors = (
{
name = bottom;
pos = (805,0);
},
{
name = top;
pos = (805,1484);
}
);
shapes = (
{
closed = 1;
nodes = (
(1111,1484,o),
(1097,1468,o),
(1097,1442,cs),
(1097,788,ls),
(1097,756,o),
(1083,756,o),
(1064,780,cs),
(585,1448,ls),
(562,1478,o),
(551,1484,o),
(517,1484,cs),
(190,1484,ls),
(161,1484,o),
(146,1470,o),
(146,1438,cs),
(146,40,ls),
(146,10,o),
(167,0,o),
(197,0,cs),
(469,0,ls),
(505,0,o),
(519,12,o),
(517,44,cs),
(517,772,ls),
(517,786,o),
(527,790,o),
(537,776,cs),
(1087,30,ls),
(1106,4,o),
(1119,0,o),
(1141,0,cs),
(1415,0,ls),
(1440,0,o),
(1461,14,o),
(1461,36,cs),
(1461,1450,ls),
(1461,1472,o),
(1451,1484,o),
(1431,1484,cs),
(1141,1484,ls)
);
}
);
};
guides = (
{
angle = 125.0467;
pos = (528,296);
}
);
layerId = "258ED206-D907-4350-8EBA-CBDDA1C16BF7";
shapes = (
{
closed = 1;
nodes = (
(1091,640,l),
(527,1446,l),
(135,1446,l),
(135,0,l),
(524,0,l),
(524,862,l),
(1129,0,l),
(1480,0,l),
(1480,1446,l),
(1091,1446,l)
);
}
);
width = 1615;
},
{
anchors = (
{
name = bottom;
pos = (678,0);
},
{
name = top;
pos = (726,1446);
}
);
background = {
anchors = (
{
name = bottom;
pos = (710,0);
},
{
name = top;
pos = (780,1484);
}
);
guides = (
{
pos = (49,576);
showMeasurement = 1;
}
);
shapes = (
{
closed = 1;
nodes = (
(1190,1484,o),
(1186,1478,o),
(1186,1466,cs),
(1186,214,ls),
(1186,202,o),
(1172,190,o),
(1158,210,cs),
(304,1470,ls),
(296,1482,o),
(290,1484,o),
(274,1484,cs),
(238,1484,l),
(224,1484,o),
(220,1480,o),
(220,1464,cs),
(220,20,ls),
(220,6,o),
(224,0,o),
(238,0,cs),
(288,0,ls),
(302,0,o),
(308,6,o),
(308,18,cs),
(308,1274,ls),
(308,1290,o),
(318,1294,o),
(332,1274,cs),
(1188,12,ls),
(1198,-2,o),
(1210,0,o),
(1226,0,cs),
(1256,0,ls),
(1268,0,o),
(1274,6,o),
(1274,20,cs),
(1274,1464,ls),
(1274,1480,o),
(1270,1484,o),
(1256,1484,cs),
(1202,1484,ls)
);
}
);
};
guides = (
{
pos = (120,534);
showMeasurement = 1;
},
{
angle = 123.9688;
pos = (122,610);
}
);
layerId = "91AB5BCA-6A50-42DA-B2F7-8181BF189245";
shapes = (
{
closed = 1;
nodes = (
(1154,156,l),
(284,1446,l),
(220,1446,l),
(220,0,l),
(298,0,l),
(298,1286,l),
(1164,0,l),
(1232,0,l),
(1232,1446,l),
(1154,1446,l)
);
}
);
width = 1452;
},
{
associatedMasterId = "91AB5BCA-6A50-42DA-B2F7-8181BF189245";
layerId = "67822239-2611-4568-8D5F-9F37BF029AF1";
name = bubble;
shapes = (
{
closed = 1;
nodes = (
(1019,598,l),
(373,1555,ls),
(361,1573,o),
(346,1581,o),
(325,1581,cs),
(40,1581,ls),
(14,1581,o),
(0,1567,o),
(0,1541,cs),
(0,-95,ls),
(0,-121,o),
(14,-135,o),
(40,-135,cs),
(393,-135,ls),
(419,-135,o),
(433,-121,o),
(433,-95,cs),
(433,844,l),
(1075,-109,ls),
(1087,-127,o),
(1101,-135,o),
(1123,-135,cs),
(1412,-135,ls),
(1438,-135,o),
(1452,-121,o),
(1452,-95,cs),
(1452,1541,ls),
(1452,1567,o),
(1438,1581,o),
(1412,1581,cs),
(1059,1581,ls),
(1033,1581,o),
(1019,1567,o),
(1019,1541,cs)
);
}
);
width = 1452;
}
);
metricLeft = H;
metricRight = H;
unicode = 78;
},
{
glyphname = Eng;
kernLeft = N;
kernRight = N;
lastChange = "2019-07-11 16:39:39 +0000";
layers = (
{
background = {
shapes = (
{
closed = 1;
nodes = (
(1114,1484,ls),
(1084,1484,o),
(1070,1468,o),
(1070,1442,cs),
(1070,868,ls),
(1070,836,o),
(1056,836,o),
(1038,860,c),
(558,1448,ls),
(534,1478,o),
(524,1484,o),
(490,1484,cs),
(164,1484,ls),
(134,1484,o),
(120,1470,o),
(120,1438,cs),
(120,40,ls),
(120,10,o),
(140,0,o),
(170,0,cs),
(442,0,ls),
(478,0,o),
(492,12,o),
(490,44,c),
(490,772,l),
(490,786,o),
(498,790,o),
(510,776,cs),
(990,194,l),
(990,176,ls),
(984,62,o),
(924,20,o),
(834,20,cs),
(790,20,o),
(744,30,o),
(712,34,cs),
(680,38,o),
(666,18,o),
(664,-12,cs),
(646,-240,ls),
(642,-296,o),
(662,-318,o),
(708,-326,cs),
(798,-342,o),
(886,-350,o),
(968,-350,cs),
(1272,-350,o),
(1434,-228,o),
(1434,94,cs),
(1434,1450,ls),
(1434,1472,o),
(1424,1484,o),
(1404,1484,cs)
);
}
);
};
layerId = "258ED206-D907-4350-8EBA-CBDDA1C16BF7";
shapes = (
{
ref = N;
},
{
alignment = -1;
pos = (744,-460);
ref = "_j-hook";
}
);
width = 1619;
},
{
background = {
shapes = (
{
closed = 1;
nodes = (
(1206,1484,ls),
(1194,1484,o),
(1190,1478,o),
(1190,1466,cs),
(1190,214,ls),
(1190,202,o),
(1176,188,o),
(1162,208,cs),
(310,1470,ls),
(302,1482,o),
(296,1484,o),
(282,1484,cs),
(240,1484,ls),
(226,1484,o),
(222,1480,o),
(222,1464,cs),
(222,20,ls),
(222,6,o),
(226,0,o),
(240,0,cs),
(290,0,ls),
(304,0,o),
(310,6,o),
(310,18,cs),
(310,1280,ls),
(310,1296,o),
(314,1300,o),
(328,1280,cs),
(1184,24,l),
(1184,-82,ls),
(1184,-224,o),
(1122,-270,o),
(1014,-270,cs),
(954,-270,o),
(906,-256,o),
(874,-244,cs),
(864,-240,o),
(860,-242,o),
(858,-252,c),
(852,-302,l),
(852,-310,o),
(854,-316,o),
(860,-320,cs),
(874,-330,o),
(940,-350,o),
(1022,-350,cs),
(1210,-350,o),
(1276,-248,o),
(1276,-92,cs),
(1276,1464,ls),
(1276,1480,o),
(1272,1484,o),
(1258,1484,cs)
);
}
);
};
layerId = "91AB5BCA-6A50-42DA-B2F7-8181BF189245";
shapes = (
{
ref = N;
},
{
alignment = -1;
pos = (716,-460);
ref = "_j-hook";
}
);
width = 1452;
},
{
associatedMasterId = "91AB5BCA-6A50-42DA-B2F7-8181BF189245";
layerId = "F4DB03CE-597A-4ED8-A338-C88285F82245";
name = bubble;
width = 1452;
}
);
metricLeft = N;
metricRight = N;
unicode = 330;
},
{
glyphname = O;
kernLeft = O;
kernRight = O;
lastChange = "2020-01-08 00:40:12 +0000";
layers = (
{
anchors = (
{
name = bottom;
pos = (789,0);
},
{
name = horn;
pos = (1275,1094);
},
{
name = ogonek;
pos = (968,20);
},
{
name = top;
pos = (785,1446);
}
);
background = {
anchors = (
{
name = bottom;
pos = (787,0);
},
{
name = ogonek;
pos = (970,20);
},
{
name = top;
pos = (783,1484);
}
);
shapes = (
{
closed = 1;
nodes = (
(1222,-20,o),
(1501,278,o),
(1501,738,cs),
(1501,1202,o),
(1216,1504,o),
(785,1504,cs),
(351,1504,o),
(65,1202,o),
(65,738,cs),
(65,276,o),
(344,-20,o),
(785,-20,cs)
);
},
{
closed = 1;
nodes = (
(607,292,o),
(541,412,o),
(541,732,cs),
(541,1062,o),
(611,1196,o),
(785,1196,cs),
(955,1196,o),
(1025,1062,o),
(1025,732,cs),
(1025,412,o),
(959,292,o),
(785,292,cs)
);
}
);
};
guides = (
{
angle = 90;
pos = (-513,389);
}
);
layerId = "258ED206-D907-4350-8EBA-CBDDA1C16BF7";
shapes = (
{
closed = 1;
nodes = (
(1213,-20,o),
(1485,272,o),
(1485,720,cs),
(1485,1172,o),
(1207,1466,o),
(787,1466,cs),
(365,1466,o),
(85,1172,o),
(85,720,cs),
(85,270,o),
(357,-20,o),
(787,-20,cs)
);
},
{
closed = 1;
nodes = (
(627,292,o),
(510,402,o),
(510,714,cs),
(510,1036,o),
(627,1154,o),
(787,1154,cs),
(947,1154,o),
(1063,1036,o),
(1063,714,cs),
(1063,402,o),
(947,292,o),
(787,292,cs)
);
}
);
width = 1570;
},
{
anchors = (
{
name = bottom;
pos = (712,0);
},
{
name = horn;
pos = (1088,1212);
},
{
name = ogonek;
pos = (848,18);
},
{
name = top;
pos = (712,1446);
}
);
background = {
anchors = (
{
name = bottom;
pos = (732,0);
},
{
name = ogonek;
pos = (872,18);
},
{
name = top;
pos = (732,1484);
}
);
shapes = (
{
closed = 1;
nodes = (
(1104,-20,o),
(1330,244,o),
(1330,738,cs),
(1330,1236,o),
(1104,1504,o),
(730,1504,cs),
(354,1504,o),
(126,1234,o),
(126,734,cs),
(126,242,o),
(350,-20,o),
(728,-20,cs)
);
},
{
closed = 1;
nodes = (
(400,64,o),
(222,286,o),
(222,738,cs),
(222,1194,o),
(400,1420,o),
(730,1420,cs),
(1058,1420,o),
(1234,1196,o),
(1234,738,cs),
(1234,284,o),
(1062,64,o),
(732,64,cs)
);
}
);
};
guides = (
{
angle = 90;
pos = (-455,400);
},
{
angle = 90;
pos = (388,593);
}
);
layerId = "91AB5BCA-6A50-42DA-B2F7-8181BF189245";
shapes = (
{
closed = 1;
nodes = (
(1074,-20,o),
(1294,239,o),
(1294,720,cs),
(1294,1207,o),
(1074,1466,o),
(710,1466,cs),
(345,1466,o),
(120,1205,o),
(120,720,cs),
(120,237,o),
(345,-20,o),
(710,-20,cs)
);
},
{
closed = 1;
nodes = (
(390,62,o),
(208,276,o),
(208,720,cs),
(208,1164,o),
(390,1384,o),
(710,1384,cs),
(1030,1384,o),
(1206,1167,o),
(1206,720,cs),
(1206,277,o),
(1034,62,o),
(710,62,cs)
);
}
);
width = 1414;
},
{
associatedMasterId = "91AB5BCA-6A50-42DA-B2F7-8181BF189245";
layerId = "CDE0C25B-305E-45E5-89D8-C1C95218F0EB";
name = bubble;
shapes = (
{
closed = 1;
nodes = (
(262,1576,o),
(0,1260,o),
(0,716,cs),
(0,180,o),
(261,-130,o),
(713,-130,cs),
(1163,-130,o),
(1424,182,o),
(1424,720,cs),
(1424,1262,o),
(1164,1576,o),
(715,1576,cs)
);
}
);
visible = 1;
width = 1424;
}
);
unicode = 79;
},
{
glyphname = Oslash;
kernLeft = Oslash;
kernRight = Oslash;
lastChange = "2019-07-11 16:39:39 +0000";
layers = (
{
anchors = (
{
name = top;
pos = (788,1446);
}
);
background = {
anchors = (
{
name = top;
pos = (788,1446);
}
);
shapes = (
{
closed = 1;
nodes = (
(1430,1446,ls),
(1414,1462,o),
(1390,1458,o),
(1370,1438,cs),
(1242,1314,l),
(1126,1412,o),
(972,1466,o),
(790,1466,cs),
(366,1466,o),
(88,1172,o),
(88,720,cs),
(88,552,o),
(126,408,o),
(194,292,c),
(62,164,ls),
(40,140,o),
(42,120,o),
(70,92,cs),
(146,14,ls),
(178,-18,o),
(202,-16,o),
(230,14,cs),
(342,122,l),
(458,32,o),
(610,-20,o),
(790,-20,cs),
(1216,-20,o),
(1488,272,o),
(1488,720,cs),
(1488,884,o),
(1452,1026,o),
(1384,1140,c),
(1532,1286,l),
(1552,1302,o),
(1550,1322,o),
(1534,1338,cs)
);
},
{
closed = 1;
nodes = (
(552,1036,o),
(620,1166,o),
(790,1166,cs),
(876,1166,o),
(936,1132,o),
(974,1052,c),
(554,642,l),
(552,666,o),
(552,690,o),
(552,714,c)
);
},
{
closed = 1;
nodes = (
(1024,402,o),
(960,284,o),
(790,284,cs),
(704,284,o),
(644,314,o),
(606,380,c),
(1022,788,l),
(1024,762,o),
(1024,740,o),
(1024,714,cs)
);
}
);
};
layerId = "258ED206-D907-4350-8EBA-CBDDA1C16BF7";
shapes = (
{
closed = 1;
nodes = (
(342,122,l),
(458,32,o),
(610,-20,o),
(790,-20,cs),
(1216,-20,o),
(1488,272,o),
(1488,720,cs),
(1488,884,o),
(1452,1026,o),
(1384,1140,c),
(1558,1312,l),
(1406,1472,l),
(1242,1314,l),
(1126,1412,o),
(972,1466,o),
(790,1466,cs),
(366,1466,o),
(88,1172,o),
(88,720,cs),
(88,552,o),
(126,408,o),
(194,292,c),
(30,134,l),
(186,-28,l)
);
},
{
closed = 1;
nodes = (
(704,284,o),
(644,314,o),
(606,380,c),
(1024,790,l),
(1024,670,o),
(1018,576,o),
(1002,502,cs),
(972,348,o),
(904,284,o),
(790,284,cs)
);
},
{
closed = 1;
nodes = (
(552,740,o),
(556,824,o),
(568,894,cs),
(596,1084,o),
(666,1166,o),
(790,1166,cs),
(876,1166,o),
(936,1132,o),
(974,1052,c),
(552,640,l)
);
}
);
width = 1598;
},
{
anchors = (
{
name = top;
pos = (726,1446);
}
);
background = {
anchors = (
{
name = top;
pos = (726,1446);
}
);
shapes = (
{
closed = 1;
nodes = (
(1318,1460,l),
(1310,1468,o),
(1302,1464,o),
(1294,1454,c),
(1148,1286,l),
(1046,1404,o),
(904,1466,o),
(726,1466,cs),
(360,1466,o),
(138,1204,o),
(138,716,cs),
(138,518,o),
(174,358,o),
(244,240,c),
(80,50,l),
(72,40,o),
(74,36,o),
(88,22,cs),
(122,-10,l),
(138,-22,o),
(148,-22,o),
(158,-6,c),
(302,158,l),
(400,40,o),
(544,-20,o),
(724,-20,cs),
(1090,-20,o),
(1312,238,o),
(1312,720,cs),
(1312,920,o),
(1274,1082,o),
(1204,1204,c),
(1370,1396,l),
(1376,1404,o),
(1374,1412,o),
(1368,1418,c)
);
},
{
closed = 1;
nodes = (
(236,1164,o),
(404,1382,o),
(726,1382,cs),
(886,1382,o),
(1006,1328,o),
(1088,1218,c),
(308,314,l),
(260,418,o),
(236,552,o),
(236,720,cs)
);
},
{
closed = 1;
nodes = (
(1212,276,o),
(1050,64,o),
(728,64,cs),
(566,64,o),
(444,118,o),
(360,228,c),
(1140,1132,l),
(1188,1026,o),
(1212,890,o),
(1212,720,cs)
);
}
);
};
layerId = "91AB5BCA-6A50-42DA-B2F7-8181BF189245";
shapes = (
{
closed = 1;
nodes = (
(302,158,l),
(400,40,o),
(544,-20,o),
(724,-20,cs),
(1090,-20,o),
(1312,238,o),
(1312,720,cs),
(1312,920,o),
(1274,1082,o),
(1204,1204,c),
(1380,1408,l),
(1308,1470,l),
(1148,1286,l),
(1046,1404,o),
(904,1466,o),
(726,1466,cs),
(360,1466,o),
(138,1204,o),
(138,716,cs),
(138,518,o),
(174,358,o),
(244,240,c),
(70,38,l),
(140,-26,l)
);
},
{
closed = 1;
nodes = (
(566,64,o),
(444,118,o),
(360,228,c),
(1140,1132,l),
(1188,1026,o),
(1212,890,o),
(1212,720,cs),
(1212,276,o),
(1050,64,o),
(728,64,cs)
);
},
{
closed = 1;
nodes = (
(260,418,o),
(236,552,o),
(236,720,cs),
(236,1164,o),
(404,1382,o),
(726,1382,cs),
(886,1382,o),
(1006,1328,o),
(1088,1218,c),
(308,314,l)
);
}
);
width = 1450;
},
{
associatedMasterId = "91AB5BCA-6A50-42DA-B2F7-8181BF189245";
layerId = "8D42DE03-27FC-4E86-93CD-98160E16D118";
name = bubble;
shapes = (
{
closed = 1;
nodes = (
(1320,1621,ls),
(1304,1645,o),
(1283,1646,o),
(1264,1625,cs),
(1136,1478,l),
(1022,1559,o),
(883,1601,o),
(726,1601,cs),
(273,1601,o),
(3,1267,o),
(3,716,cs),
(3,540,o),
(30,386,o),
(83,260,c),
(10,55,ls),
(3,35,o),
(5,19,o),
(16,1,cs),
(126,-178,ls),
(141,-203,o),
(163,-205,o),
(182,-183,cs),
(312,-34,l),
(424,-114,o),
(564,-155,o),
(724,-155,cs),
(1177,-155,o),
(1447,175,o),
(1447,720,cs),
(1447,896.007,o),
(1419,1053,o),
(1364,1183,c),
(1440,1394,ls),
(1447,1414,o),
(1445,1430,o),
(1433,1448,cs)
);
}
);
width = 1450;
}
);
unicode = 216;
},
{
glyphname = OE;
kernLeft = O;
kernRight = E;
lastChange = "2019-11-04 23:35:18 +0000";
layers = (
{
background = {
shapes = (
{
closed = 1;
nodes = (
(1479,328,l),
(1479,584,l),
(1917,584,l),
(1917,906,l),
(1479,906,l),
(1479,1156,l),
(2178,1156,l),
(2180,1484,l),
(1216,1484,l),
(1092,1484,l),
(1021,1498,o),
(935,1504,o),
(833,1504,cs),
(351,1504,o),
(65,1202,o),
(65,738,cs),
(65,276,o),
(344,-20,o),
(810,-20,cs),
(921,-20,o),
(1016,-14,o),
(1092,0,c),
(1191,0,l),
(1205,0,o),
(1220,0,o),
(1233,0,c),
(2149,0,ls),
(2184,0,o),
(2197,20,o),
(2197,44,cs),
(2197,290,ls),
(2197,318,o),
(2182,328,o),
(2153,328,cs)
);
},
{
closed = 1;
nodes = (
(607,292,o),
(541,412,o),
(541,732,cs),
(541,1062,o),
(611,1196,o),
(785,1196,cs),
(955,1196,o),
(1025,1062,o),
(1025,732,cs),
(1025,412,o),
(959,292,o),
(785,292,cs)
);
}
);
};
layerId = "258ED206-D907-4350-8EBA-CBDDA1C16BF7";
shapes = (
{
alignment = -1;
ref = O;
},
{
alignment = -1;
pos = (975,0);
ref = E;
}
);
width = 2270;
},
{
background = {
shapes = (
{
closed = 1;
nodes = (
(1348,80,ls),
(1334,80,o),
(1330,82,o),
(1330,98,cs),
(1330,692,ls),
(1330,708,o),
(1334,710,o),
(1348,710,cs),
(1902,710,ls),
(1914,710,o),
(1918,712,o),
(1918,724,cs),
(1918,776,ls),
(1918,786,o),
(1914,790,o),
(1904,790,cs),
(1348,790,ls),
(1334,790,o),
(1330,792,o),
(1330,804,cs),
(1330,1386,ls),
(1330,1402,o),
(1334,1404,o),
(1348,1404,cs),
(2064,1404,ls),
(2076,1404,o),
(2080,1406,o),
(2080,1418,cs),
(2080,1470,ls),
(2080,1480,o),
(2076,1484,o),
(2066,1484,cs),
(1256,1484,ls),
(1242,1484,o),
(1238,1480,o),
(1238,1464,cs),
(1238,1200,l),
(1139,1400,o),
(964,1504,o),
(730,1504,cs),
(354,1504,o),
(126,1234,o),
(126,734,cs),
(126,242,o),
(350,-20,o),
(728,-20,cs),
(962,-20,o),
(1139,82,o),
(1238,280,c),
(1238,20,ls),
(1238,4,o),
(1242,0,o),
(1256,0,cs),
(2097,0,ls),
(2106,0,o),
(2110,4,o),
(2110,14,cs),
(2110,66,ls),
(2110,78,o),
(2106,80,o),
(2094,80,cs)
);
},
{
closed = 1;
nodes = (
(400,64,o),
(222,286,o),
(222,738,cs),
(222,1194,o),
(400,1420,o),
(730,1420,cs),
(1058,1420,o),
(1228,1196,o),
(1228,738,cs),
(1228,284,o),
(1062,64,o),
(732,64,cs)
);
}
);
};
layerId = "91AB5BCA-6A50-42DA-B2F7-8181BF189245";
shapes = (
{
alignment = -1;
ref = O;
},
{
alignment = -1;
pos = (1005,0);
ref = E;
}
);
width = 2218;
},
{
associatedMasterId = "91AB5BCA-6A50-42DA-B2F7-8181BF189245";
layerId = "CDF29480-26E8-46BA-A0A6-BAD9D4945288";
name = bubble;
shapes = (
{
closed = 1;
nodes = (
(1434,557,l),
(1968,557,ls),
(1994,557,o),
(2008,571,o),
(2008,597,cs),
(2008,865,ls),
(2008,891,o),
(1994,905,o),
(1968,905,cs),
(1434,905,l),
(1434,1233,l),
(2126,1233,ls),
(2152,1233,o),
(2166,1247,o),
(2166,1273,cs),
(2166,1541,ls),
(2166,1567,o),
(2152,1581,o),
(2126,1581,cs),
(1114,1581,ls),
(1088,1581,o),
(1074,1567,o),
(1074,1541,cs),
(1074,1511,l),
(972,1570,o),
(851,1601,o),
(715,1601,cs),
(268,1601,o),
(0,1266,o),
(0,716,cs),
(0,172,o),
(266,-155,o),
(713,-155,cs),
(849,-155,o),
(971,-124,o),
(1074,-65,c),
(1074,-100,ls),
(1074,-123,o),
(1088,-135,o),
(1114,-135,cs),
(2161,-135,ls),
(2187,-135,o),
(2201,-121,o),
(2201,-95,cs),
(2201,173,ls),
(2201,199,o),
(2187,213,o),
(2161,213,cs),
(1434,213,l)
);
}
);
width = 2201;
}
);
metricLeft = O;
metricRight = E;
unicode = 338;
},
{
glyphname = P;
kernLeft = N;
kernRight = P;
lastChange = "2019-11-13 18:58:11 +0000";
layers = (
{
background = {
shapes = (
{
closed = 1;
nodes = (
(1385,1324,o),
(1111,1484,o),
(783,1484,cs),
(121,1484,ls),
(97,1484,o),
(83,1468,o),
(83,1438,cs),
(83,50,ls),
(83,16,o),
(95,0,o),
(135,0,cs),
(471,0,ls),
(517,0,o),
(537,16,o),
(537,58,cs),
(537,510,ls),
(537,524,o),
(543,532,o),
(561,532,cs),
(835,532,ls),
(1161,532,o),
(1385,710,o),
(1385,1002,cs)
);
},
{
closed = 1;
nodes = (
(921,922,o),
(863,852,o),
(767,852,cs),
(571,852,ls),
(545,852,o),
(537,866,o),
(537,896,cs),
(537,1122,ls),
(537,1152,o),
(549,1164,o),
(583,1164,cs),
(755,1164,ls),
(847,1164,o),
(921,1104,o),
(921,1008,cs)
);
}
);
};
layerId = "258ED206-D907-4350-8EBA-CBDDA1C16BF7";
metricRight = "=X*2";
shapes = (
{
closed = 1;
nodes = (
(524,0,l),
(524,498,l),
(757,498,ls),
(1075,498,o),
(1274,670,o),
(1274,956,cs),
(1274,1270,o),
(1027,1446,o),
(707,1446,cs),
(135,1446,l),
(135,0,l)
);
},
{
closed = 1;
nodes = (
(520,1158,l),
(745,1158,ls),
(831,1158,o),
(917,1076,o),
(917,976,cs),
(917,882,o),
(843,788,o),
(745,788,cs),
(520,788,l)
);
}
);
width = 1334;
},
{
background = {
shapes = (
{
closed = 1;
nodes = (
(1222,1368,o),
(1000,1484,o),
(690,1484,cs),
(246,1484,ls),
(232,1484,o),
(228,1480,o),
(228,1464,cs),
(228,16,ls),
(228,6,o),
(234,0,o),
(244,0,cs),
(304,0,ls),
(314,0,o),
(320,6,o),
(320,18,cs),
(320,636,ls),
(320,648,o),
(324,654,o),
(336,654,cs),
(702,654,ls),
(1004,654,o),
(1222,774,o),
(1222,1070,cs)
);
},
{
closed = 1;
nodes = (
(1126,830,o),
(958,734,o),
(702,734,cs),
(334,734,ls),
(324,734,o),
(320,740,o),
(320,754,cs),
(320,1388,ls),
(320,1400,o),
(326,1404,o),
(338,1404,cs),
(688,1404,ls),
(958,1404,o),
(1126,1324,o),
(1126,1076,cs)
);
}
);
};
layerId = "91AB5BCA-6A50-42DA-B2F7-8181BF189245";
metricRight = "=X/2";
shapes = (
{
closed = 1;
nodes = (
(306,0,l),
(306,554,l),
(678,554,ls),
(974,554,o),
(1186,716,o),
(1186,1006,cs),
(1186,1296,o),
(970,1446,o),
(666,1446,cs),
(220,1446,l),
(220,0,l)
);
},
{
closed = 1;
nodes = (
(306,1362,l),
(664,1362,ls),
(928,1362,o),
(1098,1252,o),
(1098,1012,cs),
(1098,772,o),
(928,640,o),
(678,640,cs),
(306,640,l)
);
}
);
width = 1241;
},
{
associatedMasterId = "91AB5BCA-6A50-42DA-B2F7-8181BF189245";
layerId = "1EA419BA-4FB1-4AA8-8245-0A466CFFD0D5";
name = bubble;
shapes = (
{
closed = 1;
nodes = (
(40,1581,ls),
(14,1581,o),
(0,1567,o),
(0,1541,cs),
(0,-95,ls),
(0,-121,o),
(14,-135,o),
(40,-135,cs),
(401,-135,ls),
(427,-135,o),
(441,-121,o),
(441,-95,cs),
(441,419,l),
(678,419,ls),
(1016,419,o),
(1244,653,o),
(1244,1006,cs),
(1244,1357,o),
(1016,1581,o),
(666,1581,cs)
);
}
);
width = 1244;
}
);
metricLeft = H;
metricRight = "=O";
unicode = 80;
},
{
glyphname = Thorn;
kernLeft = N;
kernRight = P;
lastChange = "2019-07-29 22:30:34 +0000";
layers = (
{
background = {
shapes = (
{
closed = 1;
nodes = (
(1390,1060,o),
(1116,1216,o),
(788,1216,cs),
(536,1216,ls),
(522,1216,o),
(516,1224,o),
(516,1240,cs),
(516,1442,ls),
(516,1468,o),
(504,1484,o),
(480,1484,cs),
(100,1484,ls),
(78,1484,o),
(62,1468,o),
(62,1438,cs),
(62,50,ls),
(62,16,o),
(74,0,o),
(114,0,cs),
(450,0,ls),
(496,0,o),
(516,16,o),
(516,58,cs),
(516,262,ls),
(516,276,o),
(522,284,o),
(540,284,cs),
(839,284,ls),
(1166,284,o),
(1390,458,o),
(1390,744,cs)
);
},
{
closed = 1;
nodes = (
(925,670,o),
(868,604,o),
(772,604,cs),
(549,604,ls),
(524,604,o),
(516,618,o),
(516,648,cs),
(516,854,ls),
(516,884,o),
(528,896,o),
(562,896,cs),
(759,896,ls),
(852,896,o),
(925,840,o),
(925,750,cs)
);
}
);
};
layerId = "258ED206-D907-4350-8EBA-CBDDA1C16BF7";
shapes = (
{
closed = 1;
nodes = (
(1356,1032,o),
(1118,1186,o),
(788,1186,cs),
(524,1186,l),
(524,1446,l),
(135,1446,l),
(135,0,l),
(524,0,l),
(524,276,l),
(788,276,ls),
(1118,276,o),
(1356,444,o),
(1356,727,cs)
);
},
{
closed = 1;
nodes = (
(950,637,o),
(853,588,o),
(788,588,cs),
(524,588,l),
(524,875,l),
(788,874,ls),
(853,874,o),
(950,817,o),
(950,727,cs)
);
}
);
width = 1416;
},
{
background = {
shapes = (
{
closed = 1;
nodes = (
(1218,1044,o),
(998,1158,o),
(686,1158,cs),
(328,1158,ls),
(320,1158,o),
(316,1162,o),
(316,1168,cs),
(316,1464,ls),
(316,1480,o),
(312,1484,o),
(298,1484,cs),
(242,1484,ls),
(228,1484,o),
(224,1480,o),
(224,1464,cs),
(224,16,ls),
(224,6,o),
(230,0,o),
(240,0,cs),
(300,0,ls),
(310,0,o),
(316,6,o),
(316,18,cs),
(316,346,ls),
(316,358,o),
(320,364,o),
(332,364,cs),
(698,364,ls),
(998,364,o),
(1218,478,o),
(1218,780,cs)
);
},
{
closed = 1;
nodes = (
(1122,536,o),
(954,444,o),
(698,444,cs),
(330,444,ls),
(320,444,o),
(316,450,o),
(316,464,cs),
(316,1062,ls),
(316,1074,o),
(322,1078,o),
(334,1078,cs),
(684,1078,ls),
(954,1078,o),
(1122,1002,o),
(1122,780,cs)
);
}
);
};
layerId = "91AB5BCA-6A50-42DA-B2F7-8181BF189245";
shapes = (
{
closed = 1;
nodes = (
(1186,1018,o),
(972,1130,o),
(666,1130,cs),
(306,1130,l),
(306,1446,l),
(220,1446,l),
(220,0,l),
(306,0,l),
(306,354,l),
(678,354,ls),
(972,354,o),
(1186,466,o),
(1186,760,cs)
);
},
{
closed = 1;
nodes = (
(1104,522,o),
(928,436,o),
(678,436,cs),
(306,436,l),
(306,1048,l),
(664,1048,ls),
(928,1048,o),
(1104,976,o),
(1104,760,cs)
);
}
);
width = 1241;
},
{
associatedMasterId = "91AB5BCA-6A50-42DA-B2F7-8181BF189245";
layerId = "8CDC524C-E8AF-4F46-ADE9-3D81C4FF2DCF";
name = bubble;
shapes = (
{
closed = 1;
nodes = (
(445,1265,l),
(445,1541,ls),
(445,1567,o),
(431,1581,o),
(405,1581,cs),
(40,1581,ls),
(14,1581,o),
(0,1567,o),
(0,1541,cs),
(0,-95,ls),
(0,-121,o),
(14,-135,o),
(40,-135,cs),
(405,-135,ls),
(431,-135,o),
(445,-121,o),
(445,-95,cs),
(445,219,l),
(682,219,ls),
(1039,219,o),
(1248,417,o),
(1248,760,cs),
(1248,1078,o),
(1031,1265,o),
(670,1265,cs)
);
}
);
width = 1248;
}
);
metricLeft = P;
metricRight = P;
unicode = 222;
},
{
glyphname = Q;
kernLeft = O;
kernRight = O;
lastChange = "2019-07-24 01:09:46 +0000";
layers = (
{
background = {
shapes = (
{
closed = 1;
nodes = (
(65,276,o),
(344,-20,o),
(785,-20,cs),
(837,-20,o),
(879,-18,o),
(928,-12,cs),
(941,-10,o),
(951,-12,o),
(957,-20,cs),
(1071,-168,o),
(1216,-256,o),
(1415,-256,cs),
(1479,-256,o),
(1503,-244,o),
(1503,-194,cs),
(1503,26,ls),
(1503,40,o),
(1497,56,o),
(1470,60,cs),
(1384,72,o),
(1289,122,o),
(1289,156,cs),
(1289,164,o),
(1289,168,o),
(1293,172,c),
(1428,304,o),
(1503,498,o),
(1503,738,cs),
(1503,1202,o),
(1218,1504,o),
(785,1504,cs),
(351,1504,o),
(65,1202,o),
(65,738,cs)
);
},
{
closed = 1;
nodes = (
(541,1064,o),
(611,1196,o),
(785,1196,cs),
(957,1196,o),
(1027,1064,o),
(1027,734,cs),
(1027,412,o),
(961,292,o),
(785,292,cs),
(607,292,o),
(541,412,o),
(541,734,cs)
);
}
);
};
layerId = "258ED206-D907-4350-8EBA-CBDDA1C16BF7";
shapes = (
{
closed = 1;
nodes = (
(85,270,o),
(357,-20,o),
(787,-20,cs),
(837,-20,o),
(877,-18,o),
(947,-10,c),
(1119,-226,o),
(1255,-250,o),
(1487,-250,c),
(1487,54,l),
(1390,54,o),
(1300,104,o),
(1283,160,c),
(1413,300,o),
(1487,486,o),
(1487,720,cs),
(1487,1172,o),
(1209,1466,o),
(787,1466,cs),
(365,1466,o),
(85,1172,o),
(85,720,cs)
);
},
{
closed = 1;
nodes = (
(512,1038,o),
(619,1154,o),
(787,1154,cs),
(955,1154,o),
(1063,1038,o),
(1063,716,cs),
(1063,402,o),
(959,292,o),
(787,292,cs),
(615,292,o),
(512,402,o),
(512,716,cs)
);
}
);
width = 1593;
},
{
background = {
shapes = (
{
closed = 1;
nodes = (
(126,232,o),
(360,-20,o),
(728,-20,cs),
(780,-20,o),
(840,-14,o),
(890,-2,cs),
(904,2,o),
(914,-2,o),
(920,-10,cs),
(1050,-192,o),
(1182,-244,o),
(1270,-244,cs),
(1298,-244,o),
(1310,-240,o),
(1310,-218,cs),
(1310,-174,ls),
(1310,-168,o),
(1308,-162,o),
(1296,-160,cs),
(1146,-140,o),
(1013,-22,o),
(1013,32,cs),
(1013,40,o),
(1014,44,o),
(1024,50,cs),
(1218,166,o),
(1330,378,o),
(1330,738,cs),
(1330,1240,o),
(1104,1504,o),
(728,1504,cs),
(352,1504,o),
(126,1240,o),
(126,738,cs)
);
},
{
closed = 1;
nodes = (
(222,1184,o),
(394,1420,o),
(728,1420,cs),
(1062,1420,o),
(1234,1184,o),
(1234,738,cs),
(1234,282,o),
(1056,64,o),
(728,64,cs),
(400,64,o),
(222,282,o),
(222,734,cs)
);
}
);
};
layerId = "91AB5BCA-6A50-42DA-B2F7-8181BF189245";
shapes = (
{
closed = 1;
nodes = (
(120,226,o),
(350,-20,o),
(708,-20,cs),
(764,-20,o),
(820,-12,o),
(884,2,c),
(986,-196,o),
(1181,-238,o),
(1276,-238,c),
(1276,-158,l),
(1148,-152,o),
(1036,-100,o),
(971,36,c),
(1204,158,o),
(1294,388,o),
(1294,720,cs),
(1294,1210,o),
(1074,1466,o),
(708,1466,cs),
(342,1466,o),
(120,1210,o),
(120,720,cs)
);
},
{
closed = 1;
nodes = (
(208,1154,o),
(382,1384,o),
(708,1384,cs),
(1034,1384,o),
(1208,1154,o),
(1208,720,cs),
(1208,274,o),
(1028,62,o),
(708,62,cs),
(389,62,o),
(208,274,o),
(208,716,cs)
);
}
);
width = 1444;
},
{
associatedMasterId = "91AB5BCA-6A50-42DA-B2F7-8181BF189245";
layerId = "8AD905D8-AB4C-4A2C-BD5F-D65514441BE4";
name = bubble;
shapes = (
{
closed = 1;
nodes = (
(1364,159,o),
(1455,393,o),
(1455,720,cs),
(1455,1271,o),
(1180,1601,o),
(713,1601,cs),
(265,1601,o),
(0,1271,o),
(0,720,cs),
(0,174,o),
(266,-155,o),
(713,-155,cs),
(748,-155,o),
(785,-152,o),
(824,-147,c),
(927,-280,o),
(1084,-364,o),
(1252,-372,cs),
(1273,-373,o),
(1287,-367,o),
(1302,-352,cs),
(1396,-258,ls),
(1410,-244,o),
(1416,-230,o),
(1416,-209,cs),
(1416,-187,ls),
(1416,-166,o),
(1410,-152,o),
(1396,-137,cs),
(1307,-44,ls),
(1293,-29,o),
(1279,-23,o),
(1259,-21,cs),
(1225,-16,o),
(1197,-8,o),
(1173,7,c)
);
}
);
width = 1455;
}
);
metricLeft = O;
metricRight = "=O*1.25";
unicode = 81;
},
{
glyphname = R;
kernLeft = N;
kernRight = R;
lastChange = "2019-08-05 21:57:51 +0000";
layers = (
{
anchors = (
{
name = bottom;
pos = (719,0);
},
{
name = top;
pos = (699,1446);
}
);
background = {
anchors = (
{
name = bottom;
pos = (715,0);
},
{
name = top;
pos = (695,1484);
}
);
shapes = (
{
closed = 1;
nodes = (
(1129,624,ls),
(1123,640,o),
(1123,656,o),
(1137,662,cs),
(1289,720,o),
(1398,872,o),
(1398,1060,cs),
(1398,1328,o),
(1175,1484,o),
(789,1484,cs),
(121,1484,ls),
(97,1484,o),
(83,1468,o),
(83,1438,cs),
(83,50,ls),
(83,16,o),
(95,0,o),
(135,0,cs),
(471,0,ls),
(517,0,o),
(537,16,o),
(537,58,cs),
(537,568,ls),
(537,574,o),
(543,590,o),
(561,590,cs),
(653,590,ls),
(690,590,o),
(707,580,o),
(715,558,cs),
(903,42,ls),
(911,14,o),
(929,0,o),
(957,0,cs),
(1345,0,ls),
(1377,0,o),
(1394,30,o),
(1381,64,cs)
);
},
{
closed = 1;
nodes = (
(571,888,ls),
(545,888,o),
(537,900,o),
(537,930,cs),
(537,1148,ls),
(537,1178,o),
(549,1188,o),
(583,1188,cs),
(759,1188,ls),
(849,1188,o),
(929,1134,o),
(929,1032,cs),
(929,946,o),
(873,888,o),
(770,888,cs)
);
}
);
};
layerId = "258ED206-D907-4350-8EBA-CBDDA1C16BF7";
metricRight = "=H/1.5";
shapes = (
{
closed = 1;
nodes = (
(1083,560,l),
(1217,642,o),
(1312,758,o),
(1312,980,cs),
(1312,1242,o),
(1167,1446,o),
(791,1446,cs),
(135,1446,l),
(135,0,l),
(524,0,l),
(524,498,l),
(728,498,l),
(938,0,l),
(1337,0,l)
);
},
{
closed = 1;
nodes = (
(524,788,l),
(524,1158,l),
(747,1158,ls),
(835,1158,o),
(921,1076,o),
(921,976,cs),
(921,882,o),
(847,788,o),
(747,788,cs)
);
}
);
width = 1427;
},
{
anchors = (
{
name = bottom;
pos = (652,0);
},
{
name = top;
pos = (638,1446);
}
);
background = {
anchors = (
{
name = bottom;
pos = (670,0);
},
{
name = top;
pos = (656,1484);
}
);
shapes = (
{
closed = 1;
nodes = (
(894,718,l),
(892,724,o),
(894,730,o),
(902,732,cs),
(1040,768,o),
(1206,870,o),
(1206,1116,cs),
(1206,1360,o),
(1038,1484,o),
(750,1484,cs),
(234,1484,ls),
(220,1484,o),
(216,1480,o),
(216,1464,cs),
(216,18,ls),
(216,6,o),
(220,0,o),
(236,0,cs),
(288,0,ls),
(304,0,o),
(308,6,o),
(308,22,cs),
(308,688,ls),
(308,702,o),
(314,710,o),
(332,710,cs),
(764,710,ls),
(790,710,o),
(800,704,o),
(806,690,cs),
(1090,18,ls),
(1096,6,o),
(1100,0,o),
(1114,0,cs),
(1170,0,ls),
(1184,0,o),
(1192,14,o),
(1186,28,cs)
);
},
{
closed = 1;
nodes = (
(322,790,ls),
(312,790,o),
(308,796,o),
(308,808,cs),
(308,1388,ls),
(308,1400,o),
(314,1404,o),
(330,1404,cs),
(748,1404,ls),
(990,1404,o),
(1110,1306,o),
(1110,1102,cs),
(1110,878,o),
(966,790,o),
(680,790,cs)
);
}
);
};
layerId = "91AB5BCA-6A50-42DA-B2F7-8181BF189245";
shapes = (
{
closed = 1;
nodes = (
(866,706,l),
(1006,742,o),
(1174,846,o),
(1174,1088,cs),
(1174,1326,o),
(1010,1446,o),
(730,1446,cs),
(220,1446,l),
(220,0,l),
(298,0,l),
(298,688,l),
(784,688,l),
(1076,0,l),
(1166,0,l)
);
},
{
closed = 1;
nodes = (
(298,770,l),
(298,1366,l),
(728,1366,ls),
(964,1366,o),
(1090,1280,o),
(1090,1074,cs),
(1090,856,o),
(940,770,o),
(662,770,cs)
);
}
);
width = 1314;
},
{
associatedMasterId = "91AB5BCA-6A50-42DA-B2F7-8181BF189245";
layerId = "B7734422-9340-464D-9793-43C796B96CAB";
name = bubble;
shapes = (
{
closed = 1;
nodes = (
(1212,723,o),
(1309,885,o),
(1309,1088,cs),
(1309,1397,o),
(1091,1581,o),
(730,1581,cs),
(40,1581,ls),
(14,1581,o),
(0,1567,o),
(0,1541,cs),
(0,-95,ls),
(0,-121,o),
(14,-135,o),
(40,-135,cs),
(393,-135,ls),
(419,-135,o),
(433,-121,o),
(433,-95,cs),
(433,553,l),
(695,553,l),
(974,-104,ls),
(983,-125,o),
(997,-135,o),
(1020,-135,cs),
(1270,-135,ls),
(1300,-135,o),
(1313,-117,o),
(1303,-89,cs),
(1044,631,l)
);
}
);
width = 1319;
}
);
metricLeft = H;
metricRight = "=X+30";
unicode = 82;
},
{
glyphname = S;
kernLeft = S;
kernRight = S;
lastChange = "2019-07-24 01:09:46 +0000";
layers = (
{
anchors = (
{
name = bottom;
pos = (720,0);
},
{
name = top;
pos = (720,1446);
}
);
background = {
anchors = (
{
name = bottom;
pos = (716,0);
},
{
name = top;
pos = (716,1484);
}
);
shapes = (
{
closed = 1;
nodes = (
(1022,1058,o),
(1034,1056,o),
(1054,1070,cs),
(1272,1228,ls),
(1298,1248,o),
(1284,1270,o),
(1272,1288,cs),
(1180,1418,o),
(955,1504,o),
(716,1504,cs),
(338,1504,o),
(100,1290,o),
(100,1030,cs),
(100,820,o),
(253,646,o),
(492,586,cs),
(797,512,ls),
(882,492,o),
(922,452,o),
(922,404,cs),
(922,330,o),
(826,288,o),
(680,288,cs),
(522,288,o),
(444,334,o),
(356,448,cs),
(340,468,o),
(316,476,o),
(280,452,cs),
(74,310,ls),
(47,288,o),
(47,272,o),
(62,244,cs),
(156,86,o),
(422,-20,o),
(714,-20,cs),
(1108,-20,o),
(1354,172,o),
(1354,468,cs),
(1354,674,o),
(1238,842,o),
(988,904,cs),
(656,990,ls),
(556,1014,o),
(528,1056,o),
(528,1092,cs),
(528,1142,o),
(583,1194,o),
(732,1194,cs),
(888,1194,o),
(946,1138,o),
(995,1086,cs)
);
}
);
};
guides = (
{
angle = 214.3236;
pos = (657,302);
}
);
layerId = "258ED206-D907-4350-8EBA-CBDDA1C16BF7";
metricLeft = "=O";
metricRight = "=O/1.1";
shapes = (
{
closed = 1;
nodes = (
(1081,-20,o),
(1347,164,o),
(1347,410,cs),
(1347,554,o),
(1323,814,o),
(911,886,cs),
(689,924,ls),
(565,946,o),
(534,984,o),
(534,1050,cs),
(534,1102,o),
(579,1164,o),
(728,1164,cs),
(861,1164,o),
(940,1120,o),
(952,1008,c),
(1338,1008,l),
(1332,1276,o),
(1116,1464,o),
(720,1464,cs),
(392,1464,o),
(122,1294,o),
(126,1002,cs),
(131,756,o),
(277,612,o),
(499,576,cs),
(720,538,ls),
(840,518,o),
(958,498,o),
(958,410,cs),
(958,308,o),
(843,278,o),
(724,278,cs),
(591,278,o),
(503,338,o),
(481,440,c),
(85,440,l),
(110,128,o),
(428,-20,o),
(726,-20,cs)
);
}
);
width = 1424;
},
{
anchors = (
{
name = bottom;
pos = (635,0);
},
{
name = top;
pos = (648,1446);
}
);
background = {
anchors = (
{
name = bottom;
pos = (673,0);
},
{
name = top;
pos = (666,1484);
}
);
shapes = (
{
closed = 1;
nodes = (
(1040,1240,o),
(1044,1236,o),
(1053,1244,cs),
(1097,1284,ls),
(1110,1294,o),
(1105,1304,o),
(1097,1312,cs),
(984,1432,o),
(849,1504,o),
(664,1504,cs),
(389,1504,o),
(200,1362,o),
(200,1112,cs),
(200,984,o),
(259,842,o),
(475,760,cs),
(778,644,ls),
(996,560,o),
(1042,478,o),
(1042,360,cs),
(1042,146,o),
(883,64,o),
(645,64,cs),
(431,64,o),
(336,138,o),
(223,282,cs),
(213,294,o),
(204,296,o),
(183,282,cs),
(162,266,ls),
(141,252,o),
(139,240,o),
(150,226,cs),
(267,58,o),
(423,-20,o),
(645,-20,cs),
(948,-20,o),
(1133,120,o),
(1133,364,cs),
(1133,532,o),
(1047,652,o),
(811,738,cs),
(536,838,ls),
(322,916,o),
(292,1036,o),
(292,1114,cs),
(292,1312,o),
(440,1420,o),
(658,1420,cs),
(826,1420,o),
(948,1348,o),
(1028,1254,cs)
);
}
);
};
layerId = "91AB5BCA-6A50-42DA-B2F7-8181BF189245";
metricRight = "=O*1.2";
shapes = (
{
closed = 1;
nodes = (
(995,-20,o),
(1162,150,o),
(1162,354,cs),
(1162,518,o),
(1082,672,o),
(859,731,cs),
(556,811,ls),
(334,870,o),
(260,942,o),
(260,1066,cs),
(260,1286,o),
(478,1382,o),
(648,1382,cs),
(839,1382,o),
(1024,1304,o),
(1047,1064,c),
(1135,1064,l),
(1136,1258,o),
(972,1464,o),
(651,1464,cs),
(365,1464,o),
(177,1292,o),
(177,1064,cs),
(177,892,o),
(295,787,o),
(504,734,cs),
(820,654,ls),
(1001,608,o),
(1078,504,o),
(1078,350,cs),
(1078,180,o),
(906,58,o),
(659,58,cs),
(451,58,o),
(263,158,o),
(220,354,c),
(132,354,l),
(175,112,o),
(399,-20,o),
(659,-20,cs)
);
}
);
width = 1306;
},
{
associatedMasterId = "91AB5BCA-6A50-42DA-B2F7-8181BF189245";
layerId = "47AF886F-B905-485C-B5F5-732671762EA7";
name = bubble;
shapes = (
{
closed = 1;
nodes = (
(1070,-155,o),
(1339,48,o),
(1339,354,cs),
(1339,606,o),
(1184,790,o),
(914,859,cs),
(605,939,ls),
(437,983,o),
(404,1016,o),
(404,1066,cs),
(404,1169,o),
(512,1247,o),
(664,1247,cs),
(822,1247,o),
(912,1188,o),
(943,1070,cs),
(948,1050,o),
(956,1037,o),
(973,1025,cs),
(1085,948,ls),
(1102,936,o),
(1117,933,o),
(1137,937,cs),
(1160,942,ls),
(1180,946,o),
(1193,954,o),
(1205,971,cs),
(1278,1070,ls),
(1291,1086,o),
(1295,1101,o),
(1292,1121,cs),
(1251,1414,o),
(1010,1599,o),
(668,1599,cs),
(310,1599,o),
(49,1375,o),
(49,1064,cs),
(49,835,o),
(197,686,o),
(485,613,cs),
(807,533,ls),
(923,504,o),
(968,450,o),
(968,350,cs),
(968,264,o),
(852,193,o),
(676,193,cs),
(517,193,o),
(400,256,o),
(362,355,cs),
(355,374,o),
(347,386,o),
(330,397,cs),
(218,468,ls),
(201,480,o),
(186,482,o),
(165,478,cs),
(138,472,ls),
(118,468,o),
(105,459,o),
(93,443,cs),
(17,332,ls),
(5,315,o),
(1,300,o),
(6,280,cs),
(74,17,o),
(341,-155,o),
(676,-155,cs)
);
}
);
width = 1339;
}
);
metricLeft = "=O*1.1";
metricRight = "=O";
unicode = 83;
},
{
glyphname = Schwa;
kernLeft = e;
kernRight = e;
lastChange = "2019-08-08 21:01:50 +0000";
layers = (
{
background = {
shapes = (
{
closed = 1;
nodes = (
(1014,840,o),
(999,828,o),
(976,828,cs),
(132,828,ls),
(87,828,o),
(85,808,o),
(85,764,cs),
(85,266,o),
(321,-20,o),
(775,-20,cs),
(1151,-20,o),
(1481,308,o),
(1481,742,cs),
(1481,1168,o),
(1216,1466,o),
(781,1466,cs),
(497,1466,o),
(289,1344,o),
(169,1106,cs),
(153,1074,o),
(155,1056,o),
(180,1046,cs),
(447,912,ls),
(481,896,o),
(493,900,o),
(501,914,cs),
(592,1060,o),
(665,1128,o),
(785,1128,cs),
(977,1128,o),
(1014,986,o),
(1014,872,cs)
);
},
{
closed = 1;
nodes = (
(987,374,o),
(930,284,o),
(771,284,cs),
(640,284,o),
(560,392,o),
(560,520,cs),
(560,550,o),
(569,556,o),
(601,556,cs),
(1010,554,l)
);
}
);
};
layerId = "258ED206-D907-4350-8EBA-CBDDA1C16BF7";
shapes = (
{
closed = 1;
nodes = (
(1178,-20,o),
(1481,218,o),
(1481,742,cs),
(1481,1208,o),
(1216,1466,o),
(778,1466,cs),
(353,1466,o),
(85,1172,o),
(85,932,c),
(519,932,l),
(519,1015,o),
(619,1108,o),
(769,1108,cs),
(919,1108,o),
(1014,1008,o),
(1014,828,c),
(85,828,l),
(85,221,o),
(378,-20,o),
(778,-20,cs)
);
},
{
closed = 1;
nodes = (
(639,314,o),
(560,408,o),
(560,556,c),
(1010,554,l),
(1010,408,o),
(930,314,o),
(778,314,cs)
);
}
);
width = 1566;
},
{
background = {
shapes = (
{
closed = 1;
nodes = (
(148,742,ls),
(131,742,o),
(131,732,o),
(131,720,cs),
(131,340,o),
(261,-20,o),
(719,-20,cs),
(1165,-20,o),
(1303,352,o),
(1303,714,cs),
(1303,1036,o),
(1207,1466,o),
(719,1466,cs),
(270,1466,o),
(184,1079,o),
(153,1003,c),
(247,972,l),
(275,1033,o),
(309,1382,o),
(719,1382,cs),
(1143,1382,o),
(1203,976,o),
(1203,742,c)
);
},
{
closed = 1;
nodes = (
(1197,372,o),
(1101,64,o),
(719,64,cs),
(335,64,o),
(233,380,o),
(233,660,c),
(1203,660,l)
);
}
);
};
layerId = "91AB5BCA-6A50-42DA-B2F7-8181BF189245";
shapes = (
{
closed = 1;
nodes = (
(1076,-20,o),
(1293,240,o),
(1293,720,cs),
(1293,1185,o),
(1076,1466,o),
(711,1466,cs),
(346,1466,o),
(120,1185,o),
(120,972,c),
(216,972,l),
(216,1147,o),
(386,1382,o),
(711,1382,cs),
(1036,1382,o),
(1205,1146,o),
(1205,742,c),
(123,742,l),
(123,238,o),
(346,-20,o),
(711,-20,cs)
);
},
{
closed = 1;
nodes = (
(386,64,o),
(217,320,o),
(217,660,c),
(1205,660,l),
(1199,322,o),
(1036,64,o),
(711,64,cs)
);
}
);
width = 1413;
},
{
associatedMasterId = "91AB5BCA-6A50-42DA-B2F7-8181BF189245";
layerId = "EB3C1396-96DF-4BB7-8BFB-DA9A45A6263D";
name = bubble;
shapes = (
{
closed = 1;
nodes = (
(161,1601,o),
(55,1133,o),
(28,1070,cs),
(28,1068,ls),
(-4,988,o),
(26,902,o),
(107,874,c),
(41,859,o),
(0,798,o),
(0,720,cs),
(0,164,o),
(257,-155,o),
(713,-155,cs),
(1157,-155,o),
(1422,175,o),
(1422,714,cs),
(1422,1273,o),
(1164,1601,o),
(713,1601,cs)
);
}
);
width = 1422;
}
);
metricLeft = O;
metricRight = O;
unicode = 399;
},
{
glyphname = T;
kernLeft = T;
kernRight = T;
lastChange = "2020-01-08 00:41:31 +0000";
layers = (
{
anchors = (
{
name = bottom;
pos = (654,0);
},
{
name = top;
pos = (654,1446);
}
);
background = {
anchors = (
{
name = bottom;
pos = (656,0);
},
{
name = top;
pos = (656,1484);
}
);
shapes = (
{
closed = 1;
nodes = (
(8,1172,o),
(26,1162,o),
(54,1162,cs),
(406,1162,ls),
(422,1162,o),
(428,1154,o),
(428,1134,cs),
(428,40,ls),
(428,14,o),
(442,0,o),
(464,0,cs),
(844,0,ls),
(866,0,o),
(882,14,o),
(882,44,cs),
(882,1142,ls),
(882,1156,o),
(890,1162,o),
(906,1162,cs),
(1260,1162,ls),
(1286,1162,o),
(1304,1172,o),
(1304,1200,cs),
(1304,1438,ls),
(1304,1464,o),
(1288,1484,o),
(1254,1484,cs),
(58,1484,ls),
(24,1484,o),
(8,1464,o),
(8,1438,cs),
(8,1200,ls)
);
}
);
};
layerId = "258ED206-D907-4350-8EBA-CBDDA1C16BF7";
metricLeft = "=X";
metricRight = "=X";
shapes = (
{
closed = 1;
nodes = (
(440,1104,l),
(440,0,l),
(830,0,l),
(830,1104,l),
(1244,1104,l),
(1244,1446,l),
(30,1446,l),
(30,1104,l)
);
}
);
width = 1274;
},
{
anchors = (
{
name = bottom;
pos = (593,4);
},
{
name = top;
pos = (593,1446);
}
);
background = {
anchors = (
{
name = bottom;
pos = (609,0);
},
{
name = top;
pos = (609,1484);
}
);
shapes = (
{
closed = 1;
nodes = (
(57,1406,o),
(61,1404,o),
(73,1404,cs),
(542,1404,ls),
(557,1404,o),
(561,1402,o),
(561,1386,cs),
(561,20,ls),
(561,4,o),
(565,0,o),
(582,0,cs),
(635,0,ls),
(649,0,o),
(653,4,o),
(653,20,cs),
(653,1386,ls),
(653,1402,o),
(657,1404,o),
(673,1404,cs),
(1099,1404,ls),
(1111,1404,o),
(1115,1406,o),
(1115,1418,cs),
(1115,1470,ls),
(1115,1480,o),
(1111,1484,o),
(1101,1484,cs),
(71,1484,ls),
(61,1484,o),
(57,1480,o),
(57,1470,cs),
(57,1418,ls)
);
}
);
};
layerId = "91AB5BCA-6A50-42DA-B2F7-8181BF189245";
metricLeft = "=X/2";
metricRight = "=X/2";
shapes = (
{
closed = 1;
nodes = (
(551,1366,l),
(551,0,l),
(630,0,l),
(630,1366,l),
(1086,1366,l),
(1086,1446,l),
(55,1446,l),
(55,1366,l)
);
}
);
width = 1141;
},
{
associatedMasterId = "91AB5BCA-6A50-42DA-B2F7-8181BF189245";
layerId = "51A8E324-8502-444E-9117-E2F3A1589657";
name = bubble;
shapes = (
{
closed = 1;
nodes = (
(333,1256,l),
(333,-70,ls),
(333,-96,o),
(347,-110,o),
(373,-110,cs),
(812,-110,ls),
(838,-110,o),
(852,-96,o),
(852,-70,cs),
(852,1256,l),
(1268,1256,ls),
(1294,1256,o),
(1308,1270,o),
(1308,1296,cs),
(1308,1516,ls),
(1308,1542,o),
(1294,1556,o),
(1268,1556,cs),
(-123,1556,ls),
(-149,1556,o),
(-163,1542,o),
(-163,1516,cs),
(-163,1296,ls),
(-163,1270,o),
(-149,1256,o),
(-123,1256,cs)
);
}
);
width = 1146;
}
);
metricLeft = X;
metricRight = X;
unicode = 84;
},
{
glyphname = Tbar;
kernLeft = T;
kernRight = T;
lastChange = "2019-07-24 01:09:46 +0000";
layers = (
{
background = {
shapes = (
{
closed = 1;
nodes = (
(1064,828,o),
(1050,844,o),
(1028,844,cs),
(226,844,ls),
(202,844,o),
(188,828,o),
(188,798,cs),
(188,612,ls),
(188,578,o),
(200,562,o),
(240,562,cs),
(998,562,ls),
(1044,562,o),
(1064,578,o),
(1064,618,cs),
(1064,804,ls)
);
},
{
pos = (-22,0);
ref = T;
}
);
};
layerId = "258ED206-D907-4350-8EBA-CBDDA1C16BF7";
shapes = (
{
closed = 1;
nodes = (
(208,822,l),
(208,548,l),
(1062,548,l),
(1062,822,l)
);
},
{
ref = T;
}
);
width = 1274;
},
{
background = {
guides = (
{
angle = 90;
pos = (179,188);
showMeasurement = 1;
}
);
shapes = (
{
closed = 1;
nodes = (
(1016,798,o),
(1012,804,o),
(1002,804,cs),
(298,804,ls),
(288,804,o),
(284,798,o),
(284,786,cs),
(284,740,ls),
(284,726,o),
(288,720,o),
(304,720,cs),
(990,720,ls),
(1008,720,o),
(1016,726,o),
(1016,742,cs),
(1016,788,ls)
);
},
{
pos = (4,0);
ref = T;
}
);
};
guides = (
{
angle = 90;
pos = (233,175);
showMeasurement = 1;
}
);
layerId = "91AB5BCA-6A50-42DA-B2F7-8181BF189245";
shapes = (
{
closed = 1;
nodes = (
(214,784,l),
(214,702,l),
(928,702,l),
(928,784,l)
);
},
{
ref = T;
}
);
width = 1141;
},
{
associatedMasterId = "91AB5BCA-6A50-42DA-B2F7-8181BF189245";
layerId = "21542E5B-A32D-4CAF-B96E-7F445A92EEB0";
name = bubble;
shapes = (
{
closed = 1;
nodes = (
(40,919,ls),
(14,919,o),
(0,905,o),
(0,879,cs),
(0,607,ls),
(0,581,o),
(14,567,o),
(40,567,cs),
(1106,567,ls),
(1132,567,o),
(1146,581,o),
(1146,607,cs),
(1146,879,ls),
(1146,905,o),
(1132,919,o),
(1106,919,cs)
);
}
);
width = 1146;
}
);
metricLeft = T;
metricRight = T;
unicode = 358;
},
{
glyphname = U;
kernLeft = U;
kernRight = U;
lastChange = "2019-08-05 20:24:47 +0000";
layers = (
{
anchors = (
{
name = bottom;
pos = (759,0);
},
{
name = horn;
pos = (1314,1094);
},
{
name = ogonek;
pos = (917,24);
},
{
name = top;
pos = (759,1446);
}
);
background = {
anchors = (
{
name = ogonek;
pos = (949,20);
},
{
name = top;
pos = (759,1484);
}
);
shapes = (
{
closed = 1;
nodes = (
(1365,1442,ls),
(1365,1468,o),
(1352,1484,o),
(1329,1484,cs),
(1029,1484,ls),
(1005,1484,o),
(991,1468,o),
(991,1438,cs),
(991,584,ls),
(991,362,o),
(883,298,o),
(759,298,cs),
(623,298,o),
(539,374,o),
(539,578,cs),
(539,1442,ls),
(539,1468,o),
(527,1484,o),
(503,1484,cs),
(123,1484,ls),
(101,1484,o),
(85,1468,o),
(85,1438,cs),
(85,626,ls),
(85,208,o),
(247,-20,o),
(725,-20,cs),
(1106,-20,o),
(1365,124,o),
(1365,586,cs)
);
}
);
};
layerId = "258ED206-D907-4350-8EBA-CBDDA1C16BF7";
shapes = (
{
closed = 1;
nodes = (
(1383,1446,l),
(989,1446,l),
(989,582,ls),
(989,382,o),
(879,306,o),
(759,306,cs),
(637,306,o),
(529,382,o),
(529,582,cs),
(529,1446,l),
(135,1446,l),
(135,598,ls),
(135,230,o),
(293,-20,o),
(759,-20,cs),
(1225,-20,o),
(1383,230,o),
(1383,598,cs)
);
}
);
width = 1491;
},
{
anchors = (
{
name = bottom;
pos = (696,4);
},
{
name = horn;
pos = (1148,1212);
},
{
name = ogonek;
pos = (838,18);
},
{
name = top;
pos = (702,1446);
}
);
background = {
anchors = (
{
name = ogonek;
pos = (860,18);
},
{
name = top;
pos = (724,1484);
}
);
shapes = (
{
closed = 1;
nodes = (
(1210,1466,ls),
(1210,1478,o),
(1206,1484,o),
(1194,1484,cs),
(1146,1484,ls),
(1134,1484,o),
(1130,1478,o),
(1130,1466,cs),
(1130,458,ls),
(1130,194,o),
(996,64,o),
(720,64,cs),
(448,64,o),
(314,192,o),
(314,452,cs),
(314,1464,ls),
(314,1480,o),
(310,1484,o),
(294,1484,cs),
(238,1484,ls),
(226,1484,o),
(222,1478,o),
(222,1462,cs),
(222,490,ls),
(222,142,o),
(380,-20,o),
(716,-20,cs),
(1048,-20,o),
(1210,138,o),
(1210,460,cs)
);
}
);
};
layerId = "91AB5BCA-6A50-42DA-B2F7-8181BF189245";
shapes = (
{
closed = 1;
nodes = (
(1178,1446,l),
(1100,1446,l),
(1100,444,ls),
(1100,188,o),
(966,56,o),
(698,56,cs),
(432,56,o),
(306,192,o),
(306,444,cs),
(306,1446,l),
(220,1446,l),
(220,478,ls),
(220,138,o),
(370,-20,o),
(698,-20,cs),
(1020,-20,o),
(1178,134,o),
(1178,448,cs)
);
}
);
width = 1354;
},
{
associatedMasterId = "91AB5BCA-6A50-42DA-B2F7-8181BF189245";
layerId = "58FB3D7C-A5FA-4E36-97E4-5BD68FC34C73";
name = bubble;
shapes = (
{
closed = 1;
nodes = (
(1354,1541,ls),
(1354,1567,o),
(1340,1581,o),
(1314,1581,cs),
(1005,1581,ls),
(979,1581,o),
(965,1567,o),
(965,1541,cs),
(965,444,ls),
(965,264,o),
(891,191,o),
(698,191,cs),
(512,191,o),
(441,263,o),
(441,444,cs),
(441,1541,ls),
(441,1567,o),
(427,1581,o),
(401,1581,cs),
(40,1581,ls),
(14,1581,o),
(0,1567,o),
(0,1541,cs),
(0,478,ls),
(0,62,o),
(240,-155,o),
(698,-155,cs),
(1121,-155,o),
(1354,59,o),
(1354,448,cs)
);
}
);
width = 1354;
}
);
metricLeft = H;
metricRight = "=H/1.25";
unicode = 85;
},
{
glyphname = V;
kernLeft = V;
kernRight = V;
lastChange = "2020-01-08 04:36:41 +0000";
layers = (
{
background = {
shapes = (
{
closed = 1;
nodes = (
(1092,1484,ls),
(1068,1484,o),
(1046,1468,o),
(1040,1442,cs),
(790,566,ls),
(784,546,o),
(776,546,o),
(770,564,cs),
(502,1442,ls),
(494,1468,o),
(476,1484,o),
(452,1484,cs),
(66,1484,ls),
(34,1484,o),
(16,1456,o),
(28,1426,cs),
(492,50,ls),
(502,16,o),
(526,0,o),
(566,0,cs),
(890,0,ls),
(930,0,o),
(954,16,o),
(964,50,cs),
(1428,1426,ls),
(1439,1456,o),
(1422,1484,o),
(1390,1484,cs)
);
}
);
};
guides = (
{
angle = -108.62;
pos = (946,0);
}
);
layerId = "258ED206-D907-4350-8EBA-CBDDA1C16BF7";
shapes = (
{
closed = 1;
nodes = (
(1066,1446,l),
(732,456,l),
(397,1446,l),
(30,1446,l),
(518,0,l),
(946,0,l),
(1434,1446,l)
);
}
);
width = 1464;
},
{
background = {
shapes = (
{
closed = 1;
nodes = (
(1186,1484,ls),
(1173,1484,o),
(1167,1480,o),
(1163,1470,cs),
(675,130,ls),
(665,102,o),
(653,102,o),
(644,128,cs),
(169,1468,ls),
(165,1480,o),
(159,1484,o),
(144,1484,cs),
(98,1484,ls),
(83,1484,o),
(77,1476,o),
(81,1464,cs),
(591,20,ls),
(595,6,o),
(607,0,o),
(629,0,cs),
(693,0,ls),
(711,0,o),
(719,6,o),
(726,22,cs),
(1249,1466,ls),
(1253,1476,o),
(1247,1484,o),
(1235,1484,cs)
);
}
);
};
guides = (
{
angle = -110.08;
pos = (1141,1446);
},
{
angle = 110.0797;
pos = (141,1446);
}
);
layerId = "91AB5BCA-6A50-42DA-B2F7-8181BF189245";
shapes = (
{
closed = 1;
nodes = (
(1141,1446,l),
(641,81,l),
(141,1446,l),
(55,1446,l),
(583,0,l),
(699,0,l),
(1227,1446,l)
);
}
);
width = 1282;
},
{
associatedMasterId = "91AB5BCA-6A50-42DA-B2F7-8181BF189245";
layerId = "ACF47B9B-C093-4E17-A670-7A7BBC87E537";
name = bubble;
shapes = (
{
closed = 1;
nodes = (
(980,1556,ls),
(957,1556,o),
(942,1546,o),
(934,1524,cs),
(631,694,l),
(336,1524,ls),
(328,1546,o),
(313,1556,o),
(290,1556,cs),
(-154,1556,ls),
(-183,1556,o),
(-196,1538,o),
(-186,1510,cs),
(376,-78,ls),
(384,-100,o),
(398,-110,o),
(422,-110,cs),
(831,-110,ls),
(855,-110,o),
(869,-100,o),
(877,-78,cs),
(1454,1510,ls),
(1464,1538,o),
(1451,1556,o),
(1421,1556,cs)
);
}
);
width = 1268;
}
);
metricLeft = T;
metricRight = T;
unicode = 86;
},
{
glyphname = W;
kernLeft = V;
kernRight = V;
lastChange = "2019-10-30 02:33:56 +0000";
layers = (
{
anchors = (
{
name = top;
pos = (982,1446);
}
);
background = {
anchors = (
{
name = top;
pos = (1030,1484);
}
);
shapes = (
{
closed = 1;
nodes = (
(1790,1484,ls),
(1748,1484,o),
(1732,1468,o),
(1726,1442,cs),
(1522,678,ls),
(1518,662,o),
(1504,666,o),
(1500,682,cs),
(1280,1442,ls),
(1272,1468,o),
(1258,1484,o),
(1216,1484,cs),
(936,1484,ls),
(894,1484,o),
(878,1468,o),
(872,1442,cs),
(662,692,ls),
(656,670,o),
(647,670,o),
(638,700,cs),
(426,1442,ls),
(418,1468,o),
(404,1484,o),
(362,1484,cs),
(32,1484,ls),
(-20,1484,o),
(-40,1450,o),
(-28,1404,cs),
(380,50,ls),
(392,16,o),
(412,0,o),
(452,0,cs),
(738,0,ls),
(780,0,o),
(800,16,o),
(810,50,cs),
(1016,750,ls),
(1030,790,o),
(1040,786,o),
(1048,754,cs),
(1256,50,ls),
(1266,16,o),
(1288,0,o),
(1328,0,cs),
(1604,0,ls),
(1644,0,o),
(1664,16,o),
(1676,50,cs),
(2082,1404,ls),
(2094,1450,o),
(2074,1484,o),
(2022,1484,cs)
);
}
);
};
guides = (
{
angle = -73.94;
pos = (214,670);
},
{
angle = 74.3834;
pos = (417,670);
}
);
layerId = "258ED206-D907-4350-8EBA-CBDDA1C16BF7";
shapes = (
{
closed = 1;
nodes = (
(1558,1446,l),
(1342,670,l),
(1118,1446,l),
(846,1446,l),
(630,670,l),
(406,1446,l),
(30,1446,l),
(466,0,l),
(752,0,l),
(982,786,l),
(1212,0,l),
(1502,0,l),
(1934,1446,l)
);
}
);
width = 1964;
},
{
anchors = (
{
name = top;
pos = (936,1446);
}
);
background = {
anchors = (
{
name = top;
pos = (975,1484);
}
);
guides = (
{
pos = (18,125);
showMeasurement = 1;
}
);
shapes = (
{
closed = 1;
nodes = (
(1818,1484,ls),
(1807,1484,o),
(1797,1480,o),
(1795,1470,cs),
(1417,144,ls),
(1408,116,o),
(1400,116,o),
(1392,142,cs),
(1022,1468,ls),
(1018,1480,o),
(1015,1484,o),
(999,1484,cs),
(948,1484,ls),
(931,1484,o),
(925,1476,o),
(923,1470,cs),
(545,144,ls),
(536,116,o),
(528,116,o),
(520,142,cs),
(150,1468,ls),
(146,1480,o),
(142,1484,o),
(127,1484,cs),
(76,1484,ls),
(62,1484,o),
(57,1476,o),
(60,1464,cs),
(465,20,ls),
(469,6,o),
(480,0,o),
(501,0,cs),
(564,0,ls),
(585,0,o),
(593,6,o),
(597,22,cs),
(967,1316,ls),
(969,1324,o),
(973,1324,o),
(975,1316,cs),
(1337,20,ls),
(1341,6,o),
(1352,0,o),
(1373,0,cs),
(1436,0,ls),
(1457,0,o),
(1465,6,o),
(1469,22,cs),
(1883,1466,ls),
(1885,1476,o),
(1881,1484,o),
(1868,1484,cs)
);
}
);
};
guides = (
{
pos = (91,116);
showMeasurement = 1;
}
);
layerId = "91AB5BCA-6A50-42DA-B2F7-8181BF189245";
metricLeft = "=X/2";
metricRight = "=X/2";
shapes = (
{
closed = 1;
nodes = (
(1736,1446,l),
(1352,98,l),
(975,1446,l),
(896,1446,l),
(513,98,l),
(142,1446,l),
(55,1446,l),
(461,0,l),
(564,0,l),
(934,1296,l),
(1297,0,l),
(1406,0,l),
(1822,1446,l)
);
}
);
width = 1877;
},
{
associatedMasterId = "91AB5BCA-6A50-42DA-B2F7-8181BF189245";
layerId = "D04AB344-08A7-44F1-90D2-98E7F5DE994F";
name = bubble;
shapes = (
{
closed = 1;
nodes = (
(1356,595,l),
(1090,1547,ls),
(1084,1570,o),
(1069,1581,o),
(1045,1581,cs),
(832,1581,ls),
(808,1581,o),
(794,1570,o),
(787,1547,cs),
(518,599,l),
(257,1547,ls),
(251,1570,o),
(236,1581,o),
(213,1581,cs),
(45,1581,ls),
(17,1581,o),
(3,1565,o),
(9,1537,cs),
(354,-100,ls),
(359,-123,o),
(374,-135,o),
(398,-135,cs),
(634,-135,ls),
(657,-135,o),
(672,-124,o),
(678,-101,cs),
(936,800,l),
(1188,-101,ls),
(1195,-124,o),
(1209,-135,o),
(1233,-135,cs),
(1475,-135,ls),
(1499,-135,o),
(1513,-123,o),
(1518,-100,cs),
(1873,1537,ls),
(1879,1565,o),
(1866,1581,o),
(1838,1581,cs),
(1672,1581,ls),
(1648,1581,o),
(1634,1570,o),
(1627,1547,cs)
);
}
);
width = 1883;
}
);
metricLeft = X;
metricRight = X;
unicode = 87;
},
{
glyphname = X;
kernLeft = X;
kernRight = X;
lastChange = "2020-01-08 04:50:27 +0000";
layers = (
{
background = {
shapes = (
{
closed = 1;
nodes = (
(976,806,l),
(1420,1484,l),
(986,1484,l),
(758,1082,l),
(530,1484,l),
(20,1484,l),
(492,748,l),
(74,102,ls),
(22,22,o),
(44,0,o),
(100,0,cs),
(448,0,l),
(714,466,l),
(986,0,l),
(1406,0,ls),
(1462,0,o),
(1484,24,o),
(1434,102,cs)
);
}
);
};
layerId = "258ED206-D907-4350-8EBA-CBDDA1C16BF7";
shapes = (
{
closed = 1;
nodes = (
(946,786,l),
(1378,1446,l),
(970,1446,l),
(748,1054,l),
(524,1446,l),
(42,1446,l),
(502,730,l),
(30,0,l),
(444,0,l),
(704,454,l),
(970,0,l),
(1456,0,l)
);
}
);
width = 1486;
},
{
background = {
guides = (
{
angle = 90;
pos = (95,437);
},
{
angle = 90;
pos = (606,372);
},
{
pos = (61,716);
showMeasurement = 1;
},
{
pos = (55,32);
showMeasurement = 1;
},
{
pos = (125,454);
showMeasurement = 1;
},
{
pos = (123,290);
showMeasurement = 1;
},
{
angle = 236.602;
pos = (338,374);
},
{
angle = 123.344;
pos = (395,374);
},
{
angle = 56.5817;
pos = (383,370);
},
{
angle = 123.4;
pos = (348,370);
}
);
shapes = (
{
closed = 1;
nodes = (
(742,748,ls),
(734,760,o),
(736,768,o),
(744,780,cs),
(1212,1472,ls),
(1216,1478,o),
(1216,1484,o),
(1208,1484,cs),
(1126,1484,ls),
(1118,1484,o),
(1114,1482,o),
(1110,1476,cs),
(696,862,ls),
(682,842,o),
(674,844,o),
(662,860,cs),
(248,1476,ls),
(244,1482,o),
(242,1484,o),
(230,1484,cs),
(152,1484,ls),
(144,1484,o),
(142,1474,o),
(146,1468,cs),
(610,782,ls),
(620,766,o),
(622,754,o),
(612,740,cs),
(128,20,ls),
(118,4,o),
(122,0,o),
(134,0,cs),
(206,0,ls),
(212,0,o),
(219,2,o),
(222,8,cs),
(656,648,ls),
(677,678,o),
(684,676,o),
(698,654,cs),
(1139,8,ls),
(1142,2,o),
(1144,0,o),
(1152,0,cs),
(1224,0,ls),
(1236,0,o),
(1244,4,o),
(1232,20,cs)
);
}
);
};
guides = (
{
angle = 90;
pos = (166,405);
},
{
angle = 90;
pos = (616,345);
},
{
pos = (-31,1446);
showMeasurement = 1;
},
{
pos = (131,29);
showMeasurement = 1;
},
{
pos = (192,421);
showMeasurement = 1;
},
{
pos = (286,619);
showMeasurement = 1;
},
{
angle = 236.0258;
pos = (206,0);
},
{
angle = 124.2389;
pos = (1115,0);
},
{
angle = 236.0258;
pos = (361,371);
}
);
layerId = "91AB5BCA-6A50-42DA-B2F7-8181BF189245";
shapes = (
{
closed = 1;
nodes = (
(704,742,l),
(1181,1446,l),
(1085,1446,l),
(657,811,l),
(226,1446,l),
(131,1446,l),
(610,742,l),
(110,0,l),
(205,0,l),
(657,671,l),
(1114,0,l),
(1209,0,l)
);
}
);
width = 1319;
},
{
associatedMasterId = "91AB5BCA-6A50-42DA-B2F7-8181BF189245";
layerId = "34F7115A-3BD6-4676-9F65-6EC6191B3B7A";
name = bubble;
shapes = (
{
closed = 1;
nodes = (
(872,742,l),
(1303,1533,ls),
(1318,1561,o),
(1306,1581,o),
(1275,1581,cs),
(1049,1581,ls),
(1028,1581,o),
(1013,1573,o),
(1001,1555,cs),
(662,1052,l),
(320,1555,ls),
(308,1573,o),
(293,1581,o),
(272,1581,cs),
(54,1581,ls),
(23,1581,o),
(11,1561,o),
(26,1533,cs),
(452,742,l),
(24,-88,ls),
(10,-115,o),
(22,-135,o),
(53,-135,cs),
(251,-135,ls),
(273,-135,o),
(287,-127,o),
(299,-109,cs),
(663,430,l),
(1030,-109,ls),
(1042,-127,o),
(1057,-135,o),
(1079,-135,cs),
(1275,-135,ls),
(1307,-135,o),
(1319,-115,o),
(1304,-87,cs)
);
}
);
width = 1329;
}
);
unicode = 88;
},
{
glyphname = Y;
kernLeft = Y;
kernRight = Y;
lastChange = "2019-07-24 01:09:46 +0000";
layers = (
{
anchors = (
{
name = bottom;
pos = (721,0);
},
{
name = top;
pos = (771,1446);
}
);
background = {
anchors = (
{
name = top;
pos = (769,1484);
}
);
shapes = (
{
closed = 1;
nodes = (
(1114,1484,ls),
(1076,1484,o),
(1063,1476,o),
(1046,1442,cs),
(805,996,ls),
(790,972,o),
(782,974,o),
(771,998,cs),
(524,1442,ls),
(507,1474,o),
(496,1484,o),
(456,1484,cs),
(55,1484,ls),
(13,1484,o),
(-2,1460,o),
(19,1428,cs),
(486,664,ls),
(504,634,o),
(515,618,o),
(515,576,cs),
(515,50,ls),
(515,16,o),
(526,0,o),
(566,0,cs),
(902,0,ls),
(948,0,o),
(969,16,o),
(969,58,cs),
(969,550,ls),
(969,634,o),
(971,654,o),
(988,682,cs),
(1456,1438,ls),
(1473,1464,o),
(1462,1484,o),
(1429,1484,cs)
);
}
);
};
guides = (
{
angle = 58.823;
pos = (492,670);
}
);
layerId = "258ED206-D907-4350-8EBA-CBDDA1C16BF7";
metricLeft = "=X/2";
metricRight = "=X/2";
shapes = (
{
closed = 1;
nodes = (
(1004,1446,l),
(721,932,l),
(435,1446,l),
(15,1446,l),
(524,602,l),
(524,0,l),
(914,0,l),
(914,602,l),
(1429,1446,l)
);
}
);
width = 1444;
},
{
anchors = (
{
name = bottom;
pos = (552,0);
},
{
name = top;
pos = (548,1450);
}
);
background = {
anchors = (
{
name = top;
pos = (557,1484);
}
);
shapes = (
{
closed = 1;
nodes = (
(1040,1484,ls),
(1022,1484,o),
(1019,1482,o),
(1008,1466,cs),
(590,748,ls),
(574,722,o),
(561,720,o),
(542,752,cs),
(122,1466,ls),
(114,1480,o),
(108,1484,o),
(90,1484,cs),
(44,1484,ls),
(24,1484,o),
(20,1474,o),
(28,1460,cs),
(517,630,ls),
(524,616,o),
(526,610,o),
(526,590,cs),
(526,22,ls),
(526,8,o),
(532,0,o),
(550,0,cs),
(588,0,ls),
(610,0,o),
(618,8,o),
(618,26,cs),
(618,612,ls),
(618,632,o),
(618,640,o),
(626,652,cs),
(1104,1462,ls),
(1112,1474,o),
(1106,1484,o),
(1092,1484,cs)
);
}
);
};
guides = (
{
angle = 239.8907;
pos = (236,335);
},
{
angle = -59.5603;
pos = (201,328);
}
);
layerId = "91AB5BCA-6A50-42DA-B2F7-8181BF189245";
shapes = (
{
closed = 1;
nodes = (
(980,1446,l),
(552,702,l),
(116,1446,l),
(28,1446,l),
(513,624,l),
(513,0,l),
(590,0,l),
(590,622,l),
(1066,1446,l)
);
}
);
width = 1094;
},
{
associatedMasterId = "91AB5BCA-6A50-42DA-B2F7-8181BF189245";
layerId = "E6622FBA-1A7C-4E6A-8023-B86C1C934D70";
name = bubble;
shapes = (
{
closed = 1;
nodes = (
(935,1581,ls),
(913,1581,o),
(898,1573,o),
(887,1553,cs),
(552,971,l),
(210,1554,ls),
(199,1573,o),
(185,1581,o),
(163,1581,cs),
(49,1581,ls),
(20,1581,o),
(7,1563,o),
(18,1535,cs),
(379,587,l),
(379,-95,ls),
(379,-121,o),
(393,-135,o),
(419,-135,cs),
(686,-135,ls),
(712,-135,o),
(726,-121,o),
(726,-95,cs),
(726,586,l),
(1079,1535,ls),
(1089,1563,o),
(1077,1581,o),
(1047,1581,cs)
);
}
);
width = 1096;
}
);
metricLeft = "=X/4";
metricRight = "=X/4";
unicode = 89;
},
{
glyphname = Z;
kernLeft = Z;
kernRight = Z;
lastChange = "2019-07-11 16:39:40 +0000";
layers = (
{
anchors = (
{
name = bottom;
pos = (716,0);
},
{
name = top;
pos = (762,1446);
}
);
background = {
anchors = (
{
name = bottom;
pos = (711,0);
},
{
name = top;
pos = (760,1484);
}
);
shapes = (
{
closed = 1;
nodes = (
(1371,0,l),
(1371,332,l),
(689,332,l),
(1384,1308,l),
(1384,1484,l),
(136,1484,l),
(136,1154,l),
(749,1154,l),
(69,182,l),
(69,0,l)
);
}
);
};
layerId = "258ED206-D907-4350-8EBA-CBDDA1C16BF7";
shapes = (
{
closed = 1;
nodes = (
(1319,0,l),
(1319,324,l),
(636,324,l),
(1331,1276,l),
(1331,1446,l),
(153,1446,l),
(153,1126,l),
(771,1126,l),
(90,178,l),
(90,0,l)
);
}
);
width = 1399;
},
{
anchors = (
{
name = bottom;
pos = (647,0);
},
{
name = top;
pos = (633,1446);
}
);
background = {
anchors = (
{
name = bottom;
pos = (665,0);
},
{
name = top;
pos = (651,1484);
}
);
shapes = (
{
closed = 1;
nodes = (
(1129,0,l),
(1129,80,l),
(260,80,l),
(1129,1430,l),
(1129,1484,l),
(171,1484,l),
(171,1404,l),
(1012,1404,l),
(151,56,l),
(151,0,l)
);
}
);
};
guides = (
{
angle = 237.1304;
pos = (500,659);
}
);
layerId = "91AB5BCA-6A50-42DA-B2F7-8181BF189245";
shapes = (
{
closed = 1;
nodes = (
(1098,0,l),
(1098,78,l),
(245,78,l),
(1098,1386,l),
(1098,1446,l),
(165,1446,l),
(165,1368,l),
(997,1368,l),
(147,62,l),
(147,0,l)
);
}
);
width = 1208;
},
{
associatedMasterId = "91AB5BCA-6A50-42DA-B2F7-8181BF189245";
layerId = "747DDE66-E2DD-4822-B796-101AEA0108CD";
name = bubble;
shapes = (
{
closed = 1;
nodes = (
(1168,-135,ls),
(1194,-135,o),
(1208,-121,o),
(1208,-95,cs),
(1208,173,ls),
(1208,199,o),
(1194,213,o),
(1168,213,cs),
(494,213,l),
(1194,1323,ls),
(1204,1340,o),
(1208,1353,o),
(1208,1373,cs),
(1208,1541,ls),
(1208,1567,o),
(1194,1581,o),
(1168,1581,cs),
(70,1581,ls),
(44,1581,o),
(30,1567,o),
(30,1541,cs),
(30,1273,ls),
(30,1247,o),
(44,1233,o),
(70,1233,cs),
(748,1233,l),
(15,125,ls),
(4,108,o),
(0,95,o),
(0,75,cs),
(0,-95,ls),
(0,-121,o),
(14,-135,o),
(40,-135,cs)
);
}
);
width = 1208;
}
);
metricLeft = "=H/1.5";
metricRight = "=H/2";
unicode = 90;
},
{
glyphname = a;
kernLeft = a;
kernRight = n;
lastChange = "2020-01-07 05:39:49 +0000";
layers = (
{
anchors = (
{
name = bottom;
pos = (597,0);
},
{
name = ogonek;
pos = (1011,20);
},
{
name = top;
pos = (604,1034);
}
);
background = {
anchors = (
{
name = ogonek;
pos = (999,20);
},
{
name = top;
pos = (575,1060);
}
);
guides = (
{
angle = 90;
pos = (338,102);
}
);
shapes = (
{
closed = 1;
nodes = (
(661,112,o),
(677,110,o),
(681,84,cs),
(683,70,ls),
(690,32,o),
(699,0,o),
(735,0,cs),
(1009,0,ls),
(1047,0,o),
(1055,14,o),
(1055,54,cs),
(1055,750,ls),
(1055,946,o),
(945,1080,o),
(575,1080,cs),
(314,1080,o),
(131,1012,o),
(71,842,cs),
(53,792,o),
(66,782,o),
(85,778,cs),
(347,726,ls),
(383,720,o),
(391,726,o),
(401,748,cs),
(436,822,o),
(501,842,o),
(557,842,cs),
(637,842,o),
(675,800,o),
(675,726,cs),
(675,692,ls),
(675,668,o),
(655,664,o),
(646,664,cs),
(631,664,ls),
(253,664,o),
(18,506,o),
(18,272,cs),
(18,106,o),
(137,-20,o),
(337,-20,cs),
(461,-20,o),
(555,24,o),
(627,84,cs)
);
},
{
closed = 1;
nodes = (
(675,342,ls),
(675,312,o),
(653,290,o),
(629,270,cs),
(608,252,o),
(571,232,o),
(520,232,cs),
(447,232,o),
(405,270,o),
(405,326,cs),
(405,438,o),
(573,484,o),
(637,484,cs),
(646,484,ls),
(669,484,o),
(675,472,o),
(675,448,cs)
);
}
);
};
guides = (
{
angle = 270;
pos = (335,93);
},
{
angle = 270;
pos = (300,516);
}
);
layerId = "258ED206-D907-4350-8EBA-CBDDA1C16BF7";
shapes = (
{
closed = 1;
nodes = (
(564,-20,o),
(649,24,o),
(711,164,c),
(745,0,l),
(1067,0,l),
(1067,732,ls),
(1067,922,o),
(959,1054,o),
(599,1054,cs),
(333,1054,o),
(117,956,o),
(106,712,c),
(421,712,l),
(453,782,o),
(527,800,o),
(581,802,cs),
(659,804,o),
(695,774,o),
(695,708,cs),
(695,664,l),
(615,664,ls),
(239,664,o),
(66,534,o),
(66,310,cs),
(66,96,o),
(228,-20,o),
(423,-20,cs)
);
},
{
closed = 1;
nodes = (
(493,226,o),
(431,272,o),
(431,350,cs),
(431,452,o),
(571,480,o),
(633,480,cs),
(695,480,l),
(695,350,l),
(693,284,o),
(635,226,o),
(560,226,cs)
);
}
);
width = 1157;
},
{
anchors = (
{
name = bottom;
pos = (548,0);
},
{
name = ogonek;
pos = (907,28);
},
{
name = top;
pos = (549,1034);
}
);
background = {
anchors = (
{
name = ogonek;
pos = (933,28);
},
{
name = top;
pos = (563,1060);
}
);
shapes = (
{
closed = 1;
nodes = (
(857,156,o),
(865,154,o),
(867,140,cs),
(871,18,ls),
(871,4,o),
(877,0,o),
(889,0,cs),
(926,0,ls),
(937,0,o),
(945,4,o),
(945,20,cs),
(945,734,ls),
(945,950,o),
(798,1080,o),
(571,1080,cs),
(382,1080,o),
(247,986,o),
(163,862,cs),
(155,852,o),
(157,846,o),
(163,842,cs),
(211,812,ls),
(220,806,o),
(223,810,o),
(231,820,cs),
(321,940,o),
(430,1004,o),
(567,1004,cs),
(747,1004,o),
(865,896,o),
(865,726,cs),
(865,664,ls),
(865,646,o),
(853,636,o),
(831,634,cs),
(621,616,ls),
(293,588,o),
(127,472,o),
(127,270,cs),
(127,90,o),
(258,-20,o),
(468,-20,cs),
(615,-20,o),
(737,34,o),
(847,144,cs)
);
},
{
closed = 1;
nodes = (
(865,342,ls),
(865,282,o),
(825,214,o),
(751,154,cs),
(676,94,o),
(577,56,o),
(479,56,cs),
(317,56,o),
(211,138,o),
(211,276,cs),
(211,430,o),
(346,522,o),
(659,546,cs),
(838,560,ls),
(855,562,o),
(865,554,o),
(865,532,cs)
);
}
);
};
guides = (
{
pos = (377,208);
showMeasurement = 1;
}
);
hints = (
{
horizontal = 1;
place = (7662, 362);
place = (7662, 362);
type = Stem;
}
);
layerId = "91AB5BCA-6A50-42DA-B2F7-8181BF189245";
shapes = (
{
closed = 1;
nodes = (
(605,-20,o),
(754,38,o),
(844,210,c),
(847,0,l),
(919,0,l),
(919,716,ls),
(919,946,o),
(771,1054,o),
(550,1054,cs),
(307,1054,o),
(185,936,o),
(174,758,c),
(258,758,l),
(280,908,o),
(393,978,o),
(546,978,cs),
(747,978,o),
(842,872,o),
(842,714,cs),
(842,614,l),
(603,606,ls),
(260,594,o),
(121,496,o),
(121,264,cs),
(121,88,o),
(249,-20,o),
(453,-20,cs)
);
},
{
closed = 1;
nodes = (
(307,54,o),
(203,134,o),
(203,270,cs),
(203,450,o),
(311,526,o),
(641,532,cs),
(842,536,l),
(842,334,ls),
(842,194,o),
(638,54,o),
(466,54,cs)
);
}
);
width = 1079;
}
);
metricLeft = "=o*1.1";
metricRight = n;
unicode = 97;
},
{
glyphname = ae;
kernLeft = a;
kernRight = o;
lastChange = "2020-01-07 05:56:06 +0000";
layers = (
{
anchors = (
{
name = bottom;
pos = (597,0);
},
{
name = ogonek;
pos = (1011,20);
},
{
name = top;
pos = (856,1034);
}
);
background = {
anchors = (
{
name = top;
pos = (942,1060);
}
);
shapes = (
{
closed = 1;
nodes = (
(1785,458,ls),
(1820,460,o),
(1822,474,o),
(1822,508,cs),
(1822,870,o),
(1591,1080,o),
(1278,1080,cs),
(1173,1080,o),
(1074,1052,o),
(988,1000,c),
(911,1050,o),
(793,1078,o),
(616,1080,cs),
(310,1080,o),
(196,998,o),
(119,842,cs),
(110,820,o),
(116,782,o),
(133,778,cs),
(396,726,ls),
(432,720,o),
(440,722,o),
(450,748,c),
(484,822,o),
(549,842,o),
(606,842,cs),
(686,842,o),
(724,800,o),
(724,726,cs),
(724,692,ls),
(724,668,o),
(703,664,o),
(688,664,c),
(642,662,ls),
(257,644,o),
(66,500,o),
(66,286,cs),
(66,104,o),
(186,-20,o),
(411,-20,cs),
(596,-20,o),
(726,24,o),
(848,142,cs),
(856,150,o),
(862,150,o),
(869,142,cs),
(969,40,o),
(1117,-20,o),
(1285,-20,cs),
(1509,-20,o),
(1646,34,o),
(1789,236,c),
(1808,258,o),
(1801,276,o),
(1782,284,cs),
(1600,358,ls),
(1574,368,o),
(1568,366,o),
(1558,356,cs),
(1469,270,o),
(1408,244,o),
(1339,244,cs),
(1224,244,o),
(1133,302,o),
(1133,424,cs),
(1133,448,o),
(1144,458,o),
(1163,458,cs)
);
},
{
closed = 1;
nodes = (
(1396,846,o),
(1434,744,o),
(1434,692,cs),
(1434,668,o),
(1425,664,o),
(1400,664,cs),
(1140,666,l),
(1138,790,o),
(1213,846,o),
(1295,846,cs)
);
},
{
closed = 1;
nodes = (
(724,320,ls),
(724,254,o),
(650,216,o),
(574,216,cs),
(495,216,o),
(453,254,o),
(453,312,cs),
(453,410,o),
(583,460,o),
(659,466,cs),
(688,468,ls),
(711,468,o),
(724,456,o),
(724,432,cs)
);
}
);
};
layerId = "258ED206-D907-4350-8EBA-CBDDA1C16BF7";
shapes = (
{
closed = 1;
nodes = (
(671,-20,o),
(784,58,o),
(836,197,c),
(1068,732,l),
(1068,922,o),
(959,1054,o),
(599,1054,cs),
(333,1054,o),
(117,956,o),
(106,712,c),
(421,712,l),
(453,782,o),
(528,800,o),
(581,802,cs),
(659,804,o),
(696,774,o),
(696,708,cs),
(696,664,l),
(616,664,ls),
(240,664,o),
(66,534,o),
(66,310,cs),
(66,96,o),
(228,-20,o),
(423,-20,cs)
);
},
{
closed = 1;
nodes = (
(493,226,o),
(431,272,o),
(431,350,cs),
(431,452,o),
(572,480,o),
(633,480,cs),
(696,480,l),
(696,350,l),
(694,284,o),
(635,226,o),
(560,226,cs)
);
},
{
pos = (656,0);
ref = e;
}
);
width = 1826;
},
{
anchors = (
{
name = bottom;
pos = (548,0);
},
{
name = ogonek;
pos = (907,28);
},
{
name = top;
pos = (883,1034);
}
);
background = {
anchors = (
{
name = top;
pos = (1062,1060);
}
);
shapes = (
{
closed = 1;
nodes = (
(1883,508,ls),
(1910,508,o),
(1918,522,o),
(1918,548,cs),
(1918,888,o),
(1734,1080,o),
(1460,1080,cs),
(1272,1080,o),
(1129,1000,o),
(1049,842,c),
(1009,1002,o),
(896,1080,o),
(698,1080,cs),
(528,1080,o),
(374,1000,o),
(288,862,cs),
(282,852,o),
(282,846,o),
(288,842,cs),
(332,812,ls),
(341,806,o),
(345,808,o),
(354,820,cs),
(446,940,o),
(555,1004,o),
(682,1004,cs),
(883,1004,o),
(990,896,o),
(990,726,cs),
(990,664,ls),
(990,646,o),
(978,636,o),
(954,634,cs),
(730,616,ls),
(404,588,o),
(252,468,o),
(252,272,cs),
(252,90,o),
(376,-20,o),
(584,-20,cs),
(846,-20,o),
(963,124,o),
(1034,216,cs),
(1038,222,o),
(1040,222,o),
(1044,216,cs),
(1102,130,o),
(1210,-20,o),
(1454,-20,cs),
(1648,-20,o),
(1810,74,o),
(1879,200,cs),
(1885,212,o),
(1883,216,o),
(1876,220,cs),
(1832,250,ls),
(1822,256,o),
(1820,254,o),
(1810,242,cs),
(1752,162,o),
(1666,56,o),
(1458,56,cs),
(1234,56,o),
(1058,268,o),
(1058,456,cs),
(1058,498,o),
(1064,506,o),
(1098,506,cs)
);
},
{
closed = 1;
nodes = (
(1675,1004,o),
(1832,828,o),
(1832,612,cs),
(1832,588,o),
(1830,580,o),
(1799,580,cs),
(1062,582,l),
(1064,836,o),
(1234,1004,o),
(1454,1004,cs)
);
},
{
closed = 1;
nodes = (
(990,354,l),
(990,198,o),
(818,68,o),
(604,58,cs),
(436,50,o),
(339,142,o),
(339,276,cs),
(339,430,o),
(471,520,o),
(770,544,cs),
(960,558,ls),
(986,560,o),
(990,550,o),
(990,530,cs)
);
}
);
};
hints = (
{
horizontal = 1;
place = (7662, 362);
place = (7662, 362);
type = Stem;
},
{
horizontal = 1;
place = (7662, 362);
place = (7662, 362);
type = Stem;
}
);
layerId = "91AB5BCA-6A50-42DA-B2F7-8181BF189245";
shapes = (
{
closed = 1;
nodes = (
(664,-20,o),
(890,115,o),
(890,316,c),
(919,716,l),
(919,926,o),
(769,1054,o),
(550,1054,cs),
(309,1054,o),
(183,904,o),
(174,758,c),
(258,758,l),
(279,900,o),
(395,978,o),
(546,978,cs),
(721,978,o),
(842,880,o),
(842,714,cs),
(842,614,l),
(603,606,ls),
(260,594,o),
(121,496,o),
(121,264,cs),
(121,88,o),
(249,-20,o),
(453,-20,cs)
);
},
{
closed = 1;
nodes = (
(307,54,o),
(203,134,o),
(203,270,cs),
(203,450,o),
(311,526,o),
(641,532,cs),
(842,536,l),
(842,383,ls),
(842,243,o),
(696,54,o),
(466,54,cs)
);
},
{
alignment = -1;
pos = (715,0);
ref = e;
}
);
width = 1829;
}
);
metricLeft = a;
metricRight = e;
unicode = 230;
},
{
glyphname = b;
kernLeft = n;
kernRight = o;
lastChange = "2020-01-07 05:56:03 +0000";
layers = (
{
anchors = (
{
name = bottom;
pos = (730,0);
}
);
background = {
shapes = (
{
closed = 1;
nodes = (
(367,0,o),
(383,14,o),
(393,46,cs),
(425,140,ls),
(431,156,o),
(440,158,o),
(451,146,cs),
(530,44,o),
(637,-20,o),
(763,-20,cs),
(1055,-20,o),
(1217,198,o),
(1217,538,cs),
(1217,872,o),
(1066,1080,o),
(805,1080,cs),
(715,1080,o),
(633,1054,o),
(551,976,cs),
(531,960,o),
(513,960,o),
(513,992,cs),
(513,1442,ls),
(513,1468,o),
(501,1484,o),
(478,1484,cs),
(152,1484,ls),
(129,1484,o),
(114,1468,o),
(114,1438,cs),
(114,50,ls),
(114,16,o),
(125,0,o),
(167,0,cs),
(341,0,ls)
);
},
{
closed = 1;
nodes = (
(553,806,o),
(599,836,o),
(661,836,cs),
(759,836,o),
(814,762,o),
(814,530,cs),
(814,296,o),
(759,214,o),
(656,214,cs),
(572,214,o),
(513,270,o),
(513,370,cs),
(513,756,l)
);
}
);
};
layerId = "258ED206-D907-4350-8EBA-CBDDA1C16BF7";
shapes = (
{
closed = 1;
nodes = (
(1020,-20,o),
(1178,194,o),
(1178,524,cs),
(1178,850,o),
(1030,1054,o),
(776,1054,cs),
(673,1054,o),
(554,1022,o),
(490,916,c),
(490,1486,l),
(100,1486,l),
(100,0,l),
(375,0,l),
(421,212,l),
(468,68,o),
(566,-20,o),
(734,-20,cs)
);
},
{
closed = 1;
nodes = (
(551,252,o),
(490,320,o),
(490,524,cs),
(490,708,o),
(551,780,o),
(642,780,cs),
(730,780,o),
(802,716,o),
(802,524,cs),
(802,320,o),
(730,252,o),
(642,252,c)
);
}
);
width = 1238;
},
{
anchors = (
{
name = bottom;
pos = (619,0);
}
);
background = {
shapes = (
{
closed = 1;
nodes = (
(333,0,o),
(339,6,o),
(339,26,cs),
(343,128,ls),
(343,146,o),
(352,148,o),
(363,134,cs),
(386,100,o),
(487,-20,o),
(692,-20,cs),
(980,-20,o),
(1148,192,o),
(1148,534,cs),
(1148,832,o),
(1020,1080,o),
(715,1080,cs),
(503,1080,o),
(390,964,o),
(371,946,cs),
(352,930,o),
(344,930,o),
(344,956,cs),
(344,1462,ls),
(344,1478,o),
(341,1484,o),
(329,1484,cs),
(283,1484,ls),
(270,1484,o),
(264,1478,o),
(264,1464,cs),
(264,26,ls),
(264,6,o),
(270,0,o),
(287,0,cs),
(308,0,ls)
);
},
{
closed = 1;
nodes = (
(425,926,o),
(552,1004,o),
(701,1004,cs),
(936,1004,o),
(1062,818,o),
(1062,534,cs),
(1062,206,o),
(892,56,o),
(684,56,cs),
(516,56,o),
(344,192,o),
(344,354,cs),
(344,830,l)
);
}
);
};
layerId = "91AB5BCA-6A50-42DA-B2F7-8181BF189245";
shapes = (
{
closed = 1;
nodes = (
(921,-20,o),
(1060,196,o),
(1060,520,cs),
(1060,883,o),
(887,1054,o),
(627,1054,cs),
(380,1054,o),
(278,893,o),
(260,846,c),
(260,1486,l),
(180,1486,l),
(180,0,l),
(252,0,l),
(258,212,l),
(273,164,o),
(346,-20,o),
(627,-20,cs)
);
},
{
closed = 1;
nodes = (
(354,54,o),
(260,200,o),
(260,533,cs),
(264,805,o),
(354,978,o),
(619,978,cs),
(860,978,o),
(974,800,o),
(974,533,cs),
(974,207,o),
(834,54,o),
(625,54,cs)
);
}
);
width = 1170;
}
);
metricLeft = n;
metricRight = o;
unicode = 98;
},
{
glyphname = c;
kernLeft = o;
kernRight = o;
lastChange = "2020-01-07 05:56:06 +0000";
layers = (
{
anchors = (
{
name = bottom;
pos = (579,0);
},
{
name = top;
pos = (578,1034);
}
);
background = {
anchors = (
{
name = bottom;
pos = (556,0);
},
{
name = top;
pos = (558,1060);
}
);
shapes = (
{
closed = 1;
nodes = (
(241,1080,o),
(4,856,o),
(4,526,cs),
(4,202,o),
(238,-20,o),
(558,-20,cs),
(882,-20,o),
(1014,210,o),
(1033,314,cs),
(1042,344,o),
(1037,356,o),
(1016,360,cs),
(827,396,ls),
(802,400,o),
(794,396,o),
(787,386,cs),
(738,296,o),
(699,228,o),
(590,228,cs),
(476,228,o),
(407,308,o),
(407,530,cs),
(407,744,o),
(470,828,o),
(568,828,cs),
(663,828,o),
(682,752,o),
(690,702,cs),
(694,680,o),
(701,672,o),
(724,674,cs),
(997,688,ls),
(1032,690,o),
(1044,706,o),
(1033,740,cs),
(1002,894,o),
(844,1080,o),
(558,1080,cs)
);
}
);
};
guides = (
{
angle = -0.5577;
pos = (-470,167);
},
{
pos = (534,123);
},
{
angle = 3.769;
pos = (429,307);
}
);
layerId = "258ED206-D907-4350-8EBA-CBDDA1C16BF7";
shapes = (
{
closed = 1;
nodes = (
(282,1054,o),
(60,832,o),
(60,512,cs),
(60,196,o),
(285,-20,o),
(581,-20,cs),
(864,-20,o),
(1030,180,o),
(1030,400,c),
(724,400,l),
(718,358,o),
(690,248,o),
(592,248,cs),
(491,248,o),
(418,346,o),
(418,516,cs),
(418,682,o),
(484,766,o),
(584,766,cs),
(684,766,o),
(712,670,o),
(720,612,c),
(1035,612,l),
(1030,844,o),
(873,1054,o),
(581,1054,cs)
);
}
);
width = 1101;
},
{
anchors = (
{
name = bottom;
pos = (564,0);
},
{
name = top;
pos = (565,1034);
}
);
background = {
anchors = (
{
name = bottom;
pos = (580,0);
},
{
name = top;
pos = (576,1060);
}
);
shapes = (
{
closed = 1;
nodes = (
(296,1080,o),
(99,850,o),
(99,526,cs),
(99,200,o),
(292,-20,o),
(578,-20,cs),
(748,-20,o),
(893,58,o),
(988,214,cs),
(992,222,o),
(990,230,o),
(984,234,cs),
(938,264,ls),
(931,270,o),
(927,268,o),
(918,256,cs),
(830,120,o),
(723,56,o),
(586,56,cs),
(343,56,o),
(183,246,o),
(183,530,cs),
(183,814,o),
(343,1004,o),
(588,1004,cs),
(700,1004,o),
(790,956,o),
(900,822,cs),
(908,812,o),
(916,810,o),
(923,814,cs),
(971,846,ls),
(976,850,o),
(978,854,o),
(971,866,cs),
(878,998,o),
(757,1080,o),
(578,1080,cs)
);
}
);
};
layerId = "91AB5BCA-6A50-42DA-B2F7-8181BF189245";
metricRight = "=e";
shapes = (
{
closed = 1;
nodes = (
(255,1054,o),
(110,837,o),
(110,514,cs),
(110,150,o),
(291,-20,o),
(562,-20,cs),
(748,-20,o),
(917,75,o),
(958,276,c),
(873,276,l),
(849,140,o),
(726,54,o),
(562,54,cs),
(313,54,o),
(193,239,o),
(193,514,cs),
(193,830,o),
(345,978,o),
(562,978,cs),
(726,978,o),
(849,892,o),
(873,756,c),
(958,756,l),
(917,957,o),
(748,1054,o),
(562,1054,cs)
);
}
);
width = 1079;
}
);
metricLeft = o;
metricRight = e;
unicode = 99;
},
{
glyphname = d;
kernLeft = o;
kernRight = u;
lastChange = "2020-01-07 05:39:49 +0000";
layers = (
{
anchors = (
{
name = bottom;
pos = (544,0);
},
{
name = caron;
pos = (1149,1458);
},
{
name = center;
pos = (607,516);
}
);
background = {
anchors = (
{
name = bottom;
pos = (584,0);
},
{
name = center;
pos = (584,530);
},
{
name = topright;
pos = (1157,1060);
}
);
shapes = (
{
closed = 1;
nodes = (
(1067,0,ls),
(1109,0,o),
(1120,16,o),
(1120,50,cs),
(1120,1438,ls),
(1120,1468,o),
(1104,1484,o),
(1082,1484,cs),
(758,1484,ls),
(735,1484,o),
(722,1468,o),
(722,1442,cs),
(722,992,ls),
(722,960,o),
(704,960,o),
(684,976,cs),
(602,1056,o),
(527,1080,o),
(436,1080,cs),
(216,1080,o),
(16,862,o),
(16,526,cs),
(16,164,o),
(180,-20,o),
(416,-20,cs),
(540,-20,o),
(618,20,o),
(697,92,cs),
(710,104,o),
(726,102,o),
(726,84,cs),
(726,46,ls),
(726,12,o),
(750,0,o),
(777,0,cs)
);
},
{
closed = 1;
nodes = (
(720,352,ls),
(720,274,o),
(658,220,o),
(580,220,cs),
(478,220,o),
(420,298,o),
(420,528,cs),
(420,760,o),
(487,832,o),
(580,832,cs),
(642,832,o),
(678,806,o),
(720,756,c)
);
}
);
};
layerId = "258ED206-D907-4350-8EBA-CBDDA1C16BF7";
shapes = (
{
closed = 1;
nodes = (
(672,-20,o),
(770,68,o),
(817,212,c),
(863,0,l),
(1138,0,l),
(1138,1486,l),
(748,1486,l),
(748,916,l),
(684,1022,o),
(565,1054,o),
(462,1054,cs),
(208,1054,o),
(60,850,o),
(60,524,cs),
(60,194,o),
(218,-20,o),
(504,-20,cs)
);
},
{
closed = 1;
nodes = (
(508,252,o),
(436,320,o),
(436,524,cs),
(436,716,o),
(508,780,o),
(596,780,cs),
(687,780,o),
(748,708,o),
(748,524,cs),
(748,320,o),
(687,252,o),
(596,252,c)
);
}
);
width = 1238;
},
{
anchors = (
{
name = bottom;
pos = (545,0);
},
{
name = caron;
pos = (981,1458);
},
{
name = center;
pos = (598,516);
}
);
background = {
anchors = (
{
name = bottom;
pos = (589,0);
},
{
name = center;
pos = (613,530);
},
{
name = topright;
pos = (1239,1484);
}
);
shapes = (
{
closed = 1;
nodes = (
(963,0,ls),
(981,0,o),
(987,6,o),
(987,24,cs),
(987,1466,ls),
(987,1478,o),
(981,1484,o),
(972,1484,cs),
(925,1484,ls),
(911,1484,o),
(907,1478,o),
(907,1464,cs),
(907,986,ls),
(907,960,o),
(903,952,o),
(879,972,cs),
(817,1020,o),
(731,1080,o),
(585,1080,cs),
(291,1080,o),
(100,850,o),
(100,510,cs),
(100,156,o),
(306,-20,o),
(562,-20,cs),
(753,-20,o),
(856,98,o),
(888,132,cs),
(903,148,o),
(911,146,o),
(911,124,cs),
(911,22,ls),
(911,8,o),
(917,0,o),
(932,0,cs)
);
},
{
closed = 1;
nodes = (
(907,340,ls),
(907,220,o),
(764,56,o),
(571,56,cs),
(367,56,o),
(184,200,o),
(184,518,cs),
(184,822,o),
(354,1004,o),
(587,1004,cs),
(709,1004,o),
(810,948,o),
(907,852,c)
);
}
);
};
layerId = "91AB5BCA-6A50-42DA-B2F7-8181BF189245";
shapes = (
{
closed = 1;
nodes = (
(824,-20,o),
(897,164,o),
(912,212,c),
(918,0,l),
(990,0,l),
(990,1486,l),
(910,1486,l),
(910,846,l),
(892,893,o),
(790,1054,o),
(543,1054,cs),
(249,1054,o),
(110,840,o),
(110,520,cs),
(110,153,o),
(283,-20,o),
(543,-20,cs)
);
},
{
closed = 1;
nodes = (
(308,54,o),
(196,246,o),
(196,533,cs),
(196,836,o),
(338,978,o),
(551,978,cs),
(816,978,o),
(906,805,o),
(910,533,cs),
(910,200,o),
(816,54,o),
(545,54,cs)
);
}
);
width = 1170;
}
);
metricLeft = o;
metricRight = "=|n";
unicode = 100;
},
{
glyphname = eth;
kernLeft = o;
kernRight = o;
lastChange = "2020-01-07 05:56:03 +0000";
layers = (
{
background = {
shapes = (
{
closed = 1;
nodes = (
(1140,880,o),
(990,1164,o),
(741,1338,c),
(834,1390,ls),
(846,1398,o),
(848,1408,o),
(842,1418,cs),
(800,1494,ls),
(792,1504,o),
(778,1508,o),
(764,1498,cs),
(614,1414,l),
(539,1452,o),
(458,1480,o),
(371,1500,cs),
(348,1506,o),
(344,1504,o),
(329,1492,cs),
(161,1354,ls),
(148,1342,o),
(154,1330,o),
(166,1326,cs),
(226,1306,o),
(280,1282,o),
(329,1256,c),
(188,1178,ls),
(174,1172,o),
(168,1156,o),
(184,1134,cs),
(214,1086,ls),
(228,1064,o),
(240,1060,o),
(262,1072,cs),
(453,1180,l),
(510,1138,o),
(548,1102,o),
(586,1050,cs),
(590,1044,o),
(590,1040,o),
(581,1040,cs),
(266,1040,o),
(24,818,o),
(24,504,cs),
(24,206,o),
(252,-20,o),
(579,-20,cs),
(913,-20,o),
(1140,204,o),
(1140,564,cs)
);
},
{
closed = 1;
nodes = (
(476,236,o),
(428,324,o),
(428,512,cs),
(428,702,o),
(476,792,o),
(581,792,cs),
(690,792,o),
(736,702,o),
(736,512,cs),
(736,326,o),
(690,236,o),
(581,236,cs)
);
}
);
};
layerId = "258ED206-D907-4350-8EBA-CBDDA1C16BF7";
shapes = (
{
closed = 1;
nodes = (
(928,-20,o),
(1148,208,o),
(1148,560,cs),
(1148,1002,o),
(1004,1349,o),
(740,1481,c),
(277,1481,l),
(361,1414,o),
(711,1278,o),
(892,853,c),
(813,964,o),
(687,1016,o),
(559,1016,cs),
(314,1016,o),
(60,851,o),
(60,492,cs),
(60,200,o),
(283,-20,o),
(602,-20,cs)
);
},
{
closed = 1;
nodes = (
(460,262,o),
(438,414,o),
(438,524,cs),
(438,636,o),
(460,776,o),
(586,776,cs),
(710,776,o),
(732,636,o),
(732,524,cs),
(732,414,o),
(710,262,o),
(586,262,cs)
);
},
{
closed = 1;
nodes = (
(1053,1254,l),
(1053,1487,l),
(277,1255,l),
(277,1021,l)
);
}
);
width = 1208;
},
{
background = {
shapes = (
{
closed = 1;
nodes = (
(1067,844,o),
(957,1126,o),
(644,1338,c),
(825,1438,ls),
(831,1442,o),
(831,1448,o),
(827,1454,cs),
(803,1498,ls),
(801,1502,o),
(791,1504,o),
(785,1500,cs),
(577,1384,l),
(507,1426,o),
(432,1462,o),
(345,1498,cs),
(327,1506,o),
(321,1502,o),
(308,1494,cs),
(272,1470,ls),
(263,1462,o),
(264,1452,o),
(275,1448,cs),
(359,1414,o),
(432,1378,o),
(501,1340,c),
(191,1166,ls),
(184,1162,o),
(181,1156,o),
(188,1144,cs),
(207,1116,ls),
(215,1104,o),
(221,1100,o),
(233,1106,cs),
(569,1296,l),
(741,1180,o),
(847,1046,o),
(909,902,c),
(823,988,o),
(705,1040,o),
(562,1040,cs),
(291,1040,o),
(95,816,o),
(95,504,cs),
(95,196,o),
(289,-20,o),
(577,-20,cs),
(885,-20,o),
(1067,202,o),
(1067,510,cs)
);
},
{
closed = 1;
nodes = (
(352,56,o),
(179,256,o),
(179,508,cs),
(179,760,o),
(352,964,o),
(583,964,cs),
(810,964,o),
(983,762,o),
(983,508,cs),
(983,254,o),
(814,56,o),
(585,56,cs)
);
}
);
};
layerId = "91AB5BCA-6A50-42DA-B2F7-8181BF189245";
shapes = (
{
closed = 1;
nodes = (
(864,-20,o),
(1033,212,o),
(1039,514,cs),
(1049,985,o),
(991,1267,o),
(625,1480,c),
(535,1441,l),
(730,1343,o),
(930,1180,o),
(950,844,c),
(904,955,o),
(806,1054,o),
(580,1054,cs),
(294,1054,o),
(110,830,o),
(110,514,cs),
(110,214,o),
(292,-20,o),
(580,-20,cs)
);
},
{
closed = 1;
nodes = (
(338,54,o),
(192,268,o),
(192,514,cs),
(192,792,o),
(340,978,o),
(580,978,cs),
(831,978,o),
(957,818,o),
(957,514,cs),
(957,266,o),
(820,54,o),
(580,54,cs)
);
},
{
closed = 1;
nodes = (
(1015,1352,l),
(1015,1440,l),
(473,1218,l),
(473,1129,l)
);
}
);
width = 1150;
}
);
metricLeft = o;
metricRight = o;
unicode = 240;
},
{
glyphname = dcroat;
kernLeft = o;
lastChange = "2019-07-24 01:09:46 +0000";
layers = (
{
background = {
shapes = (
{
closed = 1;
nodes = (
(1150,1360,o),
(1138,1374,o),
(1118,1374,cs),
(440,1374,ls),
(420,1374,o),
(408,1360,o),
(408,1334,cs),
(408,1204,ls),
(408,1174,o),
(418,1160,o),
(452,1160,cs),
(1092,1160,ls),
(1132,1160,o),
(1150,1174,o),
(1150,1208,cs),
(1150,1338,ls)
);
},
{
pos = (-38,0);
ref = d;
}
);
};
layerId = "258ED206-D907-4350-8EBA-CBDDA1C16BF7";
shapes = (
{
closed = 1;
nodes = (
(534,1340,l),
(534,1132,l),
(1258,1132,l),
(1258,1340,l)
);
},
{
ref = d;
}
);
width = 1318;
},
{
background = {
shapes = (
{
closed = 1;
nodes = (
(1162,1320,o),
(1158,1324,o),
(1152,1324,cs),
(594,1324,ls),
(588,1324,o),
(584,1320,o),
(584,1310,cs),
(584,1270,ls),
(584,1258,o),
(586,1254,o),
(598,1254,cs),
(1142,1254,ls),
(1156,1254,o),
(1162,1258,o),
(1162,1270,cs),
(1162,1312,ls)
);
},
{
pos = (4,0);
ref = d;
}
);
};
layerId = "91AB5BCA-6A50-42DA-B2F7-8181BF189245";
shapes = (
{
closed = 1;
nodes = (
(568,1290,l),
(568,1222,l),
(1130,1222,l),
(1130,1290,l)
);
},
{
ref = d;
}
);
width = 1190;
}
);
metricLeft = d;
unicode = 273;
},
{
glyphname = e;
kernLeft = o;
kernRight = o;
lastChange = "2020-01-07 18:10:25 +0000";
layers = (
{
anchors = (
{
name = bottom;
pos = (600,0);
},
{
name = ogonek;
pos = (850,50);
},
{
name = top;
pos = (594,1034);
}
);
background = {
anchors = (
{
name = bottom;
pos = (575,0);
},
{
name = ogonek;
pos = (833,52);
},
{
name = top;
pos = (570,1060);
}
);
shapes = (
{
closed = 1;
nodes = (
(422,448,o),
(432,458,o),
(451,458,cs),
(1074,458,ls),
(1108,460,o),
(1110,474,o),
(1110,508,cs),
(1110,870,o),
(879,1080,o),
(566,1080,cs),
(270,1080,o),
(10,852,o),
(10,512,cs),
(10,198,o),
(253,-20,o),
(574,-20,cs),
(798,-20,o),
(934,34,o),
(1077,236,cs),
(1096,258,o),
(1090,276,o),
(1070,284,cs),
(888,358,ls),
(862,368,o),
(856,366,o),
(846,356,cs),
(758,270,o),
(696,244,o),
(627,244,cs),
(512,244,o),
(422,302,o),
(422,424,cs)
);
},
{
closed = 1;
nodes = (
(426,790,o),
(501,846,o),
(583,846,cs),
(684,846,o),
(722,744,o),
(722,692,cs),
(722,668,o),
(714,664,o),
(688,664,cs),
(428,666,l)
);
}
);
};
layerId = "258ED206-D907-4350-8EBA-CBDDA1C16BF7";
shapes = (
{
closed = 1;
nodes = (
(1100,428,l),
(1100,518,l),
(1100,824,o),
(930,1054,o),
(592,1054,cs),
(260,1054,o),
(66,800,o),
(66,504,cs),
(66,190,o),
(285,-20,o),
(608,-20,cs),
(837,-20,o),
(1072,122,o),
(1104,352,c),
(760,352,l),
(728,272,o),
(669,252,o),
(598,252,cs),
(514,252,o),
(446,304,o),
(448,428,c)
);
},
{
closed = 1;
nodes = (
(446,724,o),
(512,792,o),
(592,792,cs),
(690,792,o),
(741,724,o),
(741,646,c),
(446,646,l)
);
}
);
width = 1170;
},
{
anchors = (
{
name = bottom;
pos = (567,0);
},
{
name = ogonek;
pos = (755,36);
},
{
name = top;
pos = (569,1034);
}
);
background = {
anchors = (
{
name = bottom;
pos = (591,0);
},
{
name = ogonek;
pos = (777,36);
},
{
name = top;
pos = (585,1060);
}
);
shapes = (
{
closed = 1;
nodes = (
(187,494,o),
(191,508,o),
(199,508,cs),
(1021,508,ls),
(1051,508,o),
(1047,532,o),
(1047,548,cs),
(1047,884,o),
(871,1080,o),
(589,1080,cs),
(307,1080,o),
(103,872,o),
(103,522,cs),
(103,200,o),
(301,-20,o),
(589,-20,cs),
(777,-20,o),
(917,54,o),
(1009,200,cs),
(1015,208,o),
(1013,216,o),
(1007,220,cs),
(961,250,ls),
(953,256,o),
(947,254,o),
(939,242,cs),
(867,122,o),
(749,56,o),
(589,56,cs),
(365,56,o),
(187,254,o),
(187,480,cs)
);
},
{
closed = 1;
nodes = (
(187,780,o),
(323,1004,o),
(587,1004,cs),
(819,1004,o),
(963,828,o),
(963,608,cs),
(963,586,o),
(957,580,o),
(929,580,cs),
(189,580,l)
);
}
);
};
guides = (
{
angle = 88.4926;
pos = (242,483);
}
);
layerId = "91AB5BCA-6A50-42DA-B2F7-8181BF189245";
shapes = (
{
closed = 1;
nodes = (
(993,498,l),
(993,554,l),
(993,872,o),
(836,1054,o),
(569,1054,cs),
(284,1054,o),
(121,850,o),
(121,508,cs),
(121,170,o),
(309,-20,o),
(581,-20,cs),
(767,-20,o),
(940,75,o),
(981,276,c),
(896,276,l),
(872,140,o),
(745,56,o),
(581,56,cs),
(319,56,o),
(206,264,o),
(206,498,c)
);
},
{
closed = 1;
nodes = (
(206,768,o),
(313,978,o),
(567,978,cs),
(801,978,o),
(910,804,o),
(910,574,c),
(208,574,l)
);
}
);
width = 1114;
}
);
metricLeft = "=o*1.1";
metricRight = "=o*1.1";
unicode = 101;
},
{
glyphname = f;
kernLeft = f;
kernRight = f;
lastChange = "2020-01-08 05:47:11 +0000";
layers = (
{
background = {
shapes = (
{
closed = 1;
nodes = (
(580,1060,ls),
(564,1060,o),
(554,1066,o),
(554,1086,cs),
(554,1122,ls),
(554,1178,o),
(598,1224,o),
(644,1224,cs),
(730,1224,ls),
(754,1224,o),
(766,1242,o),
(766,1264,c),
(764,1432,l),
(764,1464,o),
(744,1484,o),
(706,1484,cs),
(480,1484,ls),
(286,1484,o),
(164,1376,o),
(164,1202,cs),
(164,1096,ls),
(164,1070,o),
(158,1060,o),
(136,1060,cs),
(40,1060,ls),
(6,1060,o),
(-8,1040,o),
(-8,1016,cs),
(-8,828,ls),
(-8,800,o),
(8,790,o),
(36,790,cs),
(148,790,ls),
(160,790,o),
(164,784,o),
(164,770,cs),
(164,40,ls),
(164,14,o),
(178,0,o),
(200,0,cs),
(526,0,ls),
(550,0,o),
(564,14,o),
(564,44,cs),
(564,766,ls),
(564,782,o),
(574,790,o),
(588,790,cs),
(712,790,ls),
(738,790,o),
(756,800,o),
(756,828,cs),
(756,1016,ls),
(756,1040,o),
(740,1060,o),
(706,1060,cs)
);
}
);
};
layerId = "258ED206-D907-4350-8EBA-CBDDA1C16BF7";
metricLeft = "=t";
metricRight = "=x";
shapes = (
{
closed = 1;
nodes = (
(578,1034,l),
(578,1094,ls),
(578,1170,o),
(600,1194,o),
(664,1194,cs),
(784,1194,l),
(782,1446,l),
(506,1446,ls),
(316,1446,o),
(196,1342,o),
(196,1172,cs),
(196,1034,l),
(30,1034,l),
(30,770,l),
(196,770,l),
(196,0,l),
(586,0,l),
(586,770,l),
(774,770,l),
(774,1034,l)
);
}
);
width = 794;
},
{
background = {
shapes = (
{
closed = 1;
nodes = (
(444,1060,ls),
(434,1060,o),
(430,1064,o),
(430,1074,cs),
(430,1254,ls),
(430,1356,o),
(456,1414,o),
(556,1414,cs),
(716,1414,ls),
(726,1414,o),
(732,1418,o),
(732,1428,cs),
(732,1470,ls),
(732,1480,o),
(728,1484,o),
(720,1484,cs),
(576,1484,ls),
(416,1484,o),
(350,1400,o),
(350,1236,cs),
(350,1074,ls),
(350,1064,o),
(346,1060,o),
(336,1060,cs),
(110,1060,ls),
(102,1060,o),
(98,1056,o),
(98,1048,cs),
(98,1002,ls),
(98,994,o),
(102,990,o),
(110,990,cs),
(338,990,ls),
(346,990,o),
(350,984,o),
(350,976,cs),
(350,20,ls),
(350,6,o),
(354,0,o),
(366,0,cs),
(412,0,ls),
(424,0,o),
(430,6,o),
(430,22,cs),
(430,976,ls),
(430,986,o),
(434,990,o),
(444,990,cs),
(710,990,ls),
(718,990,o),
(722,994,o),
(722,1002,cs),
(722,1048,ls),
(722,1056,o),
(718,1060,o),
(712,1060,cs)
);
}
);
};
layerId = "91AB5BCA-6A50-42DA-B2F7-8181BF189245";
shapes = (
{
closed = 1;
nodes = (
(418,1034,l),
(418,1222,ls),
(418,1322,o),
(444,1378,o),
(540,1378,cs),
(712,1378,l),
(712,1446,l),
(560,1446,ls),
(404,1446,o),
(340,1366,o),
(340,1206,cs),
(340,1034,l),
(94,1034,l),
(94,966,l),
(340,966,l),
(340,0,l),
(418,0,l),
(418,966,l),
(702,966,l),
(702,1034,l)
);
}
);
width = 791;
}
);
metricLeft = "=t*.75";
metricRight = "=t*.75";
unicode = 102;
},
{
glyphname = g;
kernLeft = g;
kernRight = g;
lastChange = "2019-11-13 23:29:13 +0000";
layers = (
{
anchors = (
{
name = top;
pos = (616,1034);
}
);
background = {
anchors = (
{
name = top;
pos = (594,1060);
}
);
shapes = (
{
closed = 1;
nodes = (
(1154,1124,o),
(1042,1068,o),
(988,992,cs),
(974,972,o),
(946,970,o),
(926,986,cs),
(860,1038,o),
(744,1076,o),
(592,1076,cs),
(234,1076,o),
(52,938,o),
(52,746,cs),
(52,624,o),
(128,530,o),
(260,474,cs),
(280,462,o),
(266,456,o),
(254,450,cs),
(146,404,o),
(36,338,o),
(36,244,cs),
(36,162,o),
(98,112,o),
(168,78,cs),
(184,70,o),
(188,62,o),
(168,56,cs),
(62,26,o),
(-26,-16,o),
(-26,-106,cs),
(-26,-274,o),
(178,-350,o),
(596,-350,cs),
(998,-350,o),
(1202,-198,o),
(1202,6,cs),
(1202,170,o),
(1070,286,o),
(774,304,cs),
(470,322,ls),
(412,326,o),
(382,334,o),
(382,364,cs),
(382,396,o),
(436,418,o),
(568,418,cs),
(904,418,o),
(1082,568,o),
(1082,748,cs),
(1082,768,o),
(1078,790,o),
(1072,810,cs),
(1064,838,o),
(1074,856,o),
(1112,856,cs),
(1136,856,o),
(1174,850,o),
(1200,842,cs),
(1230,832,o),
(1252,848,o),
(1252,894,cs),
(1252,1074,ls),
(1252,1110,o),
(1234,1124,o),
(1212,1124,cs)
);
},
{
closed = 1;
nodes = (
(464,600,o),
(408,668,o),
(408,740,cs),
(408,822,o),
(464,890,o),
(564,890,cs),
(676,890,o),
(720,822,o),
(720,740,cs),
(720,670,o),
(676,600,o),
(564,600,cs)
);
},
{
closed = 1;
nodes = (
(810,0,o),
(855,-32,o),
(855,-70,cs),
(855,-128,o),
(772,-172,o),
(616,-172,cs),
(366,-172,o),
(296,-128,o),
(296,-54,cs),
(296,-12,o),
(348,20,o),
(434,16,cs),
(724,4,ls)
);
}
);
};
layerId = "258ED206-D907-4350-8EBA-CBDDA1C16BF7";
shapes = (
{
closed = 1;
nodes = (
(1010,-342,o),
(1208,-194,o),
(1208,6,cs),
(1208,166,o),
(1082,296,o),
(796,316,cs),
(708,322,o),
(626,326,o),
(590,328,cs),
(488,334,o),
(424,334,o),
(424,362,c),
(424,372,o),
(432,376,o),
(452,380,c),
(486,376,o),
(558,374,o),
(590,374,cs),
(918,374,o),
(1092,554,o),
(1092,730,cs),
(1092,742,o),
(1088,780,o),
(1080,810,c),
(1256,834,l),
(1258,1110,l),
(1144,1062,o),
(996,1006,o),
(918,976,c),
(842,1016,o),
(762,1050,o),
(614,1050,cs),
(332,1050,o),
(88,936,o),
(88,728,cs),
(88,618,o),
(160,486,o),
(310,420,c),
(148,398,o),
(72,320,o),
(72,238,cs),
(72,124,o),
(188,80,o),
(218,64,c),
(202,60,o),
(12,30,o),
(12,-104,cs),
(12,-236,o),
(210,-342,o),
(618,-342,cs)
);
},
{
closed = 1;
nodes = (
(480,-138,o),
(390,-124,o),
(390,-58,cs),
(390,-24,o),
(416,22,o),
(524,16,cs),
(712,4,ls),
(792,-2,o),
(840,-30,o),
(840,-74,cs),
(840,-112,o),
(814,-138,o),
(678,-138,cs)
);
},
{
closed = 1;
nodes = (
(528,578,o),
(478,636,o),
(478,714,cs),
(478,792,o),
(528,860,o),
(602,860,cs),
(676,860,o),
(726,792,o),
(726,714,cs),
(726,636,o),
(676,578,o),
(602,578,cs)
);
}
);
width = 1268;
},
{
anchors = (
{
name = top;
pos = (592,1034);
}
);
background = {
anchors = (
{
name = top;
pos = (608,1060);
}
);
guides = (
{
angle = 90;
pos = (309,374);
showMeasurement = 1;
}
);
shapes = (
{
closed = 1;
nodes = (
(1036,1060,o),
(976,1014,o),
(936,984,cs),
(922,974,o),
(914,974,o),
(900,986,cs),
(832,1044,o),
(746,1076,o),
(615,1076,cs),
(350,1076,o),
(194,950,o),
(194,738,cs),
(194,614,o),
(242,532,o),
(352,470,cs),
(366,462,o),
(370,450,o),
(354,446,cs),
(254,414,o),
(220,362,o),
(220,318,cs),
(220,274,o),
(242,242,o),
(296,218,cs),
(310,212,o),
(310,204,o),
(296,196,cs),
(170,126,o),
(112,42,o),
(112,-54,cs),
(112,-240,o),
(284,-350,o),
(592,-350,cs),
(894,-350,o),
(1070,-238,o),
(1070,-38,cs),
(1070,120,o),
(976,220,o),
(762,232,cs),
(522,246,ls),
(368,254,o),
(304,272,o),
(304,320,cs),
(304,368,o),
(370,418,o),
(600,418,cs),
(882,418,o),
(1004,560,o),
(1004,738,cs),
(1004,822,o),
(976,868,o),
(962,902,cs),
(956,916,o),
(966,928,o),
(1002,948,cs),
(1034,966,o),
(1060,974,o),
(1112,976,cs),
(1140,978,o),
(1146,990,o),
(1146,1008,cs),
(1146,1034,ls),
(1146,1052,o),
(1138,1060,o),
(1108,1060,cs)
);
},
{
closed = 1;
nodes = (
(392,494,o),
(274,580,o),
(274,742,cs),
(274,906,o),
(394,1000,o),
(602,1000,cs),
(814,1000,o),
(924,908,o),
(924,742,cs),
(924,578,o),
(818,494,o),
(602,494,cs)
);
},
{
closed = 1;
nodes = (
(928,140,o),
(986,72,o),
(986,-38,cs),
(986,-202,o),
(854,-274,o),
(610,-274,cs),
(348,-274,o),
(197,-192,o),
(197,-46,cs),
(197,86,o),
(344,176,o),
(408,172,cs),
(760,150,ls)
);
}
);
};
guides = (
{
angle = 90;
pos = (349,347);
showMeasurement = 1;
}
);
layerId = "91AB5BCA-6A50-42DA-B2F7-8181BF189245";
metricRight = "=x*1.3";
shapes = (
{
closed = 1;
nodes = (
(893,-342,o),
(1042,-220,o),
(1042,-38,cs),
(1042,130,o),
(922,216,o),
(742,226,cs),
(644,232,o),
(568,236,o),
(508,240,cs),
(342,252,o),
(294,268,o),
(294,312,cs),
(294,356,o),
(356,404,o),
(562,408,cs),
(570,408,o),
(576,408,o),
(584,408,cs),
(852,408,o),
(978,533,o),
(978,720,cs),
(978,780,o),
(960,842,o),
(932,892,c),
(1116,932,l),
(1116,1048,l),
(1090,1038,o),
(918,964,o),
(892,952,c),
(812,1018,o),
(726,1050,o),
(598,1050,cs),
(319,1050,o),
(188,918,o),
(188,720,cs),
(188,597,o),
(259,502,o),
(366,444,c),
(266,414,o),
(212,366,o),
(212,310,cs),
(212,248,o),
(260,226,o),
(298,202,c),
(268,176,o),
(108,104,o),
(108,-52,cs),
(108,-249,o),
(295,-342,o),
(576,-342,cs)
);
},
{
closed = 1;
nodes = (
(319,-268,o),
(190,-178,o),
(190,-44,cs),
(190,84,o),
(334,172,o),
(396,168,cs),
(740,146,ls),
(890,137,o),
(960,64,o),
(960,-38,cs),
(960,-194,o),
(814,-268,o),
(594,-268,cs)
);
},
{
closed = 1;
nodes = (
(380,482,o),
(266,566,o),
(266,724,cs),
(266,895,o),
(394,976,o),
(586,976,cs),
(774,976,o),
(900,896,o),
(900,724,cs),
(900,559,o),
(774,482,o),
(586,482,cs)
);
}
);
width = 1233;
}
);
metricLeft = "=x*1.2";
metricRight = "=x";
unicode = 103;
},
{
glyphname = gcommaaccent;
kernLeft = g;
kernRight = g;
lastChange = "2019-11-13 23:27:28 +0000";
layers = (
{
anchors = (
{
name = _top;
pos = (554,1072);
}
);
background = {
anchors = (
{
name = _top;
pos = (530,1100);
}
);
shapes = (
{
closed = 1;
nodes = (
(624,1198,ls),
(644,1198,o),
(660,1210,o),
(660,1238,cs),
(660,1360,ls),
(660,1392,o),
(648,1404,o),
(614,1404,cs),
(596,1404,ls),
(568,1404,o),
(556,1434,o),
(578,1462,cs),
(644,1552,ls),
(656,1568,o),
(642,1592,o),
(620,1592,cs),
(584,1592,ls),
(548,1592,o),
(534,1586,o),
(518,1564,cs),
(410,1430,ls),
(408,1424,o),
(402,1414,o),
(402,1404,cs),
(402,1230,ls),
(402,1210,o),
(414,1198,o),
(436,1198,cs)
);
},
{
pos = (-38,0);
ref = g;
}
);
};
layerId = "258ED206-D907-4350-8EBA-CBDDA1C16BF7";
shapes = (
{
closed = 1;
nodes = (
(680,1168,l),
(680,1368,l),
(558,1368,l),
(694,1552,l),
(562,1552,l),
(428,1384,l),
(428,1168,l)
);
},
{
ref = g;
}
);
width = 1268;
},
{
anchors = (
{
name = _top;
pos = (558,1072);
}
);
background = {
anchors = (
{
name = _top;
pos = (574,1100);
}
);
shapes = (
{
closed = 1;
nodes = (
(612,1264,ls),
(620,1264,o),
(626,1268,o),
(626,1280,cs),
(626,1412,ls),
(626,1426,o),
(622,1430,o),
(610,1430,cs),
(594,1430,ls),
(584,1430,o),
(580,1436,o),
(586,1448,cs),
(636,1556,ls),
(640,1564,o),
(636,1572,o),
(628,1572,cs),
(602,1572,ls),
(586,1572,o),
(580,1570,o),
(574,1560,cs),
(512,1442,ls),
(512,1440,o),
(510,1434,o),
(510,1430,cs),
(510,1278,ls),
(510,1268,o),
(514,1264,o),
(522,1264,cs)
);
},
{
pos = (4,0);
ref = g;
}
);
};
layerId = "91AB5BCA-6A50-42DA-B2F7-8181BF189245";
shapes = (
{
closed = 1;
nodes = (
(608,1232,l),
(608,1394,l),
(562,1394,l),
(626,1532,l),
(564,1532,l),
(496,1402,l),
(496,1232,l)
);
},
{
ref = g;
}
);
width = 1233;
}
);
metricLeft = g;
metricRight = g;
unicode = 291;
},
{
glyphname = h;
kernLeft = n;
kernRight = n;
lastChange = "2019-11-12 21:44:10 +0000";
layers = (
{
anchors = (
{
name = bottom;
pos = (613,0);
},
{
name = top;
pos = (291,1446);
}
);
background = {
anchors = (
{
name = bottom;
pos = (591,0);
},
{
name = top;
pos = (869,1060);
}
);
shapes = (
{
closed = 1;
nodes = (
(398,0,ls),
(445,0,o),
(463,16,o),
(463,58,cs),
(463,698,l),
(501,766,o),
(549,798,o),
(611,798,cs),
(675,798,o),
(715,762,o),
(715,702,cs),
(715,50,ls),
(715,12,o),
(728,0,o),
(762,0,cs),
(1056,0,ls),
(1098,0,o),
(1115,20,o),
(1115,60,cs),
(1115,750,ls),
(1115,962,o),
(1001,1080,o),
(804,1080,cs),
(697,1080,o),
(598,1046,o),
(483,936,cs),
(467,922,o),
(457,928,o),
(457,944,cs),
(457,1442,ls),
(457,1468,o),
(445,1484,o),
(421,1484,cs),
(102,1484,ls),
(77,1484,o),
(64,1466,o),
(64,1438,cs),
(64,50,ls),
(64,14,o),
(77,0,o),
(115,0,cs)
);
}
);
};
layerId = "258ED206-D907-4350-8EBA-CBDDA1C16BF7";
shapes = (
{
closed = 1;
nodes = (
(489,0,l),
(489,633,l),
(489,701,o),
(554,740,o),
(611,740,cs),
(669,740,o),
(733,706,o),
(733,638,cs),
(733,0,l),
(1123,0,l),
(1123,688,ls),
(1123,914,o),
(955,1034,o),
(762,1034,cs),
(600,1034,o),
(537,946,o),
(489,887,c),
(489,1486,l),
(100,1486,l),
(100,0,l)
);
}
);
width = 1213;
},
{
anchors = (
{
name = bottom;
pos = (592,0);
},
{
name = top;
pos = (216,1446);
}
);
background = {
anchors = (
{
name = bottom;
pos = (609,0);
},
{
name = top;
pos = (653,1060);
}
);
shapes = (
{
closed = 1;
nodes = (
(248,0,ls),
(260,0,o),
(265,6,o),
(265,18,cs),
(265,820,l),
(426,942,o),
(519,1004,o),
(662,1004,cs),
(836,1004,o),
(908,910,o),
(908,754,cs),
(908,18,ls),
(908,6,o),
(914,0,o),
(926,0,cs),
(970,0,ls),
(981,0,o),
(987,6,o),
(987,20,cs),
(987,786,ls),
(987,960,o),
(878,1080,o),
(664,1080,cs),
(517,1080,o),
(428,1022,o),
(275,914,cs),
(264,904,o),
(260,906,o),
(260,920,cs),
(260,1468,ls),
(260,1480,o),
(256,1484,o),
(244,1484,cs),
(202,1484,ls),
(189,1484,o),
(185,1478,o),
(185,1466,cs),
(185,18,ls),
(185,6,o),
(191,0,o),
(204,0,cs)
);
}
);
};
layerId = "91AB5BCA-6A50-42DA-B2F7-8181BF189245";
shapes = (
{
closed = 1;
nodes = (
(258,0,l),
(258,720,l),
(258,896,o),
(416,978,o),
(599,978,cs),
(775,978,o),
(884,888,o),
(884,736,cs),
(884,0,l),
(962,0,l),
(962,766,ls),
(962,936,o),
(807,1054,o),
(601,1054,cs),
(433,1054,o),
(306,978,o),
(252,880,c),
(252,1486,l),
(180,1486,l),
(180,0,l)
);
}
);
width = 1122;
}
);
metricLeft = n;
metricRight = n;
unicode = 104;
},
{
glyphname = hbar;
kernLeft = n;
kernRight = n;
lastChange = "2019-07-24 01:09:46 +0000";
layers = (
{
background = {
shapes = (
{
closed = 1;
nodes = (
(744,1360,o),
(732,1374,o),
(712,1374,cs),
(34,1374,ls),
(14,1374,o),
(2,1360,o),
(2,1334,cs),
(2,1204,ls),
(2,1174,o),
(12,1160,o),
(46,1160,cs),
(686,1160,ls),
(726,1160,o),
(744,1174,o),
(744,1208,cs),
(744,1338,ls)
);
},
{
pos = (1,0);
ref = h;
}
);
};
layerId = "258ED206-D907-4350-8EBA-CBDDA1C16BF7";
shapes = (
{
closed = 1;
nodes = (
(40,1340,l),
(40,1132,l),
(762,1132,l),
(762,1340,l)
);
},
{
pos = (78,0);
ref = h;
}
);
width = 1291;
},
{
background = {
shapes = (
{
closed = 1;
nodes = (
(622,1320,o),
(618,1324,o),
(612,1324,cs),
(54,1324,ls),
(48,1324,o),
(44,1320,o),
(44,1310,cs),
(44,1270,ls),
(44,1258,o),
(46,1254,o),
(58,1254,cs),
(602,1254,ls),
(616,1254,o),
(622,1258,o),
(622,1270,cs),
(622,1312,ls)
);
},
{
pos = (2,0);
ref = h;
}
);
};
layerId = "91AB5BCA-6A50-42DA-B2F7-8181BF189245";
shapes = (
{
closed = 1;
nodes = (
(40,1290,l),
(40,1222,l),
(604,1222,l),
(604,1290,l)
);
},
{
pos = (-4,0);
ref = h;
}
);
width = 1118;
}
);
metricRight = h;
unicode = 295;
},
{
glyphname = i;
kernLeft = n;
kernRight = u;
lastChange = "2019-11-12 21:44:36 +0000";
layers = (
{
anchors = (
{
name = bottom;
pos = (285,0);
}
);
background = {
shapes = (
{
closed = 1;
nodes = (
(464,1044,o),
(450,1060,o),
(428,1060,cs),
(102,1060,ls),
(78,1060,o),
(64,1044,o),
(64,1014,cs),
(64,50,ls),
(64,16,o),
(76,0,o),
(116,0,cs),
(398,0,ls),
(444,0,o),
(464,16,o),
(464,58,cs),
(464,1020,ls)
);
},
{
closed = 1;
nodes = (
(464,1468,o),
(450,1484,o),
(428,1484,cs),
(102,1484,ls),
(78,1484,o),
(64,1468,o),
(64,1438,cs),
(64,1200,ls),
(64,1166,o),
(76,1148,o),
(116,1148,cs),
(398,1148,ls),
(444,1148,o),
(464,1166,o),
(464,1206,cs),
(464,1442,ls)
);
}
);
};
layerId = "258ED206-D907-4350-8EBA-CBDDA1C16BF7";
shapes = (
{
closed = 1;
nodes = (
(100,1034,l),
(100,0,l),
(470,0,l),
(470,1034,l)
);
},
{
closed = 1;
nodes = (
(100,1446,l),
(100,1118,l),
(470,1118,l),
(470,1446,l)
);
}
);
width = 570;
},
{
anchors = (
{
name = bottom;
pos = (228,0);
}
);
background = {
shapes = (
{
closed = 1;
nodes = (
(275,1056,o),
(271,1060,o),
(258,1060,cs),
(214,1060,ls),
(200,1060,o),
(195,1056,o),
(195,1040,cs),
(195,20,ls),
(195,4,o),
(200,0,o),
(218,0,cs),
(252,0,ls),
(271,0,o),
(275,4,o),
(275,24,cs),
(275,1040,ls)
);
},
{
closed = 1;
nodes = (
(286,1474,o),
(275,1484,o),
(262,1484,cs),
(210,1484,ls),
(195,1484,o),
(186,1474,o),
(186,1458,cs),
(186,1316,ls),
(186,1300,o),
(189,1288,o),
(208,1288,cs),
(262,1288,ls),
(281,1288,o),
(286,1300,o),
(286,1320,cs),
(286,1458,ls)
);
}
);
};
layerId = "91AB5BCA-6A50-42DA-B2F7-8181BF189245";
shapes = (
{
closed = 1;
nodes = (
(189,1034,l),
(189,0,l),
(268,0,l),
(268,1034,l)
);
},
{
closed = 1;
nodes = (
(180,1444,l),
(180,1324,l),
(275,1324,l),
(275,1444,l)
);
}
);
width = 455;
}
);
metricLeft = n;
metricRight = "=|n";
unicode = 105;
},
{
glyphname = idotless;
kernLeft = n;
kernRight = u;
lastChange = "2019-10-30 02:39:30 +0000";
layers = (
{
anchors = (
{
name = ogonek;
pos = (434,18);
},
{
name = top;
pos = (292,1034);
}
);
background = {
anchors = (
{
name = ogonek;
pos = (408,18);
},
{
name = top;
pos = (272,1060);
}
);
shapes = (
{
closed = 1;
nodes = (
(464,1044,o),
(450,1060,o),
(429,1060,cs),
(102,1060,ls),
(78,1060,o),
(64,1044,o),
(64,1014,cs),
(64,50,ls),
(64,16,o),
(76,0,o),
(116,0,cs),
(398,0,ls),
(444,0,o),
(464,16,o),
(464,58,cs),
(464,1020,ls)
);
}
);
};
layerId = "258ED206-D907-4350-8EBA-CBDDA1C16BF7";
shapes = (
{
closed = 1;
nodes = (
(100,1034,l),
(100,0,l),
(471,0,l),
(471,1034,l)
);
}
);
width = 571;
},
{
anchors = (
{
name = ogonek;
pos = (243,26);
},
{
name = top;
pos = (218,1034);
}
);
background = {
anchors = (
{
name = ogonek;
pos = (250,26);
},
{
name = top;
pos = (226,1060);
}
);
shapes = (
{
closed = 1;
nodes = (
(266,1056,o),
(262,1060,o),
(248,1060,cs),
(205,1060,ls),
(190,1060,o),
(186,1056,o),
(186,1040,cs),
(186,20,ls),
(186,4,o),
(190,0,o),
(208,0,cs),
(243,0,ls),
(262,0,o),
(266,4,o),
(266,24,cs),
(266,1040,ls)
);
}
);
};
layerId = "91AB5BCA-6A50-42DA-B2F7-8181BF189245";
shapes = (
{
closed = 1;
nodes = (
(180,1034,l),
(180,0,l),
(258,0,l),
(258,1034,l)
);
}
);
width = 438;
}
);
metricLeft = i;
metricRight = i;
unicode = 305;
},
{
glyphname = j;
kernLeft = j;
kernRight = u;
lastChange = "2019-07-24 01:09:41 +0000";
layers = (
{
background = {
shapes = (
{
closed = 1;
nodes = (
(501,1020,ls),
(501,1044,o),
(488,1060,o),
(465,1060,cs),
(141,1060,ls),
(117,1060,o),
(101,1044,o),
(101,1014,cs),
(101,72,ls),
(101,4,o),
(79,-12,o),
(53,-20,cs),
(-18,-32,ls),
(-43,-38,o),
(-58,-64,o),
(-58,-86,cs),
(-56,-290,ls),
(-56,-332,o),
(-31,-340,o),
(81,-340,cs),
(364,-340,o),
(501,-206,o),
(501,58,cs)
);
},
{
closed = 1;
nodes = (
(501,1468,o),
(488,1484,o),
(465,1484,cs),
(141,1484,ls),
(117,1484,o),
(101,1468,o),
(101,1438,cs),
(101,1200,ls),
(101,1166,o),
(114,1148,o),
(154,1148,cs),
(437,1148,ls),
(437,1148,o),
(501,1166,o),
(501,1206,cs),
(501,1442,ls)
);
}
);
};
guides = (
{
angle = 90;
pos = (525,545);
},
{
pos = (34,737);
showMeasurement = 1;
}
);
layerId = "258ED206-D907-4350-8EBA-CBDDA1C16BF7";
shapes = (
{
closed = 1;
nodes = (
(524,1034,l),
(135,1034,l),
(135,56,l),
(135,14,o),
(114,-12,o),
(41,-28,c),
(-20,-38,l),
(-18,-298,l),
(-18,-298,o),
(13,-332,o),
(117,-332,c),
(393,-332,o),
(524,-200,o),
(524,56,cs)
);
},
{
closed = 1;
nodes = (
(135,1446,l),
(135,1118,l),
(524,1118,l),
(524,1446,l)
);
}
);
width = 624;
},
{
background = {
shapes = (
{
closed = 1;
nodes = (
(295,1040,ls),
(295,1054,o),
(291,1060,o),
(279,1060,cs),
(236,1060,ls),
(221,1060,o),
(215,1054,o),
(215,1040,cs),
(215,-92,ls),
(215,-220,o),
(173,-264,o),
(68,-266,cs),
(-49,-268,ls),
(-56,-268,o),
(-60,-272,o),
(-60,-280,cs),
(-60,-322,ls),
(-60,-338,o),
(-49,-340,o),
(70,-340,cs),
(251,-340,o),
(295,-266,o),
(295,-102,cs)
);
},
{
closed = 1;
nodes = (
(305,1474,o),
(295,1484,o),
(281,1484,cs),
(230,1484,ls),
(215,1484,o),
(205,1474,o),
(205,1458,cs),
(205,1316,ls),
(205,1300,o),
(209,1288,o),
(227,1288,cs),
(281,1288,ls),
(301,1288,o),
(305,1300,o),
(305,1320,cs),
(305,1458,ls)
);
}
);
};
guides = (
{
angle = 90;
pos = (207,472);
},
{
angle = 90;
pos = (285,467);
}
);
layerId = "91AB5BCA-6A50-42DA-B2F7-8181BF189245";
shapes = (
{
closed = 1;
nodes = (
(285,1034,l),
(207,1034,l),
(207,-90,ls),
(207,-214,o),
(167,-258,o),
(64,-260,cs),
(-60,-262,l),
(-60,-314,ls),
(-60,-314,o),
(-51,-332,o),
(66,-332,cs),
(243,-332,o),
(285,-260,o),
(285,-100,cs)
);
},
{
closed = 1;
nodes = (
(197,1444,l),
(197,1324,l),
(293,1324,l),
(293,1444,l)
);
}
);
width = 473;
}
);
metricRight = "=|n";
unicode = 106;
},
{
glyphname = jdotless;
kernLeft = j;
kernRight = u;
lastChange = "2019-07-24 01:09:46 +0000";
layers = (
{
anchors = (
{
name = top;
pos = (329,1034);
}
);
background = {
anchors = (
{
name = top;
pos = (299,1060);
}
);
shapes = (
{
closed = 1;
nodes = (
(499,1020,ls),
(499,1044,o),
(486,1060,o),
(463,1060,cs),
(139,1060,ls),
(114,1060,o),
(99,1044,o),
(99,1014,cs),
(99,72,ls),
(99,4,o),
(77,-12,o),
(51,-20,cs),
(-20,-32,ls),
(-45,-38,o),
(-60,-64,o),
(-60,-86,cs),
(-58,-290,ls),
(-58,-332,o),
(-33,-340,o),
(79,-340,cs),
(362,-340,o),
(499,-206,o),
(499,58,cs)
);
}
);
};
layerId = "258ED206-D907-4350-8EBA-CBDDA1C16BF7";
shapes = (
{
closed = 1;
nodes = (
(524,1034,l),
(135,1034,l),
(135,56,l),
(135,14,o),
(112,-12,o),
(39,-28,c),
(-20,-38,l),
(-18,-298,l),
(-18,-298,o),
(11,-332,o),
(114,-332,c),
(391,-332,o),
(524,-200,o),
(524,56,cs)
);
}
);
width = 624;
},
{
anchors = (
{
name = top;
pos = (247,1034);
}
);
background = {
anchors = (
{
name = top;
pos = (255,1060);
}
);
shapes = (
{
closed = 1;
nodes = (
(295,1040,ls),
(295,1054,o),
(291,1060,o),
(279,1060,cs),
(236,1060,ls),
(221,1060,o),
(215,1054,o),
(215,1040,cs),
(215,-92,ls),
(215,-220,o),
(173,-264,o),
(68,-266,cs),
(-49,-268,ls),
(-56,-268,o),
(-60,-272,o),
(-60,-280,cs),
(-60,-322,ls),
(-60,-338,o),
(-49,-340,o),
(70,-340,cs),
(251,-340,o),
(295,-266,o),
(295,-102,cs)
);
}
);
};
layerId = "91AB5BCA-6A50-42DA-B2F7-8181BF189245";
shapes = (
{
closed = 1;
nodes = (
(287,1034,l),
(209,1034,l),
(209,-90,ls),
(209,-214,o),
(167,-258,o),
(66,-260,cs),
(-60,-262,l),
(-60,-314,ls),
(-60,-330,o),
(-49,-332,o),
(68,-332,cs),
(243,-332,o),
(287,-260,o),
(287,-100,cs)
);
}
);
width = 467;
}
);
metricLeft = j;
metricRight = j;
unicode = 567;
},
{
glyphname = k;
kernLeft = n;
kernRight = k;
lastChange = "2020-01-07 05:43:18 +0000";
layers = (
{
anchors = (
{
name = bottom;
pos = (606,0);
}
);
background = {
anchors = (
{
name = bottom;
pos = (584,0);
}
);
shapes = (
{
closed = 1;
nodes = (
(890,674,ls),
(872,710,o),
(876,722,o),
(894,744,cs),
(1151,1002,ls),
(1178,1030,o),
(1170,1060,o),
(1124,1060,cs),
(850,1060,ls),
(830,1060,o),
(808,1046,o),
(788,1026,cs),
(487,688,ls),
(472,670,o),
(464,680,o),
(464,692,cs),
(464,1442,ls),
(464,1468,o),
(452,1484,o),
(428,1484,cs),
(102,1484,ls),
(80,1484,o),
(64,1468,o),
(64,1438,cs),
(64,50,ls),
(64,16,o),
(76,0,o),
(118,0,cs),
(399,0,ls),
(445,0,o),
(464,16,o),
(464,58,cs),
(464,260,ls),
(464,292,o),
(470,306,o),
(481,316,cs),
(578,406,ls),
(598,426,o),
(607,422,o),
(620,396,cs),
(764,52,ls),
(777,20,o),
(796,0,o),
(830,0,cs),
(1172,0,ls),
(1208,0,o),
(1222,34,o),
(1210,56,cs)
);
}
);
};
guides = (
{
angle = 50.4927;
pos = (239,343);
},
{
angle = 122;
pos = (380,0);
}
);
layerId = "258ED206-D907-4350-8EBA-CBDDA1C16BF7";
shapes = (
{
closed = 1;
nodes = (
(802,606,l),
(1180,1034,l),
(773,1034,l),
(489,686,l),
(489,1486,l),
(100,1486,l),
(100,0,l),
(489,0,l),
(489,292,l),
(565,380,l),
(804,0,l),
(1182,0,l)
);
}
);
width = 1192;
},
{
anchors = (
{
name = bottom;
pos = (533,0);
}
);
background = {
anchors = (
{
name = bottom;
pos = (549,0);
}
);
shapes = (
{
closed = 1;
nodes = (
(615,662,ls),
(609,672,o),
(611,678,o),
(617,684,cs),
(955,1030,ls),
(973,1048,o),
(972,1060,o),
(951,1060,cs),
(888,1060,ls),
(873,1060,o),
(867,1056,o),
(853,1040,c),
(285,458,ls),
(269,442,o),
(265,444,o),
(265,468,cs),
(265,1464,ls),
(265,1480,o),
(262,1484,o),
(247,1484,cs),
(203,1484,ls),
(189,1484,o),
(185,1480,o),
(185,1464,cs),
(185,20,ls),
(185,4,o),
(189,0,o),
(207,0,cs),
(241,0,ls),
(262,0,o),
(265,4,o),
(265,24,cs),
(265,304,ls),
(265,318,o),
(269,328,o),
(279,338,cs),
(535,598,ls),
(545,608,o),
(547,604,o),
(551,598,cs),
(915,14,ls),
(921,4,o),
(928,0,o),
(939,0,cs),
(1001,0,ls),
(1019,0,o),
(1021,8,o),
(1012,24,cs)
);
}
);
};
guides = (
{
angle = 121.8697;
pos = (292,140);
}
);
layerId = "91AB5BCA-6A50-42DA-B2F7-8181BF189245";
shapes = (
{
closed = 1;
nodes = (
(589,658,l),
(959,1034,l),
(849,1034,l),
(257,428,l),
(257,1486,l),
(180,1486,l),
(180,0,l),
(257,0,l),
(257,316,l),
(529,592,l),
(897,0,l),
(997,0,l)
);
}
);
width = 1087;
}
);
metricLeft = n;
metricRight = "=x";
unicode = 107;
},
{
glyphname = kgreenlandic;
kernLeft = n;
kernRight = k;
lastChange = "2020-01-07 05:56:06 +0000";
layers = (
{
background = {
shapes = (
{
closed = 1;
nodes = (
(890,674,ls),
(872,710,o),
(876,722,o),
(894,744,cs),
(1151,1002,ls),
(1178,1030,o),
(1170,1060,o),
(1124,1060,cs),
(850,1060,ls),
(830,1060,o),
(808,1046,o),
(788,1026,cs),
(487,688,ls),
(472,670,o),
(464,680,o),
(464,692,cs),
(464,1018,ls),
(464,1044,o),
(452,1060,o),
(428,1060,cs),
(102,1060,ls),
(80,1060,o),
(64,1044,o),
(64,1014,cs),
(64,50,ls),
(64,16,o),
(76,0,o),
(118,0,cs),
(399,0,ls),
(445,0,o),
(464,16,o),
(464,58,cs),
(464,260,ls),
(464,292,o),
(470,306,o),
(481,316,cs),
(578,406,ls),
(598,426,o),
(607,422,o),
(620,396,cs),
(764,52,ls),
(777,20,o),
(796,0,o),
(830,0,cs),
(1172,0,ls),
(1208,0,o),
(1222,34,o),
(1210,56,cs)
);
}
);
};
layerId = "258ED206-D907-4350-8EBA-CBDDA1C16BF7";
shapes = (
{
closed = 1;
nodes = (
(884,700,l),
(1216,1034,l),
(834,1034,l),
(489,644,l),
(489,1034,l),
(100,1034,l),
(100,0,l),
(489,0,l),
(489,292,l),
(628,422,l),
(804,0,l),
(1244,0,l)
);
}
);
width = 1254;
},
{
background = {
shapes = (
{
closed = 1;
nodes = (
(615,662,ls),
(609,672,o),
(611,678,o),
(617,684,cs),
(955,1030,ls),
(973,1048,o),
(972,1060,o),
(951,1060,cs),
(888,1060,ls),
(873,1060,o),
(867,1056,o),
(853,1040,c),
(285,458,ls),
(269,442,o),
(265,444,o),
(265,468,cs),
(265,1040,ls),
(265,1056,o),
(262,1060,o),
(247,1060,cs),
(203,1060,ls),
(189,1060,o),
(185,1056,o),
(185,1040,cs),
(185,20,ls),
(185,4,o),
(189,0,o),
(207,0,cs),
(241,0,ls),
(262,0,o),
(265,4,o),
(265,24,cs),
(265,304,ls),
(265,318,o),
(269,328,o),
(279,338,cs),
(535,598,ls),
(545,608,o),
(547,604,o),
(551,598,cs),
(915,14,ls),
(921,4,o),
(928,0,o),
(939,0,cs),
(1001,0,ls),
(1019,0,o),
(1021,8,o),
(1012,24,cs)
);
}
);
};
layerId = "91AB5BCA-6A50-42DA-B2F7-8181BF189245";
shapes = (
{
closed = 1;
nodes = (
(589,658,l),
(959,1034,l),
(849,1034,l),
(257,428,l),
(257,1034,l),
(180,1034,l),
(180,0,l),
(257,0,l),
(257,316,l),
(529,592,l),
(897,0,l),
(997,0,l)
);
}
);
width = 1087;
}
);
metricLeft = k;
metricRight = k;
unicode = 312;
},
{
glyphname = l;
kernLeft = n;
kernRight = l;
lastChange = "2020-01-07 05:53:38 +0000";
layers = (
{
anchors = (
{
name = bottom;
pos = (266,0);
},
{
name = caron;
pos = (493,1458);
},
{
name = top;
pos = (293,1530);
}
);
background = {
anchors = (
{
name = bottom;
pos = (151,0);
},
{
name = top;
pos = (264,1484);
},
{
name = topright;
pos = (638,1060);
}
);
shapes = (
{
closed = 1;
nodes = (
(617,258,l),
(617,258,o),
(565,262,o),
(547,266,cs),
(470,284,o),
(455,326,o),
(455,380,cs),
(455,1484,l),
(62,1484,l),
(56,346,l),
(56,190,o),
(77,-2,o),
(467,4,cs),
(520,6,o),
(551,10,o),
(617,18,c)
);
}
);
};
layerId = "258ED206-D907-4350-8EBA-CBDDA1C16BF7";
shapes = (
{
closed = 1;
nodes = (
(543,-22,o),
(593,-8,o),
(640,10,c),
(640,246,l),
(598,250,l),
(493,264,o),
(481,314,o),
(481,364,cs),
(481,1486,l),
(100,1486,l),
(100,312,l),
(100,160,o),
(111,-22,o),
(493,-22,cs)
);
}
);
width = 705;
},
{
anchors = (
{
name = bottom;
pos = (260,2);
},
{
name = caron;
pos = (259,1446);
},
{
name = top;
pos = (212,1524);
}
);
background = {
anchors = (
{
name = bottom;
pos = (220,0);
},
{
name = top;
pos = (220,1484);
},
{
name = topright;
pos = (510,1484);
}
);
shapes = (
{
closed = 1;
nodes = (
(479,72,l),
(460,72,o),
(433,72,o),
(401,72,cs),
(273,72,o),
(260,174,o),
(260,260,c),
(260,1484,l),
(180,1484,l),
(180,260,l),
(180,114,o),
(235,4,o),
(378,4,cs),
(426,4,o),
(454,6,o),
(479,12,c)
);
}
);
};
layerId = "91AB5BCA-6A50-42DA-B2F7-8181BF189245";
shapes = (
{
closed = 1;
nodes = (
(386,-8,o),
(414,-6,o),
(437,0,c),
(437,58,l),
(374,58,l),
(317,58,o),
(258,108,o),
(258,242,c),
(258,1486,l),
(180,1486,l),
(180,242,l),
(180,100,o),
(233,-8,o),
(372,-8,cs)
);
}
);
width = 554;
}
);
metricLeft = n;
metricRight = "=u*.65";
unicode = 108;
},
{
glyphname = lslash;
kernLeft = n;
kernRight = l;
lastChange = "2019-10-30 16:09:31 +0000";
layers = (
{
background = {
shapes = (
{
closed = 1;
nodes = (
(603,1014,o),
(589,1022,o),
(555,1000,cs),
(-8,648,ls),
(-31,632,o),
(-46,610,o),
(-46,580,cs),
(-46,340,ls),
(-46,306,o),
(-33,300,o),
(7,326,cs),
(563,690,ls),
(589,708,o),
(603,732,o),
(603,756,cs),
(603,982,ls)
);
},
{
pos = (-32,0);
ref = l;
}
);
};
layerId = "258ED206-D907-4350-8EBA-CBDDA1C16BF7";
metricLeft = "=l-30";
metricRight = "=l";
shapes = (
{
closed = 1;
nodes = (
(70,608,l),
(70,284,l),
(702,698,l),
(702,1004,l)
);
},
{
pos = (70,0);
ref = l;
}
);
width = 775;
},
{
background = {
shapes = (
{
closed = 1;
nodes = (
(546,874,o),
(542,878,o),
(532,870,cs),
(82,450,ls),
(76,444,o),
(72,438,o),
(72,430,cs),
(72,372,ls),
(72,362,o),
(76,354,o),
(86,362,cs),
(534,784,ls),
(542,792,o),
(546,798,o),
(546,806,cs),
(546,866,ls)
);
},
{
pos = (136,0);
ref = l;
}
);
};
layerId = "91AB5BCA-6A50-42DA-B2F7-8181BF189245";
metricLeft = "=l-110";
shapes = (
{
closed = 1;
nodes = (
(70,430,l),
(70,340,l),
(532,776,l),
(532,862,l)
);
},
{
pos = (78,0);
ref = l;
}
);
width = 669;
}
);
metricLeft = "=l-130";
metricRight = "=l+20";
unicode = 322;
},
{
glyphname = m;
kernLeft = n;
kernRight = n;
lastChange = "2019-07-24 01:09:46 +0000";
layers = (
{
background = {
guides = (
{
angle = 90;
pos = (314,331);
showMeasurement = 1;
}
);
shapes = (
{
closed = 1;
nodes = (
(398,0,ls),
(445,0,o),
(463,16,o),
(463,58,cs),
(463,698,l),
(501,766,o),
(551,798,o),
(611,798,cs),
(675,798,o),
(715,762,o),
(715,702,cs),
(715,50,ls),
(715,12,o),
(730,0,o),
(762,0,cs),
(1054,0,ls),
(1096,0,o),
(1113,20,o),
(1113,60,cs),
(1113,666,ls),
(1113,684,o),
(1115,700,o),
(1129,720,cs),
(1159,762,o),
(1211,798,o),
(1262,798,cs),
(1323,798,o),
(1365,762,o),
(1365,702,cs),
(1365,50,ls),
(1365,12,o),
(1377,0,o),
(1411,0,cs),
(1703,0,ls),
(1745,0,o),
(1766,20,o),
(1766,60,cs),
(1766,746,ls),
(1766,960,o),
(1638,1080,o),
(1457,1080,cs),
(1337,1080,o),
(1186,994,o),
(1111,892,cs),
(1102,880,o),
(1091,880,o),
(1087,890,cs),
(1041,1014,o),
(938,1082,o),
(804,1082,cs),
(682,1082,o),
(569,1014,o),
(483,922,cs),
(467,906,o),
(457,914,o),
(457,930,cs),
(457,1020,ls),
(457,1044,o),
(445,1060,o),
(421,1060,cs),
(102,1060,ls),
(79,1060,o),
(64,1042,o),
(64,1014,cs),
(64,50,ls),
(64,14,o),
(77,0,o),
(115,0,cs)
);
}
);
};
guides = (
{
angle = 90;
pos = (614,207);
showMeasurement = 1;
}
);
layerId = "258ED206-D907-4350-8EBA-CBDDA1C16BF7";
shapes = (
{
closed = 1;
nodes = (
(489,0,l),
(489,635,l),
(489,703,o),
(553,742,o),
(611,742,cs),
(670,742,o),
(733,703,o),
(733,635,cs),
(733,0,l),
(1121,0,l),
(1121,635,ls),
(1121,703,o),
(1185,742,o),
(1243,742,cs),
(1302,742,o),
(1367,703,o),
(1367,635,cs),
(1367,0,l),
(1757,0,l),
(1757,688,ls),
(1757,943,o),
(1578,1054,o),
(1418,1054,cs),
(1287,1054,o),
(1175,979,o),
(1107,891,c),
(1039,998,o),
(923,1054,o),
(823,1054,cs),
(661,1054,o),
(551,982,o),
(483,891,c),
(483,1034,l),
(100,1034,l),
(100,0,l)
);
}
);
width = 1847;
},
{
background = {
guides = (
{
pos = (273,454);
}
);
shapes = (
{
closed = 1;
nodes = (
(248,0,ls),
(260,0,o),
(265,6,o),
(265,18,cs),
(265,820,l),
(418,942,o),
(508,1004,o),
(641,1004,cs),
(802,1004,o),
(868,910,o),
(868,754,cs),
(868,18,ls),
(868,6,o),
(876,0,o),
(886,0,cs),
(930,0,ls),
(939,0,o),
(948,6,o),
(948,20,cs),
(948,786,ls),
(948,814,o),
(958,826,o),
(981,846,cs),
(1059,910,o),
(1178,1004,o),
(1324,1004,cs),
(1483,1004,o),
(1550,910,o),
(1550,754,cs),
(1550,18,ls),
(1550,6,o),
(1556,0,o),
(1567,0,cs),
(1611,0,ls),
(1624,0,o),
(1630,6,o),
(1630,20,cs),
(1630,786,ls),
(1630,960,o),
(1525,1080,o),
(1326,1080,cs),
(1187,1080,o),
(1101,1022,o),
(958,914,cs),
(945,904,o),
(932,896,o),
(928,908,cs),
(901,988,o),
(811,1080,o),
(643,1080,cs),
(506,1080,o),
(420,1022,o),
(275,914,cs),
(264,904,o),
(260,906,o),
(260,920,cs),
(260,1044,ls),
(260,1056,o),
(256,1060,o),
(244,1060,cs),
(202,1060,ls),
(189,1060,o),
(185,1054,o),
(185,1042,cs),
(185,18,ls),
(185,6,o),
(191,0,o),
(204,0,cs)
);
}
);
};
guides = (
{
pos = (338,437);
showMeasurement = 1;
}
);
layerId = "91AB5BCA-6A50-42DA-B2F7-8181BF189245";
shapes = (
{
closed = 1;
nodes = (
(258,0,l),
(258,720,ls),
(258,906,o),
(418,978,o),
(548,978,cs),
(664,978,o),
(804,904,o),
(804,752,cs),
(804,0,l),
(882,0,l),
(882,720,ls),
(882,924,o),
(1054,978,o),
(1172,978,cs),
(1307,978,o),
(1430,920,o),
(1430,670,cs),
(1430,0,l),
(1508,0,l),
(1508,670,ls),
(1508,1002,o),
(1311,1054,o),
(1172,1054,cs),
(1032,1054,o),
(918,990,o),
(855,882,c),
(809,994,o),
(670,1054,o),
(550,1054,cs),
(390,1054,o),
(302,972,o),
(252,880,c),
(252,1034,l),
(180,1034,l),
(180,0,l)
);
}
);
width = 1668;
}
);
metricLeft = n;
metricRight = n;
unicode = 109;
},
{
glyphname = n;
kernLeft = n;
kernRight = n;
lastChange = "2020-01-08 05:44:26 +0000";
layers = (
{
anchors = (
{
name = bottom;
pos = (611,0);
},
{
name = top;
pos = (611,1034);
}
);
background = {
anchors = (
{
name = bottom;
pos = (589,0);
},
{
name = top;
pos = (589,1060);
}
);
shapes = (
{
closed = 1;
nodes = (
(398,0,ls),
(445,0,o),
(463,16,o),
(463,58,cs),
(463,698,l),
(501,766,o),
(549,798,o),
(611,798,cs),
(675,798,o),
(717,762,o),
(717,702,cs),
(717,50,ls),
(717,12,o),
(730,0,o),
(764,0,cs),
(1058,0,ls),
(1100,0,o),
(1117,20,o),
(1117,60,cs),
(1117,756,ls),
(1117,954,o),
(989,1080,o),
(804,1080,cs),
(680,1080,o),
(569,1014,o),
(485,922,cs),
(470,906,o),
(459,914,o),
(459,930,cs),
(459,1020,ls),
(459,1044,o),
(447,1060,o),
(423,1060,cs),
(102,1060,ls),
(77,1060,o),
(64,1042,o),
(64,1014,cs),
(64,50,ls),
(64,14,o),
(77,0,o),
(115,0,cs)
);
}
);
};
layerId = "258ED206-D907-4350-8EBA-CBDDA1C16BF7";
shapes = (
{
closed = 1;
nodes = (
(489,0,l),
(489,635,l),
(489,703,o),
(558,740,o),
(615,740,cs),
(673,740,o),
(735,703,o),
(735,635,cs),
(735,0,l),
(1125,0,l),
(1125,688,ls),
(1125,940,o),
(945,1038,o),
(764,1038,cs),
(602,1038,o),
(529,956,o),
(485,891,c),
(485,1034,l),
(100,1034,l),
(100,0,l)
);
}
);
width = 1215;
},
{
anchors = (
{
name = bottom;
pos = (574,0);
},
{
name = top;
pos = (592,1034);
}
);
background = {
anchors = (
{
name = bottom;
pos = (590,0);
},
{
name = top;
pos = (609,1060);
}
);
shapes = (
{
closed = 1;
nodes = (
(248,0,ls),
(260,0,o),
(265,6,o),
(265,18,cs),
(265,820,l),
(426,942,o),
(519,1004,o),
(662,1004,cs),
(836,1004,o),
(908,910,o),
(908,754,cs),
(908,18,ls),
(908,6,o),
(914,0,o),
(926,0,cs),
(970,0,ls),
(981,0,o),
(987,6,o),
(987,20,cs),
(987,786,ls),
(987,960,o),
(878,1080,o),
(664,1080,cs),
(517,1080,o),
(428,1022,o),
(275,914,cs),
(264,904,o),
(260,906,o),
(260,920,cs),
(260,1044,ls),
(260,1056,o),
(256,1060,o),
(244,1060,cs),
(202,1060,ls),
(189,1060,o),
(185,1054,o),
(185,1042,cs),
(185,18,ls),
(185,6,o),
(191,0,o),
(204,0,cs)
);
}
);
};
layerId = "91AB5BCA-6A50-42DA-B2F7-8181BF189245";
shapes = (
{
closed = 1;
nodes = (
(258,0,l),
(258,720,ls),
(258,896,o),
(416,978,o),
(599,978,cs),
(775,978,o),
(884,880,o),
(884,670,cs),
(884,0,l),
(962,0,l),
(962,670,ls),
(962,934,o),
(803,1054,o),
(599,1054,cs),
(432,1054,o),
(306,978,o),
(252,880,c),
(252,1034,l),
(180,1034,l),
(180,0,l)
);
}
);
width = 1122;
}
);
unicode = 110;
},
{
glyphname = eng;
kernLeft = n;
kernRight = n;
lastChange = "2019-07-24 01:09:46 +0000";
layers = (
{
background = {
shapes = (
{
closed = 1;
nodes = (
(682,1080,o),
(571,1014,o),
(487,922,c),
(472,906,o),
(461,914,o),
(461,930,cs),
(461,1020,ls),
(461,1044,o),
(449,1060,o),
(425,1060,cs),
(109,1060,ls),
(85,1060,o),
(71,1042,o),
(71,1014,cs),
(64,50,ls),
(64,14,o),
(77,0,o),
(115,0,cs),
(401,0,ls),
(449,0,o),
(467,16,o),
(467,58,cs),
(467,698,l),
(505,766,o),
(551,798,o),
(613,798,cs),
(678,798,o),
(720,762,o),
(720,702,cs),
(720,72,ls),
(720,4,o),
(697,-12,o),
(671,-20,c),
(621,-32,ls),
(596,-38,o),
(581,-64,o),
(581,-86,cs),
(583,-290,ls),
(583,-332,o),
(607,-340,o),
(699,-340,cs),
(934,-340,o),
(1119,-206,o),
(1119,58,cs),
(1119,756,ls),
(1119,954,o),
(991,1080,o),
(806,1080,cs)
);
}
);
};
layerId = "258ED206-D907-4350-8EBA-CBDDA1C16BF7";
shapes = (
{
closed = 1;
nodes = (
(963,-332,o),
(1127,-184,o),
(1127,56,cs),
(1127,738,ls),
(1127,930,o),
(1003,1054,o),
(821,1054,cs),
(691,1054,o),
(573,976,o),
(487,872,c),
(487,1034,l),
(106,1034,l),
(100,0,l),
(493,0,l),
(493,680,l),
(529,746,o),
(573,778,o),
(636,778,cs),
(697,778,o),
(737,742,o),
(737,684,cs),
(737,50,l),
(737,0,o),
(711,-20,o),
(651,-30,c),
(604,-36,l),
(604,-306,l),
(604,-306,o),
(617,-332,o),
(730,-332,cs)
);
}
);
width = 1227;
},
{
background = {
shapes = (
{
closed = 1;
nodes = (
(540,1080,o),
(450,1046,o),
(275,912,cs),
(264,902,o),
(260,904,o),
(260,918,cs),
(260,1044,ls),
(260,1056,o),
(256,1060,o),
(244,1060,cs),
(202,1060,ls),
(189,1060,o),
(185,1054,o),
(185,1042,cs),
(185,18,ls),
(185,6,o),
(191,0,o),
(204,0,cs),
(248,0,ls),
(260,0,o),
(265,6,o),
(265,18,cs),
(265,816,l),
(395,932,o),
(527,1006,o),
(653,1006,cs),
(844,1006,o),
(908,898,o),
(908,742,cs),
(908,-92,ls),
(908,-220,o),
(866,-268,o),
(760,-270,cs),
(658,-272,ls),
(649,-272,o),
(645,-276,o),
(645,-284,cs),
(645,-322,ls),
(645,-338,o),
(658,-340,o),
(762,-340,cs),
(922,-340,o),
(987,-246,o),
(987,-82,cs),
(987,786,ls),
(987,960,o),
(870,1080,o),
(664,1080,cs)
);
}
);
};
layerId = "91AB5BCA-6A50-42DA-B2F7-8181BF189245";
shapes = (
{
closed = 1;
nodes = (
(895,-332,o),
(962,-240,o),
(962,-80,cs),
(962,766,ls),
(962,936,o),
(846,1054,o),
(645,1054,cs),
(517,1054,o),
(428,1018,o),
(252,878,c),
(252,1034,l),
(180,1034,l),
(180,0,l),
(258,0,l),
(258,796,l),
(384,908,o),
(512,980,o),
(636,980,cs),
(819,980,o),
(884,876,o),
(884,724,cs),
(884,-90,ls),
(884,-214,o),
(842,-262,o),
(737,-264,cs),
(628,-266,l),
(628,-314,ls),
(628,-330,o),
(640,-332,o),
(740,-332,cs)
);
}
);
width = 1142;
}
);
metricLeft = n;
metricRight = j;
unicode = 331;
},
{
glyphname = o;
kernLeft = o;
kernRight = o;
lastChange = "2020-01-08 05:48:19 +0000";
layers = (
{
anchors = (
{
name = bottom;
pos = (579,0);
},
{
name = horn;
pos = (953,714);
},
{
name = ogonek;
pos = (738,20);
},
{
name = top;
pos = (586,1034);
}
);
background = {
anchors = (
{
name = bottom;
pos = (556,0);
},
{
name = ogonek;
pos = (718,20);
},
{
name = top;
pos = (562,1060);
}
);
shapes = (
{
closed = 1;
nodes = (
(890,-20,o),
(1119,208,o),
(1119,524,cs),
(1119,846,o),
(896,1080,o),
(562,1080,cs),
(245,1080,o),
(4,858,o),
(4,524,cs),
(4,206,o),
(232,-20,o),
(560,-20,cs)
);
},
{
closed = 1;
nodes = (
(455,236,o),
(407,324,o),
(407,532,cs),
(407,742,o),
(455,832,o),
(562,832,cs),
(670,832,o),
(716,742,o),
(716,532,cs),
(716,326,o),
(670,236,o),
(562,236,cs)
);
}
);
};
layerId = "258ED206-D907-4350-8EBA-CBDDA1C16BF7";
shapes = (
{
closed = 1;
nodes = (
(906,-20,o),
(1110,202,o),
(1110,510,cs),
(1110,824,o),
(909,1054,o),
(586,1054,cs),
(278,1054,o),
(60,836,o),
(60,510,cs),
(60,200,o),
(264,-20,o),
(584,-20,cs)
);
},
{
closed = 1;
nodes = (
(460,262,o),
(438,414,o),
(438,524,cs),
(438,636,o),
(460,776,o),
(586,776,cs),
(710,776,o),
(732,636,o),
(732,524,cs),
(732,414,o),
(710,262,o),
(586,262,cs)
);
}
);
width = 1170;
},
{
anchors = (
{
name = bottom;
pos = (560,0);
},
{
name = horn;
pos = (848,856);
},
{
name = ogonek;
pos = (681,20);
},
{
name = top;
pos = (556,1034);
}
);
background = {
anchors = (
{
name = bottom;
pos = (570,0);
},
{
name = ogonek;
pos = (700,20);
},
{
name = top;
pos = (576,1060);
}
);
shapes = (
{
closed = 1;
nodes = (
(864,-20,o),
(1058,204,o),
(1058,528,cs),
(1058,852,o),
(864,1080,o),
(574,1080,cs),
(282,1080,o),
(87,850,o),
(87,524,cs),
(87,202,o),
(278,-20,o),
(572,-20,cs)
);
},
{
closed = 1;
nodes = (
(328,56,o),
(171,246,o),
(171,528,cs),
(171,810,o),
(328,1004,o),
(574,1004,cs),
(818,1004,o),
(974,812,o),
(974,528,cs),
(974,244,o),
(822,56,o),
(576,56,cs)
);
}
);
};
layerId = "91AB5BCA-6A50-42DA-B2F7-8181BF189245";
shapes = (
{
closed = 1;
nodes = (
(859,-20,o),
(1000,194,o),
(1000,514,cs),
(1000,881,o),
(823,1054,o),
(558,1054,cs),
(253,1054,o),
(110,838,o),
(110,514,cs),
(110,151,o),
(289,-20,o),
(558,-20,cs)
);
},
{
closed = 1;
nodes = (
(309,54,o),
(192,238,o),
(192,514,cs),
(192,830,o),
(338,978,o),
(558,978,cs),
(803,978,o),
(919,792,o),
(919,514,cs),
(919,201,o),
(775,54,o),
(558,54,cs)
);
}
);
width = 1110;
}
);
unicode = 111;
},
{
glyphname = oslash;
kernLeft = o;
kernRight = o;
lastChange = "2019-06-10 22:50:30 +0000";
layers = (
{
anchors = (
{
name = top;
pos = (626,1034);
}
);
background = {
anchors = (
{
name = top;
pos = (604,1060);
}
);
shapes = (
{
closed = 1;
nodes = (
(1174,942,o),
(1172,962,o),
(1156,978,cs),
(1088,1050,ls),
(1072,1066,o),
(1050,1062,o),
(1026,1040,cs),
(56,138,ls),
(32,116,o),
(36,94,o),
(64,64,cs),
(102,24,ls),
(132,-8,o),
(156,-6,o),
(188,24,cs),
(1154,924,ls)
);
},
{
ref = o;
}
);
};
layerId = "258ED206-D907-4350-8EBA-CBDDA1C16BF7";
shapes = (
{
closed = 1;
nodes = (
(1076,1050,l),
(60,106,l),
(176,-18,l),
(1190,926,l)
);
},
{
pos = (76,0);
ref = o;
}
);
width = 1270;
},
{
anchors = (
{
name = top;
pos = (562,1034);
}
);
background = {
anchors = (
{
name = top;
pos = (578,1060);
}
);
shapes = (
{
closed = 1;
nodes = (
(1116,1004,o),
(1114,1012,o),
(1106,1022,cs),
(1080,1048,ls),
(1068,1062,o),
(1058,1060,o),
(1046,1048,cs),
(52,70,ls),
(38,56,o),
(38,44,o),
(50,32,cs),
(72,8,ls),
(80,-2,o),
(94,-2,o),
(104,8,cs),
(1106,994,ls)
);
},
{
pos = (-1,0);
ref = o;
}
);
};
layerId = "91AB5BCA-6A50-42DA-B2F7-8181BF189245";
shapes = (
{
closed = 1;
nodes = (
(1036,1038,l),
(30,48,l),
(84,-8,l),
(1090,982,l)
);
},
{
pos = (-10,0);
ref = o;
}
);
width = 1120;
}
);
unicode = 248;
},
{
glyphname = oe;
kernLeft = o;
kernRight = o;
lastChange = "2020-01-07 05:56:03 +0000";
layers = (
{
background = {
shapes = (
{
closed = 1;
nodes = (
(720,-20,o),
(833,16,o),
(926,78,cs),
(938,86,o),
(947,88,o),
(959,80,cs),
(1052,16,o),
(1167,-20,o),
(1297,-20,cs),
(1521,-20,o),
(1657,34,o),
(1802,236,c),
(1819,258,o),
(1813,276,o),
(1793,284,cs),
(1611,358,ls),
(1585,368,o),
(1579,366,o),
(1569,356,cs),
(1481,270,o),
(1419,244,o),
(1352,244,cs),
(1235,244,o),
(1146,302,o),
(1146,424,cs),
(1146,448,o),
(1155,458,o),
(1176,458,cs),
(1797,458,l),
(1831,460,o),
(1833,474,o),
(1833,508,cs),
(1833,870,o),
(1604,1080,o),
(1289,1080,cs),
(1173,1080,o),
(1065,1046,o),
(976,982,cs),
(955,968,o),
(945,968,o),
(926,982,cs),
(835,1044,o),
(722,1080,o),
(591,1080,cs),
(275,1080,o),
(33,858,o),
(33,524,cs),
(33,206,o),
(262,-20,o),
(589,-20,cs)
);
},
{
closed = 1;
nodes = (
(485,236,o),
(438,324,o),
(438,532,cs),
(438,742,o),
(485,832,o),
(591,832,cs),
(699,832,o),
(745,742,o),
(745,532,cs),
(745,326,o),
(699,236,o),
(591,236,cs)
);
},
{
closed = 1;
nodes = (
(1407,846,o),
(1445,744,o),
(1445,692,cs),
(1445,668,o),
(1438,664,o),
(1411,664,cs),
(1151,666,l),
(1149,790,o),
(1226,846,o),
(1308,846,cs)
);
}
);
};
layerId = "258ED206-D907-4350-8EBA-CBDDA1C16BF7";
shapes = (
{
alignment = -1;
ref = o;
},
{
pos = (673,0);
ref = e;
}
);
width = 1843;
},
{
background = {
shapes = (
{
closed = 1;
nodes = (
(818,-20,o),
(969,74,o),
(1049,234,cs),
(1064,266,o),
(1075,264,o),
(1085,240,cs),
(1165,78,o),
(1318,-20,o),
(1511,-20,cs),
(1699,-20,o),
(1839,54,o),
(1931,200,c),
(1937,208,o),
(1935,216,o),
(1929,220,cs),
(1883,250,l),
(1875,256,o),
(1869,254,o),
(1860,242,c),
(1789,122,o),
(1671,58,o),
(1511,58,cs),
(1293,58,o),
(1110,246,o),
(1110,472,cs),
(1110,496,o),
(1121,508,o),
(1141,508,cs),
(1935,508,ls),
(1961,508,o),
(1969,524,o),
(1969,542,cs),
(1969,878,o),
(1799,1080,o),
(1505,1080,cs),
(1313,1080,o),
(1157,974,o),
(1083,804,cs),
(1075,786,o),
(1066,786,o),
(1057,804,cs),
(980,976,o),
(827,1080,o),
(629,1080,cs),
(337,1080,o),
(141,856,o),
(141,524,cs),
(141,196,o),
(333,-20,o),
(627,-20,cs)
);
},
{
closed = 1;
nodes = (
(387,58,o),
(225,246,o),
(225,528,cs),
(225,810,o),
(387,1002,o),
(629,1002,cs),
(867,1002,o),
(1029,810,o),
(1029,528,cs),
(1029,244,o),
(873,58,o),
(631,58,cs)
);
},
{
closed = 1;
nodes = (
(1732,1002,o),
(1887,828,o),
(1887,608,cs),
(1887,586,o),
(1881,580,o),
(1853,580,cs),
(1117,582,l),
(1115,824,o),
(1281,1002,o),
(1509,1002,cs)
);
}
);
};
layerId = "91AB5BCA-6A50-42DA-B2F7-8181BF189245";
shapes = (
{
alignment = -1;
ref = o;
},
{
pos = (809,0);
ref = e;
}
);
width = 1923;
}
);
metricLeft = o;
metricRight = e;
unicode = 339;
},
{
glyphname = p;
kernLeft = n;
kernRight = o;
lastChange = "2020-01-07 05:56:03 +0000";
layers = (
{
background = {
shapes = (
{
closed = 1;
nodes = (
(117,1060,ls),
(75,1060,o),
(64,1042,o),
(64,1008,cs),
(64,-286,ls),
(64,-316,o),
(79,-330,o),
(102,-330,cs),
(428,-330,ls),
(451,-330,o),
(463,-316,o),
(463,-290,cs),
(463,72,ls),
(463,112,o),
(474,110,o),
(505,82,cs),
(589,2,o),
(671,-20,o),
(762,-20,cs),
(985,-20,o),
(1167,130,o),
(1167,534,cs),
(1167,908,o),
(997,1080,o),
(775,1080,cs),
(651,1080,o),
(573,1038,o),
(495,966,cs),
(481,954,o),
(465,954,o),
(465,970,cs),
(465,1012,ls),
(465,1046,o),
(451,1060,o),
(413,1060,cs)
);
},
{
closed = 1;
nodes = (
(463,726,ls),
(463,790,o),
(525,838,o),
(604,838,cs),
(707,838,o),
(764,778,o),
(764,546,cs),
(764,290,o),
(703,222,o),
(604,222,cs),
(539,222,o),
(497,254,o),
(463,302,c)
);
}
);
};
layerId = "258ED206-D907-4350-8EBA-CBDDA1C16BF7";
shapes = (
{
closed = 1;
nodes = (
(489,-322,l),
(489,126,l),
(557,20,o),
(668,-20,o),
(753,-20,cs),
(973,-20,o),
(1175,126,o),
(1175,520,cs),
(1175,886,o),
(1011,1054,o),
(795,1054,cs),
(698,1054,o),
(569,1020,o),
(491,914,c),
(491,1034,l),
(100,1034,l),
(100,-322,l)
);
},
{
closed = 1;
nodes = (
(537,258,o),
(489,393,o),
(489,520,c),
(489,660,o),
(537,780,o),
(651,780,cs),
(737,780,o),
(815,688,o),
(815,520,cs),
(815,334,o),
(737,258,o),
(651,258,c)
);
}
);
width = 1235;
},
{
background = {
shapes = (
{
closed = 1;
nodes = (
(219,1060,ls),
(200,1060,o),
(194,1054,o),
(194,1036,cs),
(194,-312,ls),
(194,-324,o),
(200,-330,o),
(211,-330,cs),
(257,-330,ls),
(271,-330,o),
(274,-324,o),
(274,-310,cs),
(274,66,ls),
(274,92,o),
(280,98,o),
(303,80,cs),
(360,32,o),
(461,-20,o),
(597,-20,cs),
(891,-20,o),
(1076,210,o),
(1076,550,cs),
(1076,904,o),
(877,1080,o),
(620,1080,cs),
(412,1080,o),
(326,962,o),
(295,928,cs),
(278,912,o),
(271,914,o),
(271,936,cs),
(271,1038,ls),
(271,1052,o),
(265,1060,o),
(251,1060,cs)
);
},
{
closed = 1;
nodes = (
(274,728,ls),
(274,848,o),
(410,1004,o),
(610,1004,cs),
(811,1004,o),
(992,860,o),
(992,542,cs),
(992,238,o),
(824,56,o),
(595,56,cs),
(473,56,o),
(372,114,o),
(274,208,c)
);
}
);
};
layerId = "91AB5BCA-6A50-42DA-B2F7-8181BF189245";
shapes = (
{
closed = 1;
nodes = (
(260,-322,l),
(260,219,l),
(291,140,o),
(380,-20,o),
(618,-20,cs),
(917,-20,o),
(1058,202,o),
(1058,536,cs),
(1058,888,o),
(882,1054,o),
(618,1054,cs),
(380,1054,o),
(290,896,o),
(260,822,c),
(256,1034,l),
(180,1034,l),
(180,-322,l)
);
},
{
closed = 1;
nodes = (
(384,54,o),
(257,254,o),
(257,528,cs),
(257,802,o),
(384,978,o),
(618,978,cs),
(860,978,o),
(974,798,o),
(974,528,cs),
(974,206,o),
(832,54,o),
(618,54,cs)
);
}
);
width = 1168;
}
);
metricLeft = n;
metricRight = o;
unicode = 112;
},
{
glyphname = thorn;
kernLeft = n;
kernRight = o;
lastChange = "2020-01-07 05:56:03 +0000";
layers = (
{
background = {
shapes = (
{
closed = 1;
nodes = (
(117,1484,ls),
(75,1484,o),
(64,1466,o),
(64,1432,cs),
(64,-286,ls),
(64,-316,o),
(79,-330,o),
(102,-330,cs),
(428,-330,ls),
(451,-330,o),
(463,-316,o),
(463,-290,cs),
(463,72,ls),
(463,112,o),
(474,110,o),
(505,82,cs),
(589,2,o),
(671,-20,o),
(762,-20,cs),
(985,-20,o),
(1167,130,o),
(1167,534,cs),
(1167,908,o),
(997,1080,o),
(775,1080,cs),
(651,1080,o),
(573,1038,o),
(495,966,cs),
(481,954,o),
(465,954,o),
(465,970,cs),
(465,1436,ls),
(465,1470,o),
(451,1484,o),
(413,1484,cs)
);
},
{
closed = 1;
nodes = (
(463,726,ls),
(463,790,o),
(525,838,o),
(604,838,cs),
(707,838,o),
(764,778,o),
(764,546,cs),
(764,290,o),
(703,222,o),
(604,222,cs),
(539,222,o),
(497,254,o),
(463,302,c)
);
}
);
};
layerId = "258ED206-D907-4350-8EBA-CBDDA1C16BF7";
shapes = (
{
closed = 1;
nodes = (
(100,1446,l),
(100,-322,l),
(489,-322,l),
(489,70,ls),
(489,110,o),
(497,108,o),
(529,80,cs),
(611,2,o),
(691,-20,o),
(779,-20,cs),
(997,-20,o),
(1175,126,o),
(1175,520,cs),
(1175,886,o),
(1009,1054,o),
(793,1054,cs),
(657,1054,o),
(573,1002,o),
(491,914,c),
(491,1446,l)
);
},
{
closed = 1;
nodes = (
(489,708,ls),
(489,770,o),
(549,818,o),
(625,818,cs),
(728,818,o),
(781,758,o),
(781,532,cs),
(781,282,o),
(724,216,o),
(625,216,cs),
(564,216,o),
(522,248,o),
(489,294,c)
);
}
);
width = 1235;
},
{
background = {
shapes = (
{
closed = 1;
nodes = (
(210,1484,ls),
(191,1484,o),
(185,1478,o),
(185,1460,cs),
(185,-312,ls),
(185,-324,o),
(191,-330,o),
(202,-330,cs),
(248,-330,ls),
(262,-330,o),
(265,-324,o),
(265,-310,cs),
(265,66,ls),
(265,92,o),
(271,98,o),
(294,80,cs),
(351,32,o),
(452,-20,o),
(588,-20,cs),
(882,-20,o),
(1067,210,o),
(1067,550,cs),
(1067,904,o),
(868,1080,o),
(611,1080,cs),
(403,1080,o),
(317,962,o),
(286,928,cs),
(269,912,o),
(262,914,o),
(262,936,cs),
(262,1462,ls),
(262,1476,o),
(256,1484,o),
(242,1484,cs)
);
},
{
closed = 1;
nodes = (
(265,728,ls),
(265,848,o),
(401,1004,o),
(601,1004,cs),
(802,1004,o),
(983,860,o),
(983,542,cs),
(983,238,o),
(815,56,o),
(586,56,cs),
(464,56,o),
(363,114,o),
(265,208,c)
);
}
);
};
layerId = "91AB5BCA-6A50-42DA-B2F7-8181BF189245";
shapes = (
{
closed = 1;
nodes = (
(180,1446,l),
(180,-322,l),
(258,-322,l),
(258,64,ls),
(258,90,o),
(264,96,o),
(284,78,cs),
(342,32,o),
(437,-20,o),
(571,-20,cs),
(857,-20,o),
(1040,204,o),
(1040,536,cs),
(1040,882,o),
(844,1054,o),
(594,1054,cs),
(376,1054,o),
(286,918,o),
(254,880,c),
(254,1446,l)
);
},
{
closed = 1;
nodes = (
(258,710,ls),
(258,826,o),
(390,978,o),
(584,978,cs),
(779,978,o),
(958,838,o),
(958,528,cs),
(958,232,o),
(794,54,o),
(569,54,cs),
(450,54,o),
(351,112,o),
(258,202,c)
);
}
);
width = 1150;
}
);
metricLeft = n;
metricRight = o;
unicode = 254;
},
{
glyphname = q;
kernLeft = o;
kernRight = u;
lastChange = "2020-01-07 05:39:49 +0000";
layers = (
{
background = {
shapes = (
{
closed = 1;
nodes = (
(842,1060,o),
(826,1044,o),
(816,1012,cs),
(784,920,ls),
(778,902,o),
(771,900,o),
(758,914,cs),
(681,1014,o),
(572,1082,o),
(426,1082,cs),
(152,1082,o),
(-18,862,o),
(-18,528,cs),
(-18,172,o),
(145,-20,o),
(402,-20,cs),
(492,-20,o),
(578,22,o),
(650,78,cs),
(672,96,o),
(687,94,o),
(687,56,cs),
(687,-290,ls),
(687,-316,o),
(700,-330,o),
(723,-330,cs),
(1048,-330,ls),
(1070,-330,o),
(1086,-316,o),
(1086,-286,cs),
(1086,1008,ls),
(1086,1042,o),
(1074,1060,o),
(1032,1060,cs),
(866,1060,ls)
);
},
{
closed = 1;
nodes = (
(647,244,o),
(601,220,o),
(540,220,cs),
(444,220,o),
(386,296,o),
(386,530,cs),
(386,762,o),
(450,852,o),
(548,852,cs),
(632,852,o),
(687,786,o),
(687,688,cs),
(687,286,l)
);
}
);
};
layerId = "258ED206-D907-4350-8EBA-CBDDA1C16BF7";
shapes = (
{
closed = 1;
nodes = (
(1135,1034,l),
(744,1034,l),
(744,914,l),
(666,1020,o),
(537,1054,o),
(440,1054,cs),
(224,1054,o),
(60,886,o),
(60,520,cs),
(60,126,o),
(262,-20,o),
(482,-20,cs),
(567,-20,o),
(678,20,o),
(746,126,c),
(746,-322,l),
(1135,-322,l)
);
},
{
closed = 1;
nodes = (
(498,258,o),
(420,334,o),
(420,520,cs),
(420,688,o),
(498,780,o),
(584,780,cs),
(698,780,o),
(746,660,o),
(746,520,c),
(746,393,o),
(698,258,o),
(584,258,c)
);
}
);
width = 1235;
},
{
background = {
shapes = (
{
closed = 1;
nodes = (
(871,1060,o),
(868,1054,o),
(866,1034,cs),
(858,952,ls),
(855,936,o),
(849,934,o),
(837,946,cs),
(805,974,o),
(729,1080,o),
(507,1080,cs),
(213,1080,o),
(45,862,o),
(45,536,cs),
(45,204,o),
(221,-20,o),
(511,-20,cs),
(645,-20,o),
(755,28,o),
(826,82,cs),
(851,102,o),
(853,96,o),
(853,68,cs),
(853,-308,ls),
(853,-324,o),
(858,-330,o),
(870,-330,cs),
(915,-330,ls),
(927,-330,o),
(933,-324,o),
(933,-310,cs),
(933,1034,ls),
(933,1054,o),
(927,1060,o),
(911,1060,cs),
(895,1060,ls)
);
},
{
closed = 1;
nodes = (
(771,114,o),
(645,56,o),
(521,56,cs),
(293,56,o),
(129,236,o),
(129,538,cs),
(129,850,o),
(305,1004,o),
(515,1004,cs),
(709,1004,o),
(853,858,o),
(853,706,cs),
(853,210,l)
);
}
);
};
layerId = "91AB5BCA-6A50-42DA-B2F7-8181BF189245";
shapes = (
{
closed = 1;
nodes = (
(988,1034,l),
(912,1034,l),
(908,822,l),
(878,896,o),
(788,1054,o),
(550,1054,cs),
(251,1054,o),
(110,847,o),
(110,536,cs),
(110,158,o),
(286,-20,o),
(550,-20,cs),
(788,-20,o),
(877,140,o),
(908,219,c),
(908,-322,l),
(988,-322,l)
);
},
{
closed = 1;
nodes = (
(308,54,o),
(194,244,o),
(194,528,cs),
(194,834,o),
(336,978,o),
(550,978,cs),
(784,978,o),
(911,802,o),
(911,528,cs),
(911,254,o),
(784,54,o),
(550,54,cs)
);
}
);
width = 1168;
}
);
metricLeft = o;
metricRight = "=|n";
unicode = 113;
},
{
glyphname = r;
kernLeft = n;
kernRight = r;
lastChange = "2020-01-07 06:20:11 +0000";
layers = (
{
anchors = (
{
name = bottom;
pos = (293,0);
},
{
name = top;
pos = (472,1034);
}
);
background = {
anchors = (
{
name = bottom;
pos = (287,0);
},
{
name = top;
pos = (445,1060);
}
);
shapes = (
{
closed = 1;
nodes = (
(398,0,ls),
(443,0,o),
(463,16,o),
(463,58,cs),
(463,590,ls),
(463,660,o),
(547,726,o),
(636,726,cs),
(673,726,o),
(745,720,o),
(808,704,cs),
(831,698,o),
(848,710,o),
(848,736,cs),
(848,1040,ls),
(848,1068,o),
(819,1080,o),
(773,1080,cs),
(680,1080,o),
(547,1000,o),
(483,902,cs),
(470,884,o),
(449,888,o),
(449,908,cs),
(449,1020,ls),
(449,1044,o),
(436,1060,o),
(413,1060,cs),
(102,1060,ls),
(77,1060,o),
(64,1044,o),
(64,1014,cs),
(64,50,ls),
(64,16,o),
(75,0,o),
(115,0,cs)
);
}
);
};
layerId = "258ED206-D907-4350-8EBA-CBDDA1C16BF7";
metricRight = "=25";
shapes = (
{
closed = 1;
nodes = (
(489,0,l),
(489,496,ls),
(489,604,o),
(535,718,o),
(825,688,c),
(832,687,o),
(834,687,o),
(838,686,c),
(838,1054,l),
(838,1054,o),
(832,1054,o),
(823,1054,c),
(631,1054,o),
(523,914,o),
(476,748,c),
(476,1034,l),
(100,1034,l),
(100,0,l)
);
}
);
width = 863;
},
{
anchors = (
{
name = bottom;
pos = (218,0);
},
{
name = top;
pos = (397,1034);
}
);
background = {
anchors = (
{
name = bottom;
pos = (225,0);
},
{
name = top;
pos = (410,1060);
}
);
shapes = (
{
closed = 1;
nodes = (
(248,0,ls),
(260,0,o),
(265,6,o),
(265,18,cs),
(265,730,ls),
(265,864,o),
(466,1000,o),
(594,1000,cs),
(628,1000,o),
(643,998,o),
(653,998,cs),
(660,998,o),
(664,1002,o),
(664,1008,cs),
(664,1060,ls),
(664,1074,o),
(643,1080,o),
(594,1080,cs),
(485,1080,o),
(395,1032,o),
(275,902,cs),
(265,890,o),
(260,894,o),
(260,908,cs),
(260,1044,ls),
(260,1056,o),
(256,1060,o),
(244,1060,cs),
(202,1060,ls),
(189,1060,o),
(185,1054,o),
(185,1042,cs),
(185,18,ls),
(185,6,o),
(191,0,o),
(204,0,cs)
);
}
);
};
layerId = "91AB5BCA-6A50-42DA-B2F7-8181BF189245";
metricRight = "=x";
shapes = (
{
closed = 1;
nodes = (
(258,0,l),
(258,720,ls),
(258,926,o),
(438,972,o),
(537,972,c),
(566,972,o),
(621,967,o),
(649,954,c),
(649,1034,l),
(623,1048,o),
(578,1054,o),
(537,1054,c),
(438,1054,o),
(306,1020,o),
(252,880,c),
(252,1034,l),
(180,1034,l),
(180,0,l)
);
}
);
width = 739;
}
);
metricLeft = n;
metricRight = "x*1.1";
unicode = 114;
},
{
glyphname = s;
kernLeft = s;
kernRight = s;
lastChange = "2020-01-08 07:04:22 +0000";
layers = (
{
anchors = (
{
name = bottom;
pos = (558,0);
},
{
name = top;
pos = (560,1034);
}
);
background = {
anchors = (
{
name = bottom;
pos = (533,0);
},
{
name = top;
pos = (535,1060);
}
);
shapes = (
{
closed = 1;
nodes = (
(760,738,o),
(778,728,o),
(802,740,cs),
(986,828,ls),
(1014,842,o),
(997,868,o),
(986,888,cs),
(928,986,o),
(766,1080,o),
(548,1080,cs),
(238,1080,o),
(66,922,o),
(68,714,cs),
(70,532,o),
(192,432,o),
(394,396,cs),
(598,360,ls),
(674,346,o),
(690,324,o),
(690,298,cs),
(690,248,o),
(623,228,o),
(539,226,cs),
(380,222,o),
(325,288,o),
(280,340,cs),
(266,356,o),
(252,360,o),
(218,344,cs),
(44,256,ls),
(24,246,o),
(26,222,o),
(39,198,cs),
(106,78,o),
(282,-20,o),
(537,-20,cs),
(838,-20,o),
(1044,110,o),
(1044,340,cs),
(1044,494,o),
(955,630,o),
(708,682,cs),
(495,726,ls),
(424,740,o),
(416,760,o),
(416,778,cs),
(416,822,o),
(474,848,o),
(544,848,cs),
(642,848,o),
(703,802,o),
(743,756,cs)
);
}
);
};
layerId = "258ED206-D907-4350-8EBA-CBDDA1C16BF7";
shapes = (
{
closed = 1;
nodes = (
(820,-20,o),
(1026,98,o),
(1026,320,cs),
(1026,406,o),
(980,580,o),
(714,644,c),
(581,668,l),
(470,686,o),
(426,706,o),
(426,742,cs),
(426,782,o),
(483,804,o),
(555,804,cs),
(626,804,o),
(688,774,o),
(703,712,c),
(1020,712,l),
(1020,922,o),
(842,1054,o),
(560,1054,cs),
(258,1054,o),
(88,902,o),
(90,710,cs),
(92,524,o),
(224,430,o),
(422,394,c),
(575,370,l),
(668,356,o),
(699,336,o),
(699,298,cs),
(699,256,o),
(640,236,o),
(554,236,cs),
(520,236,o),
(416,248,o),
(390,348,c),
(60,348,l),
(104,84,o),
(340,-20,o),
(556,-20,cs)
);
}
);
width = 1092;
},
{
anchors = (
{
name = bottom;
pos = (483,0);
},
{
name = top;
pos = (509,1034);
}
);
background = {
anchors = (
{
name = bottom;
pos = (499,0);
},
{
name = top;
pos = (483,1060);
}
);
shapes = (
{
closed = 1;
nodes = (
(827,846,o),
(835,846,o),
(841,850,cs),
(887,880,ls),
(894,884,o),
(896,888,o),
(889,896,cs),
(812,1014,o),
(671,1080,o),
(507,1080,cs),
(289,1080,o),
(125,962,o),
(125,780,cs),
(125,680,o),
(179,590,o),
(379,530,cs),
(585,466,ls),
(753,416,o),
(821,354,o),
(821,264,cs),
(821,140,o),
(681,56,o),
(501,56,cs),
(333,56,o),
(211,128,o),
(142,248,cs),
(137,254,o),
(129,254,o),
(123,250,cs),
(79,222,ls),
(71,216,o),
(71,210,o),
(75,202,cs),
(142,70,o),
(307,-20,o),
(501,-20,cs),
(730,-20,o),
(905,102,o),
(905,274,cs),
(905,388,o),
(829,476,o),
(673,526,cs),
(403,614,ls),
(247,664,o),
(209,730,o),
(209,796,cs),
(209,924,o),
(335,1004,o),
(505,1004,cs),
(651,1004,o),
(761,946,o),
(823,852,cs)
);
}
);
};
guides = (
{
pos = (168,139);
},
{
angle = -103.349;
pos = (296,252);
},
{
angle = 180;
pos = (382,270);
showMeasurement = 1;
}
);
layerId = "91AB5BCA-6A50-42DA-B2F7-8181BF189245";
metricLeft = "=x*1.25";
metricRight = "=x*1.15";
shapes = (
{
closed = 1;
nodes = (
(754,-20,o),
(869,96,o),
(869,270,cs),
(869,380,o),
(814,481,o),
(663,523,cs),
(417,591,ls),
(301,623,o),
(233,670,o),
(233,764,cs),
(233,910,o),
(342,978,o),
(505,978,cs),
(662,978,o),
(746,899,o),
(760,780,c),
(843,780,l),
(833,966,o),
(699,1054,o),
(505,1054,cs),
(264,1054,o),
(151,938,o),
(151,764,cs),
(151,626,o),
(245,555,o),
(396,513,cs),
(642,445,ls),
(737,418,o),
(787,362,o),
(787,266,cs),
(787,123,o),
(676,56,o),
(509,56,cs),
(326,56,o),
(223,144,o),
(196,276,c),
(113,276,l),
(136,75,o),
(292,-20,o),
(509,-20,cs)
);
}
);
width = 973;
}
);
metricLeft = o;
metricRight = "=o*1.1";
unicode = 115;
},
{
glyphname = germandbls;
kernLeft = n;
kernRight = s;
lastChange = "2020-01-07 05:39:49 +0000";
layers = (
{
background = {
shapes = (
{
closed = 1;
nodes = (
(203,1484,o),
(77,1250,o),
(67,1028,cs),
(67,1008,o),
(65,992,o),
(39,992,cs),
(3,992,ls),
(-30,992,o),
(-45,972,o),
(-45,948,cs),
(-45,760,ls),
(-45,732,o),
(-28,722,o),
(-1,722,cs),
(51,722,ls),
(64,722,o),
(67,716,o),
(67,702,cs),
(67,40,ls),
(67,14,o),
(81,0,o),
(104,0,cs),
(430,0,ls),
(453,0,o),
(467,14,o),
(459,44,cs),
(459,1070,ls),
(459,1162,o),
(512,1234,o),
(617,1234,cs),
(701,1234,o),
(743,1190,o),
(743,1136,cs),
(743,1070,o),
(686,1024,o),
(627,964,cs),
(575,910,o),
(523,842,o),
(523,736,cs),
(523,590,o),
(619,498,o),
(745,442,cs),
(852,396,o),
(899,374,o),
(899,316,cs),
(899,252,o),
(843,226,o),
(783,226,cs),
(726,226,o),
(686,250,o),
(659,266,cs),
(644,276,o),
(627,272,o),
(617,254,cs),
(535,76,ls),
(527,60,o),
(531,42,o),
(549,32,cs),
(606,2,o),
(680,-20,o),
(791,-20,cs),
(1073,-20,o),
(1253,110,o),
(1253,358,cs),
(1253,626,o),
(1043,720,o),
(819,820,cs),
(810,824,o),
(806,830,o),
(806,836,cs),
(806,842,o),
(810,848,o),
(815,850,cs),
(1023,934,o),
(1102,1022,o),
(1102,1162,cs),
(1102,1374,o),
(923,1484,o),
(631,1484,cs)
);
}
);
};
layerId = "258ED206-D907-4350-8EBA-CBDDA1C16BF7";
shapes = (
{
closed = 1;
nodes = (
(233,1446,o),
(109,1202,o),
(100,968,c),
(102,0,l),
(483,0,l),
(483,1044,ls),
(483,1132,o),
(535,1204,o),
(638,1204,cs),
(720,1204,o),
(762,1160,o),
(762,1108,cs),
(762,1044,o),
(703,998,o),
(648,940,cs),
(598,888,o),
(547,820,o),
(547,718,cs),
(547,576,o),
(640,486,o),
(764,430,cs),
(865,386,o),
(913,364,o),
(913,308,cs),
(913,246,o),
(859,220,o),
(799,220,cs),
(730,220,o),
(684,254,o),
(651,276,c),
(545,44,l),
(606,8,o),
(688,-20,o),
(808,-20,cs),
(1083,-20,o),
(1257,108,o),
(1257,350,cs),
(1257,610,o),
(1054,702,o),
(835,800,cs),
(825,804,o),
(821,810,o),
(821,816,cs),
(821,820,o),
(825,826,o),
(831,828,cs),
(1033,910,o),
(1109,996,o),
(1109,1132,cs),
(1109,1340,o),
(938,1446,o),
(651,1446,cs)
);
}
);
width = 1323;
},
{
background = {
shapes = (
{
closed = 1;
nodes = (
(355,1484,o),
(187,1332,o),
(187,1076,cs),
(187,1068,o),
(187,1060,o),
(176,1060,cs),
(50,1060,ls),
(42,1060,o),
(38,1054,o),
(38,1048,cs),
(38,1002,ls),
(38,994,o),
(42,990,o),
(50,990,cs),
(174,990,ls),
(185,990,o),
(189,984,o),
(189,970,cs),
(189,16,ls),
(189,6,o),
(195,0,o),
(206,0,cs),
(254,0,ls),
(267,0,o),
(271,6,o),
(269,20,cs),
(269,1070,ls),
(269,1300,o),
(399,1408,o),
(582,1408,cs),
(729,1408,o),
(817,1338,o),
(817,1224,cs),
(817,1102,o),
(718,1064,o),
(632,1020,cs),
(487,948,o),
(428,894,o),
(428,794,cs),
(428,652,o),
(548,624,o),
(643,594,cs),
(794,548,o),
(945,494,o),
(945,310,cs),
(945,150,o),
(830,56,o),
(640,56,cs),
(548,56,o),
(492,78,o),
(430,112,cs),
(422,116,o),
(414,118,o),
(410,112,cs),
(378,64,ls),
(372,54,o),
(376,50,o),
(386,44,cs),
(454,2,o),
(567,-20,o),
(656,-20,cs),
(855,-20,o),
(1029,96,o),
(1029,316,cs),
(1029,572,o),
(796,634,o),
(670,674,cs),
(550,712,o),
(512,728,o),
(512,796,cs),
(512,866,o),
(554,888,o),
(676,954,cs),
(784,1012,o),
(901,1056,o),
(901,1218,cs),
(901,1340,o),
(834,1484,o),
(598,1484,cs)
);
}
);
};
layerId = "91AB5BCA-6A50-42DA-B2F7-8181BF189245";
shapes = (
{
closed = 1;
nodes = (
(344,1446,o),
(180,1292,o),
(180,1034,c),
(182,0,l),
(260,0,l),
(260,1044,ls),
(260,1268,o),
(388,1372,o),
(563,1372,cs),
(710,1372,o),
(794,1304,o),
(794,1194,cs),
(794,1074,o),
(698,1038,o),
(613,994,cs),
(473,924,o),
(414,872,o),
(414,774,cs),
(414,636,o),
(532,608,o),
(626,580,cs),
(771,534,o),
(920,482,o),
(920,302,cs),
(920,146,o),
(806,54,o),
(622,54,cs),
(525,54,o),
(468,80,o),
(401,118,c),
(357,52,l),
(428,6,o),
(548,-20,o),
(636,-20,cs),
(832,-20,o),
(1002,94,o),
(1002,308,cs),
(1002,558,o),
(773,618,o),
(649,658,cs),
(534,694,o),
(496,710,o),
(496,776,cs),
(496,844,o),
(538,866,o),
(656,930,cs),
(762,986,o),
(876,1030,o),
(876,1188,cs),
(876,1306,o),
(809,1446,o),
(580,1446,cs)
);
}
);
width = 1106;
}
);
metricLeft = n;
metricRight = s;
unicode = 223;
},
